{
.formatVersion = 3;
classes = (
{
code = "one two three B D F I J P S T V W X Y Igrave Iacute Icircumflex Idieresis Eth Yacute Thorn eth Dcaron dcaron Dcroat Itilde Imacron Ibreve Iogonek Idotaccent IJ Jcircumflex lcaron Sacute Scircumflex Scaron Tcaron Tbar Wcircumflex Ycircumflex Ydieresis uni0218 uni021A uni0402 uni0405 uni0406 uni0407 uni0408 uni0409 uni040A uni040E uni0411 uni0412 uni0414 uni0417 uni0420 uni0422 uni0423 uni0424 uni0425 uni042A uni042B uni042C uni042D uni042E Wgrave Wacute Wdieresis Ygrave G_r G_s f_f f_j g_j j_j l_l q_j r.alt r.fina r.init racute.alt racute.fina racute.init rcaron.alt rcaron.fina rcaron.init s.alt s.fina s.init s_s sacute.alt sacute.fina sacute.init scaron.alt scaron.fina scaron.init scedilla.alt scedilla.fina scedilla.init scircumflex.alt scircumflex.fina scircumflex.init t_h t_t uni0157.alt uni0157.fina uni0157.init uni0219.alt uni0219.fina uni0219.init uni0412044F uni0422044F uni0433.alt uni0433.fina uni0433.init uni0436.alt uni0436.fina uni0436.init uni0436.ss02.alt uni0436.ss02.fina uni0436.ss02.init uni0437.alt uni0437.fina uni0437.init uni043B.alt uni043B.init uni043C.alt uni043C.init uni0445.alt uni0445.fina uni0445.init uni0447.alt uni0447.fina uni0447.init uni044A.alt uni044A.fina uni044A.init uni044D.alt uni044D.fina uni044D.init uni044F.alt uni044F.init uni0453.alt uni0453.fina uni0453.init uni0455.alt uni0455.fina uni0455.init uni0459.alt uni0459.init uni0491.alt uni0491.fina uni0491.init x.alt x.fina x.init y_j z.alt z.fina z.init zacute.alt zacute.fina zacute.init zcaron.alt zcaron.fina zcaron.init zdotaccent.alt zdotaccent.fina zdotaccent.init";
name = aalt;
},
{

glyphs = (
{
glyphname = .notdef;
layers = (
{
hints = (
{
horizontal = 1;
place = (-17,64);
type = Stem;
},
{
horizontal = 1;
place = (641,67);
type = Stem;
},
{
place = (94,76);
type = Stem;
},
{
place = (455,66);
type = Stem;
}
);
layerId = "E0442E84-B566-4B90-AE92-7C1FE943EFDC";
shapes = (
{
closed = 1;
nodes = (
(519,677,o),
(503,708,o),
(471,708,c),
(142,709,l),
(109,709,o),
(93,678,o),
(93,647,cs),
(93,632,o),
(94,593,o),
(94,539,cs),
(94,464,o),
(92,358,o),
(84,247,cs),
(79,177,o),
(73,108,o),
(73,47,cs),
(73,4,o),
(106,-17,o),
(140,-17,c),
(435,-18,l),
(469,-18,o),
(503,4,o),
(503,48,cs),
(503,78,o),
(508,154,o),
(514,238,cs),
(520,318,o),
(521,401,o),
(521,471,cs),
(521,557,o),
(519,625,o),
(519,645,cs)
);
},
{
closed = 1;
nodes = (
(437,178,o),
(432,109,o),
(431,48,c),
(431,47,l),
(151,48,l),
(151,49,l),
(151,79,o),
(152,154,o),
(158,238,cs),
(165,333,o),
(170,440,o),
(170,530,cs),
(170,572,o),
(169,611,o),
(166,642,c),
(446,641,l),
(452,612,o),
(455,569,o),
(455,516,cs),
(455,439,o),
(449,342,o),
(442,247,cs)
);
},
{
closed = 1;
nodes = (
(362,467,o),
(356,464,o),
(349,460,cs),
(334,451,o),
(314,422,o),
(296,386,c),
(291,407,o),
(288,428,o),
(287,446,cs),
(286,460,o),
(278,468,o),
(268,468,c),
(267,468,o),
(267,468,o),
(266,468,c),
(251,467,o),
(243,460,o),
(243,448,cs),
(243,446,o),
(243,439,o),
(244,430,cs),
(247,401,o),
(256,365,o),
(271,329,c),
(247,276,o),
(240,270,o),
(236,270,cs),
(232,270,o),
(228,274,o),
(225,277,cs),
(220,282,o),
(216,282,o),
(210,282,cs),
(200,282,o),
(193,273,o),
(193,263,cs),
(193,256,o),
(196,249,o),
(202,243,cs),
(211,235,o),
(222,231,o),
(236,231,cs),
(262,231,o),
(280,252,o),
(296,282,c),
(307,264,o),
(320,247,o),
(336,231,cs),
(343,224,o),
(349,218,o),
(357,218,cs),
(372,218,o),
(379,230,o),
(379,240,cs),
(379,247,o),
(377,252,o),
(370,257,cs),
(347,273,o),
(329,298,o),
(316,327,c),
(336,375,o),
(357,411,o),
(379,430,cs),
(386,436,o),
(390,441,o),
(390,447,cs),
(390,460,o),
(380,467,o),
(369,467,cs)
);
}
);
width = 600;
}
);
},
{
glyphname = exclam;
layers = (
{
hints = (
{
horizontal = 1;
place = (-15,133);
type = Stem;
},
{
place = (56,134);
type = Stem;
},
{
place = (80,108);
type = Stem;
}
);
layerId = "E0442E84-B566-4B90-AE92-7C1FE943EFDC";
shapes = (
{
closed = 1;
nodes = (
(152,166,o),
(177,184,o),
(179,222,cs),
(185,308,o),
(188,397,o),
(188,478,cs),
(188,557,o),
(185,629,o),
(181,682,c),
(179,721,o),
(152,741,o),
(126,741,cs),
(98,741,o),
(71,718,o),
(74,672,cs),
(78,624,o),
(80,562,o),
(80,494,cs),
(80,390,o),
(76,304,o),
(72,228,cs),
(70,187,o),
(98,166,o),
(126,166,cs)
);
},
{
closed = 1;
nodes = (
(160,-15,o),
(190,14,o),
(190,52,cs),
(190,89,o),
(160,118,o),
(123,118,cs),
(86,118,o),
(56,89,o),
(56,52,cs),
(56,14,o),
(86,-15,o),
(123,-15,cs)
);
}
);
width = 231;
}
);
unicode = 33;
},
{
glyphname = quotedbl;
layers = (
{
hints = (
{
horizontal = 1;
place = (764,-20);
target = down;
type = TopGhost;
},
{
place = (24,274);
type = Stem;
}
);
layerId = "E0442E84-B566-4B90-AE92-7C1FE943EFDC";
shapes = (
{
closed = 1;
nodes = (
(98,505,o),
(125,528,o),
(129,561,cs),
(145,700,ls),
(149,734,o),
(127,764,o),
(95,764,cs),
(68,764,o),
(44,742,o),
(40,710,cs),
(24,571,ls),
(20,538,o),
(39,510,o),
(69,508,c)
);
},
{
closed = 1;
nodes = (
(255,508,o),
(278,530,o),
(282,561,cs),
(298,700,ls),
(302,734,o),
(280,764,o),
(249,764,cs),
(222,764,o),
(197,742,o),
(193,710,cs),
(177,571,ls),
(173,536,o),
(195,508,o),
(227,508,cs)
);
}
);
width = 323;
}
);
unicode = 34;
},
{
glyphname = numbersign;
layers = (
{
hints = (
{
horizontal = 1;
place = (199,89);
type = Stem;
},
{
horizontal = 1;
place = (361,89);
type = Stem;
},
{
horizontal = 1;
place = (363,89);
type = Stem;
},
{
horizontal = 1;
place = (366,89);
type = Stem;
},
{
place = (34,489);
type = Stem;
}
);
layerId = "E0442E84-B566-4B90-AE92-7C1FE943EFDC";
shapes = (
{
closed = 1;
nodes = (
(506,361,o),
(523,383,o),
(523,406,cs),
(523,428,o),
(506,450,o),
(473,450,cs),
(451,450,l),
(461,480,o),
(470,506,o),
(477,525,cs),
(480,533,o),
(481,541,o),
(481,548,cs),
(481,577,o),
(457,595,o),
(432,595,cs),
(413,595,o),
(394,584,o),
(385,560,cs),
(375,533,o),
(362,495,o),
(349,452,c),
(325,453,o),
(301,453,o),
(277,453,c),
(286,482,o),
(294,507,o),
(301,525,cs),
(304,533,o),
(305,541,o),
(305,548,cs),
(305,579,o),
(281,597,o),
(257,597,cs),
(238,597,o),
(218,586,o),
(209,560,cs),
(199,534,o),
(187,497,o),
(174,455,c),
(115,455,ls),
(80,455,o),
(63,432,o),
(63,409,cs),
(63,388,o),
(79,366,o),
(111,366,cs),
(120,366,o),
(132,366,o),
(147,365,c),
(139,340,o),
(132,313,o),
(124,288,c),
(83,288,ls),
(51,288,o),
(34,265,o),
(34,243,cs),
(34,221,o),
(50,199,o),
(85,199,cs),
(99,199,l),
(87,159,o),
(78,126,o),
(72,106,cs),
(70,100,o),
(69,94,o),
(69,89,cs),
(69,60,o),
(95,41,o),
(120,41,cs),
(139,41,o),
(158,52,o),
(165,77,cs),
(170,96,o),
(183,142,o),
(200,199,c),
(273,199,l),
(261,159,o),
(251,126,o),
(246,106,cs),
(244,99,o),
(243,93,o),
(243,87,cs),
(243,56,o),
(267,37,o),
(290,37,cs),
(310,37,o),
(330,49,o),
(339,77,cs),
(345,97,o),
(358,143,o),
(375,199,c),
(441,199,ls),
(474,199,o),
(491,221,o),
(491,244,cs),
(491,266,o),
(474,288,o),
(441,288,cs),
(401,288,l),
(408,313,o),
(416,337,o),
(423,362,c),
(444,361,o),
(461,361,o),
(473,361,cs)
);
},
{
closed = 1;
nodes = (
(226,288,l),
(234,313,o),
(241,339,o),
(249,364,c),
(273,364,o),
(297,363,o),
(321,363,c),
(313,338,o),
(306,313,o),
(299,288,c)
);
}
);
width = 554;
}
);
unicode = 35;
},
{
glyphname = dollar;
layers = (
{
hints = (
{
horizontal = 1;
place = (-15,21);
target = up;
type = BottomGhost;
},
{
horizontal = 1;
place = (-13,21);
target = up;
type = BottomGhost;
},
{
place = (27,101);
type = Stem;
},
{
place = (51,103);
type = Stem;
},
{
place = (190,92);
type = Stem;
},
{
place = (193,92);
type = Stem;
},
{
place = (336,104);
type = Stem;
}
);
layerId = "E0442E84-B566-4B90-AE92-7C1FE943EFDC";
shapes = (
{
closed = 1;
nodes = (
(440,282,o),
(361,340,o),
(286,389,c),
(286,413,ls),
(286,465,o),
(286,518,o),
(285,569,c),
(297,562,o),
(307,552,o),
(316,541,cs),
(330,522,o),
(348,514,o),
(363,514,cs),
(387,514,o),
(407,533,o),
(407,559,cs),
(407,571,o),
(402,584,o),
(393,598,cs),
(366,638,o),
(325,663,o),
(282,674,c),
(282,678,ls),
(282,716,o),
(258,734,o),
(235,734,cs),
(213,734,o),
(190,717,o),
(190,678,cs),
(190,676,l),
(113,663,o),
(51,609,o),
(51,524,cs),
(51,434,o),
(122,380,o),
(193,332,c),
(191,234,o),
(187,151,o),
(184,89,c),
(151,104,o),
(128,136,o),
(128,184,cs),
(128,194,o),
(131,208,o),
(131,221,cs),
(131,255,o),
(109,272,o),
(84,272,cs),
(62,272,o),
(38,256,o),
(30,221,cs),
(27,209,o),
(27,196,o),
(27,181,cs),
(27,75,o),
(93,7,o),
(178,-13,c),
(178,-18,ls),
(178,-57,o),
(202,-79,o),
(225,-79,cs),
(248,-79,o),
(271,-60,o),
(274,-18,c),
(274,-15,l),
(364,2,o),
(440,72,o),
(440,182,cs)
);
},
{
closed = 1;
nodes = (
(154,552,o),
(170,570,o),
(192,579,c),
(193,538,o),
(194,492,o),
(194,453,c),
(170,475,o),
(154,497,o),
(154,524,cs)
);
},
{
closed = 1;
nodes = (
(282,145,o),
(284,206,o),
(285,268,c),
(315,243,o),
(336,216,o),
(336,182,cs),
(336,134,o),
(312,103,o),
(279,88,c)
);
}
);
width = 467;
}
);
unicode = 36;
},
{
glyphname = percent;
layers = (
{
hints = (
{
horizontal = 1;
place = (-6,86);
type = Stem;
},
{
horizontal = 1;
place = (139,86);
type = Stem;
},
{
horizontal = 1;
place = (435,86);
type = Stem;
},
{
horizontal = 1;
place = (580,86);
type = Stem;
},
{
place = (36,90);
type = Stem;
},
{
place = (187,88);
type = Stem;
},
{
place = (294,90);
type = Stem;
},
{
place = (445,88);
type = Stem;
}
);
layerId = "E0442E84-B566-4B90-AE92-7C1FE943EFDC";
shapes = (
{
closed = 1;
nodes = (
(121,-26,o),
(137,-18,o),
(151,0,cs),
(251,132,o),
(391,468,o),
(498,602,cs),
(509,615,o),
(514,630,o),
(514,642,cs),
(514,670,o),
(492,691,o),
(467,691,cs),
(453,691,o),
(438,684,o),
(424,668,c),
(310,527,o),
(166,186,o),
(71,61,c),
(62,48,o),
(58,35,o),
(58,24,cs),
(58,-4,o),
(80,-26,o),
(106,-26,cs)
);
},
{
closed = 1;
nodes = (
(226,435,o),
(275,498,o),
(275,563,cs),
(275,618,o),
(238,666,o),
(167,666,cs),
(86,666,o),
(36,602,o),
(36,538,cs),
(36,482,o),
(74,435,o),
(146,435,cs)
);
},
{
closed = 1;
nodes = (
(134,521,o),
(126,532,o),
(126,545,cs),
(126,561,o),
(138,580,o),
(161,580,cs),
(178,580,o),
(187,569,o),
(187,555,cs),
(187,539,o),
(174,521,o),
(152,521,cs)
);
},
{
closed = 1;
nodes = (
(484,-6,o),
(533,58,o),
(533,122,cs),
(533,178,o),
(496,225,o),
(426,225,cs),
(344,225,o),
(294,162,o),
(294,97,cs),
(294,41,o),
(332,-6,o),
(405,-6,cs)
);
},
{
closed = 1;
nodes = (
(392,80,o),
(384,91,o),
(384,105,cs),
(384,121,o),
(397,139,o),
(419,139,cs),
(436,139,o),
(445,128,o),
(445,114,cs),
(445,98,o),
(432,80,o),
(411,80,cs)
);
}
);
width = 572;
}
);
unicode = 37;
},
{
glyphname = ampersand;
layers = (
{
hints = (
{
horizontal = 1;
place = (-20,99);
type = Stem;
},
{
horizontal = 1;
place = (415,-20);
target = down;
type = TopGhost;
},
{
horizontal = 1;
place = (601,95);
type = Stem;
},
{
place = (11,111);
type = Stem;
},
{
place = (112,95);
type = Stem;
},
{
place = (267,90);
type = Stem;
},
{
place = (397,100);
type = Stem;
}
);
layerId = "E0442E84-B566-4B90-AE92-7C1FE943EFDC";
shapes = (
{
closed = 1;
nodes = (
(486,80,o),
(461,97,o),
(437,115,c),
(473,168,o),
(495,233,o),
(496,303,c),
(497,314,o),
(497,325,o),
(497,336,cs),
(497,346,o),
(497,356,o),
(496,365,cs),
(494,399,o),
(472,415,o),
(445,415,cs),
(423,415,o),
(397,396,o),
(397,357,cs),
(397,341,o),
(397,320,o),
(396,298,cs),
(393,252,o),
(381,213,o),
(363,180,c),
(309,236,o),
(267,300,o),
(240,366,c),
(299,437,o),
(357,512,o),
(357,590,cs),
(357,653,o),
(324,696,o),
(258,696,cs),
(174,696,o),
(112,633,o),
(112,530,cs),
(112,482,o),
(119,434,o),
(131,386,c),
(70,315,o),
(11,237,o),
(11,163,cs),
(11,54,o),
(85,-20,o),
(202,-20,cs),
(260,-20,o),
(316,1,o),
(363,36,c),
(393,12,o),
(425,-9,o),
(459,-26,cs),
(474,-33,o),
(484,-36,o),
(493,-36,cs),
(524,-36,o),
(545,-9,o),
(545,18,cs),
(545,37,o),
(535,55,o),
(512,66,c)
);
},
{
closed = 1;
nodes = (
(207,581,o),
(230,601,o),
(246,601,cs),
(259,601,o),
(267,593,o),
(267,575,cs),
(267,549,o),
(243,516,o),
(211,477,c),
(208,494,o),
(207,511,o),
(207,528,cs)
);
},
{
closed = 1;
nodes = (
(122,201,o),
(142,239,o),
(171,279,c),
(201,215,o),
(242,156,o),
(290,104,c),
(263,88,o),
(234,79,o),
(207,79,cs),
(133,79,o),
(122,110,o),
(122,165,cs)
);
}
);
width = 551;
}
);
unicode = 38;
},
{
glyphname = quotesingle;
layers = (
{
hints = (
{
horizontal = 1;
place = (764,-20);
target = down;
type = TopGhost;
},
{
place = (24,121);
type = Stem;
}
);
layerId = "E0442E84-B566-4B90-AE92-7C1FE943EFDC";
shapes = (
{
closed = 1;
nodes = (
(145,700,ls),
(149,734,o),
(127,764,o),
(95,764,cs),
(68,764,o),
(44,742,o),
(40,710,cs),
(24,571,ls),
(20,538,o),
(39,510,o),
(69,508,c),
(98,505,o),
(125,528,o),
(129,561,cs)
);
}
);
width = 169;
}
);
unicode = 39;
},
{
glyphname = parenleft;
layers = (
{
hints = (
{
horizontal = 1;
place = (-25,726);
type = Stem;
},
{
place = (70,107);
type = Stem;
}
);
layerId = "E0442E84-B566-4B90-AE92-7C1FE943EFDC";
shapes = (
{
closed = 1;
nodes = (
(200,-18,o),
(218,-25,o),
(233,-25,cs),
(261,-25,o),
(283,-4,o),
(283,24,cs),
(283,40,o),
(275,59,o),
(257,76,cs),
(206,124,o),
(177,210,o),
(177,323,cs),
(177,430,o),
(204,532,o),
(251,606,cs),
(261,623,o),
(266,638,o),
(266,652,cs),
(266,681,o),
(245,701,o),
(220,701,cs),
(201,701,o),
(179,689,o),
(161,662,cs),
(103,572,o),
(70,446,o),
(70,318,cs),
(70,180,o),
(111,68,o),
(183,-2,cs)
);
}
);
width = 333;
}
);
unicode = 40;
},
{
glyphname = parenright;
layers = (
{
hints = (
{
horizontal = 1;
place = (-25,726);
type = Stem;
},
{
place = (156,107);
type = Stem;
}
);
layerId = "E0442E84-B566-4B90-AE92-7C1FE943EFDC";
shapes = (
{
closed = 1;
nodes = (
(230,104,o),
(263,230,o),
(263,359,cs),
(263,496,o),
(222,609,o),
(150,678,cs),
(133,694,o),
(115,701,o),
(100,701,cs),
(72,701,o),
(50,680,o),
(50,652,cs),
(50,636,o),
(58,618,o),
(76,601,cs),
(127,553,o),
(156,466,o),
(156,354,cs),
(156,247,o),
(129,145,o),
(82,70,cs),
(72,53,o),
(67,38,o),
(67,24,cs),
(67,-5,o),
(88,-25,o),
(113,-25,cs),
(132,-25,o),
(154,-13,o),
(172,14,cs)
);
}
);
width = 333;
}
);
unicode = 41;
},
{
glyphname = asterisk;
layers = (
{
hints = (
{
horizontal = 1;
place = (498,278);
type = Stem;
},
{
place = (94,77);
type = Stem;
},
{
place = (106,76);
type = Stem;
}
);
layerId = "E0442E84-B566-4B90-AE92-7C1FE943EFDC";
shapes = (
{
closed = 1;
nodes = (
(228,624,o),
(215,632,o),
(203,641,c),
(215,651,o),
(227,661,o),
(240,671,cs),
(254,682,o),
(259,695,o),
(259,707,cs),
(259,726,o),
(243,743,o),
(223,743,cs),
(213,743,o),
(203,739,o),
(193,731,cs),
(172,714,l),
(172,721,o),
(171,728,o),
(171,735,c),
(169,763,o),
(150,776,o),
(132,776,cs),
(112,776,o),
(92,761,o),
(94,730,c),
(94,723,o),
(95,717,o),
(95,710,c),
(77,722,ls),
(68,728,o),
(59,731,o),
(51,731,cs),
(30,731,o),
(15,713,o),
(15,693,cs),
(15,680,o),
(22,667,o),
(37,657,cs),
(49,649,o),
(62,641,o),
(74,633,c),
(41,606,ls),
(29,596,o),
(23,583,o),
(23,572,cs),
(23,552,o),
(38,535,o),
(58,535,cs),
(67,535,o),
(77,538,o),
(88,547,cs),
(106,561,l),
(106,554,o),
(107,547,o),
(107,540,c),
(108,512,o),
(128,498,o),
(147,498,cs),
(166,498,o),
(185,513,o),
(183,545,c),
(183,551,o),
(182,558,o),
(182,564,c),
(189,560,o),
(195,555,o),
(202,551,cs),
(211,545,o),
(220,543,o),
(228,543,cs),
(249,543,o),
(263,560,o),
(263,579,cs),
(263,592,o),
(257,606,o),
(241,616,cs)
);
}
);
width = 279;
}
);
unicode = 42;
},
{
glyphname = plus;
layers = (
{
hints = (
{
horizontal = 1;
place = (289,97);
type = Stem;
},
{
place = (160,99);
type = Stem;
}
);
layerId = "E0442E84-B566-4B90-AE92-7C1FE943EFDC";
shapes = (
{
closed = 1;
nodes = (
(259,386,l),
(259,457,ls),
(259,491,o),
(235,508,o),
(210,508,cs),
(186,508,o),
(160,491,o),
(160,458,c),
(159,387,l),
(95,387,ls),
(61,387,o),
(44,363,o),
(44,338,cs),
(44,314,o),
(61,290,o),
(95,290,cs),
(159,290,l),
(158,221,l),
(158,185,o),
(183,168,o),
(209,168,cs),
(234,168,o),
(258,185,o),
(258,221,cs),
(258,289,l),
(331,289,ls),
(367,289,o),
(385,313,o),
(385,337,cs),
(385,362,o),
(367,386,o),
(331,386,cs)
);
}
);
width = 417;
}
);
unicode = 43;
},
{
glyphname = comma;
layers = (
{
hints = (
{
horizontal = 1;
place = (-147,259);
type = Stem;
},
{
place = (34,135);
type = Stem;
}
);
layerId = "E0442E84-B566-4B90-AE92-7C1FE943EFDC";
shapes = (
{
closed = 1;
nodes = (
(54,-147,o),
(66,-143,o),
(78,-136,cs),
(125,-108,o),
(169,-41,o),
(169,28,cs),
(169,88,o),
(133,112,o),
(98,112,cs),
(66,112,o),
(34,88,o),
(34,49,cs),
(34,14,o),
(60,8,o),
(60,-19,cs),
(60,-49,o),
(28,-73,o),
(13,-94,cs),
(8,-101,o),
(5,-109,o),
(5,-115,cs),
(5,-133,o),
(20,-147,o),
(43,-147,cs)
);
}
);
width = 199;
}
);
leftKerningGroup = comma;
unicode = 44;
},
{
glyphname = hyphen;
layers = (
{
hints = (
{
horizontal = 1;
place = (219,92);
type = Stem;
},
{
place = (100,279);
type = Stem;
}
);
layerId = "E0442E84-B566-4B90-AE92-7C1FE943EFDC";
shapes = (
{
closed = 1;
nodes = (
(363,219,o),
(379,241,o),
(379,264,cs),
(379,286,o),
(362,309,o),
(331,309,c),
(270,310,o),
(208,311,o),
(148,311,cs),
(116,311,o),
(100,289,o),
(100,266,cs),
(100,243,o),
(117,221,o),
(149,221,c),
(210,220,o),
(272,219,o),
(332,219,cs)
);
}
);
width = 456;
}
);
unicode = 45;
},
{
glyphname = period;
layers = (
{
hints = (
{
horizontal = 1;
place = (-17,133);
type = Stem;
},
{
place = (30,133);
type = Stem;
}
);
layerId = "E0442E84-B566-4B90-AE92-7C1FE943EFDC";
shapes = (
{
closed = 1;
nodes = (
(134,-17,o),
(163,12,o),
(163,50,cs),
(163,87,o),
(134,116,o),
(97,116,cs),
(59,116,o),
(30,87,o),
(30,50,cs),
(30,12,o),
(59,-17,o),
(97,-17,cs)
);
}
);
width = 193;
}
);
unicode = 46;
},
{
glyphname = slash;
layers = (
{
hints = (
{
horizontal = 1;
place = (-8,21);
target = up;
type = BottomGhost;
},
{
place = (40,352);
type = Stem;
}
);
layerId = "E0442E84-B566-4B90-AE92-7C1FE943EFDC";
shapes = (
{
closed = 1;
nodes = (
(102,-8,o),
(117,-1,o),
(128,16,cs),
(207,138,o),
(295,485,o),
(380,605,cs),
(388,616,o),
(392,628,o),
(392,638,cs),
(392,664,o),
(370,686,o),
(346,686,cs),
(332,686,o),
(319,680,o),
(306,665,cs),
(217,555,o),
(123,187,o),
(51,74,c),
(43,63,o),
(40,50,o),
(40,39,cs),
(40,13,o),
(64,-8,o),
(88,-8,cs)
);
}
);
width = 431;
}
);
unicode = 47;
},
{
glyphname = zero;
layers = (
{
hints = (
{
horizontal = 1;
place = (-10,98);
type = Stem;
},
{
horizontal = 1;
place = (593,99);
type = Stem;
},
{
place = (30,108);
type = Stem;
},
{
place = (347,108);
type = Stem;
}
);
layerId = "E0442E84-B566-4B90-AE92-7C1FE943EFDC";
shapes = (
{
closed = 1;
nodes = (
(379,-10,o),
(455,127,o),
(455,370,cs),
(455,573,o),
(382,692,o),
(253,692,cs),
(108,692,o),
(30,554,o),
(30,311,cs),
(30,97,o),
(98,-10,o),
(239,-10,cs)
);
},
{
closed = 1;
nodes = (
(168,88,o),
(138,148,o),
(138,311,cs),
(138,498,o),
(180,593,o),
(253,593,cs),
(312,593,o),
(347,517,o),
(347,370,cs),
(347,185,o),
(307,88,o),
(239,88,cs)
);
}
);
width = 485;
}
);
unicode = 48;
},
{
glyphname = one;
layers = (
{
hints = (
{
horizontal = 1;
place = (-8,21);
target = up;
type = BottomGhost;
},
{
place = (160,107);
type = Stem;
}
);
layerId = "E0442E84-B566-4B90-AE92-7C1FE943EFDC";
shapes = (
{
closed = 1;
nodes = (
(261,676,o),
(236,695,o),
(211,695,cs),
(188,695,o),
(166,681,o),
(158,652,cs),
(138,586,o),
(103,538,o),
(47,497,cs),
(28,483,o),
(20,465,o),
(20,449,cs),
(20,423,o),
(41,402,o),
(70,402,cs),
(82,402,o),
(94,406,o),
(107,414,cs),
(126,427,o),
(143,444,o),
(160,464,c),
(159,330,o),
(152,170,o),
(140,58,cs),
(135,15,o),
(164,-8,o),
(194,-8,cs),
(218,-8,o),
(242,8,o),
(246,43,cs),
(260,161,o),
(267,328,o),
(267,470,cs),
(267,535,o),
(266,594,o),
(263,641,cs)
);
}
);
width = 337;
}
);
unicode = 49;
},
{
glyphname = two;
layers = (
{
hints = (
{
horizontal = 1;
place = (-8,98);
type = Stem;
},
{
horizontal = 1;
place = (-2,21);
target = up;
type = BottomGhost;
},
{
horizontal = 1;
place = (594,98);
type = Stem;
},
{
place = (43,105);
type = Stem;
},
{
place = (279,108);
type = Stem;
}
);
layerId = "E0442E84-B566-4B90-AE92-7C1FE943EFDC";
shapes = (
{
closed = 1;
nodes = (
(59,112,o),
(23,101,o),
(23,56,cs),
(23,25,o),
(46,-2,o),
(78,-2,cs),
(110,-2,o),
(130,28,o),
(159,28,cs),
(180,28,o),
(241,-8,o),
(321,-8,cs),
(413,-8,o),
(479,78,o),
(479,160,cs),
(479,192,o),
(454,211,o),
(428,211,cs),
(407,211,o),
(384,197,o),
(377,165,cs),
(365,113,o),
(341,90,o),
(302,90,cs),
(280,90,o),
(251,97,o),
(222,109,c),
(320,222,o),
(387,383,o),
(387,502,cs),
(387,626,o),
(323,692,o),
(216,692,cs),
(113,692,o),
(43,616,o),
(43,490,cs),
(43,450,o),
(71,429,o),
(97,429,cs),
(112,429,o),
(126,436,o),
(136,448,cs),
(144,459,o),
(148,473,o),
(148,490,cs),
(148,559,o),
(175,594,o),
(216,594,cs),
(254,594,o),
(279,563,o),
(279,501,cs),
(279,373,o),
(181,191,o),
(118,151,cs)
);
}
);
width = 502;
}
);
unicode = 50;
},
{
glyphname = three;
layers = (
{
hints = (
{
horizontal = 1;
place = (-11,99);
type = Stem;
},
{
horizontal = 1;
place = (596,97);
type = Stem;
},
{
place = (43,102);
type = Stem;
},
{
place = (273,107);
type = Stem;
},
{
place = (320,107);
type = Stem;
}
);
layerId = "E0442E84-B566-4B90-AE92-7C1FE943EFDC";
shapes = (
{
closed = 1;
nodes = (
(351,428,o),
(380,478,o),
(380,535,cs),
(380,639,o),
(299,693,o),
(216,693,cs),
(131,693,o),
(43,637,o),
(43,527,cs),
(43,482,o),
(57,434,o),
(101,434,cs),
(126,434,o),
(150,452,o),
(150,482,cs),
(150,491,o),
(145,508,o),
(145,524,cs),
(145,570,o),
(180,596,o),
(214,596,cs),
(246,596,o),
(273,574,o),
(273,530,cs),
(273,479,o),
(247,438,o),
(191,417,cs),
(165,407,o),
(153,386,o),
(153,366,cs),
(153,340,o),
(172,315,o),
(205,315,cs),
(282,315,o),
(320,278,o),
(320,210,cs),
(320,135,o),
(274,88,o),
(209,88,cs),
(165,88,o),
(132,112,o),
(111,159,cs),
(100,183,o),
(81,195,o),
(62,195,cs),
(38,195,o),
(13,175,o),
(13,142,cs),
(13,106,o),
(40,63,o),
(76,32,cs),
(111,3,o),
(159,-11,o),
(209,-11,cs),
(335,-11,o),
(427,80,o),
(427,206,cs),
(427,292,o),
(382,358,o),
(305,389,c)
);
}
);
width = 470;
}
);
unicode = 51;
},
{
glyphname = four;
layers = (
{
hints = (
{
horizontal = 1;
place = (-10,21);
target = up;
type = BottomGhost;
},
{
horizontal = 1;
place = (240,98);
type = Stem;
},
{
place = (103,107);
type = Stem;
},
{
place = (263,107);
type = Stem;
},
{
place = (280,108);
type = Stem;
}
);
layerId = "E0442E84-B566-4B90-AE92-7C1FE943EFDC";
shapes = (
{
closed = 1;
nodes = (
(427,274,o),
(406,285,o),
(385,294,c),
(391,356,l),
(401,442,o),
(414,511,o),
(414,532,cs),
(414,569,o),
(388,589,o),
(361,589,cs),
(337,589,o),
(312,572,o),
(307,536,cs),
(297,475,o),
(288,403,o),
(280,330,c),
(257,335,o),
(235,338,o),
(219,338,cs),
(192,338,o),
(176,337,o),
(167,334,c),
(194,401,o),
(210,488,o),
(210,582,cs),
(210,600,o),
(209,618,o),
(208,636,cs),
(206,675,o),
(180,694,o),
(155,694,cs),
(126,694,o),
(98,672,o),
(101,629,cs),
(103,609,o),
(103,588,o),
(103,566,cs),
(103,481,o),
(89,392,o),
(65,355,cs),
(44,321,o),
(13,304,o),
(13,270,cs),
(13,241,o),
(38,214,o),
(70,214,cs),
(96,214,o),
(120,240,o),
(187,240,cs),
(214,240,o),
(243,237,o),
(271,230,c),
(266,165,o),
(263,103,o),
(263,51,cs),
(263,10,o),
(289,-10,o),
(316,-10,cs),
(343,-10,o),
(370,10,o),
(370,51,cs),
(370,98,o),
(372,145,o),
(376,190,c),
(391,181,ls),
(402,174,o),
(412,172,o),
(421,172,cs),
(449,172,o),
(470,194,o),
(470,219,cs),
(470,234,o),
(462,251,o),
(445,262,cs)
);
}
);
width = 496;
}
);
unicode = 52;
},
{
glyphname = five;
layers = (
{
hints = (
{
horizontal = 1;
place = (-10,98);
type = Stem;
},
{
horizontal = 1;
place = (396,94);
type = Stem;
},
{
horizontal = 1;
place = (572,100);
type = Stem;
},
{
place = (338,107);
type = Stem;
}
);
layerId = "E0442E84-B566-4B90-AE92-7C1FE943EFDC";
shapes = (
{
closed = 1;
nodes = (
(349,-10,o),
(445,103,o),
(445,269,cs),
(445,401,o),
(361,490,o),
(254,490,cs),
(233,490,o),
(202,483,o),
(186,476,c),
(193,510,o),
(197,542,o),
(200,560,cs),
(202,569,o),
(205,572,o),
(214,572,cs),
(261,572,o),
(340,577,o),
(394,615,cs),
(414,629,o),
(423,646,o),
(423,663,cs),
(423,689,o),
(402,712,o),
(375,712,cs),
(364,712,o),
(352,708,o),
(341,701,cs),
(294,672,o),
(251,672,o),
(165,672,cs),
(125,672,o),
(100,650,o),
(98,610,cs),
(96,576,o),
(90,499,o),
(68,431,c),
(66,422,o),
(64,415,o),
(64,408,cs),
(64,383,o),
(82,367,o),
(107,367,cs),
(141,367,o),
(171,396,o),
(231,396,cs),
(299,396,o),
(338,351,o),
(338,266,cs),
(338,148,o),
(280,88,o),
(217,88,cs),
(174,88,o),
(142,117,o),
(132,179,c),
(125,214,o),
(102,230,o),
(79,230,cs),
(53,230,o),
(27,209,o),
(27,173,cs),
(27,82,o),
(98,-10,o),
(211,-10,cs)
);
}
);
width = 488;
}
);
unicode = 53;
},
{
glyphname = six;
layers = (
{
hints = (
{
horizontal = 1;
place = (-8,98);
type = Stem;
},
{
horizontal = 1;
place = (345,99);
type = Stem;
},
{
horizontal = 1;
place = (594,99);
type = Stem;
},
{
place = (6,172);
type = Stem;
},
{
place = (383,107);
type = Stem;
}
);
layerId = "E0442E84-B566-4B90-AE92-7C1FE943EFDC";
shapes = (
{
closed = 1;
nodes = (
(268,444,o),
(229,432,o),
(190,412,c),
(213,532,o),
(268,594,o),
(325,594,cs),
(354,594,o),
(374,580,o),
(393,548,cs),
(407,525,o),
(426,515,o),
(444,515,cs),
(469,515,o),
(491,534,o),
(491,563,cs),
(491,573,o),
(488,584,o),
(483,596,cs),
(454,658,o),
(394,693,o),
(325,693,cs),
(181,693,o),
(84,552,o),
(73,325,c),
(54,306,o),
(36,284,o),
(21,262,cs),
(10,246,o),
(6,231,o),
(6,218,cs),
(6,190,o),
(25,170,o),
(49,170,cs),
(59,170,o),
(69,174,o),
(80,183,c),
(101,59,o),
(168,-8,o),
(272,-8,cs),
(393,-8,o),
(490,102,o),
(490,239,cs),
(490,362,o),
(417,444,o),
(304,444,cs)
);
},
{
closed = 1;
nodes = (
(210,90,o),
(178,151,o),
(178,281,cs),
(178,298,l),
(219,331,o),
(261,345,o),
(303,345,cs),
(352,345,o),
(383,313,o),
(383,244,cs),
(383,154,o),
(335,90,o),
(273,90,cs)
);
}
);
width = 537;
}
);
unicode = 54;
},
{
glyphname = seven;
layers = (
{
hints = (
{
horizontal = 1;
place = (-10,21);
target = up;
type = BottomGhost;
},
{
horizontal = 1;
place = (228,97);
type = Stem;
},
{
horizontal = 1;
place = (238,98);
type = Stem;
},
{
horizontal = 1;
place = (589,103);
type = Stem;
},
{
place = (23,430);
type = Stem;
}
);
layerId = "E0442E84-B566-4B90-AE92-7C1FE943EFDC";
shapes = (
{
closed = 1;
nodes = (
(367,674,o),
(363,657,o),
(324,657,cs),
(261,657,o),
(200,692,o),
(138,692,cs),
(71,692,o),
(23,629,o),
(23,582,cs),
(23,552,o),
(45,531,o),
(74,531,cs),
(92,531,o),
(111,540,o),
(122,563,cs),
(132,584,o),
(136,589,o),
(148,589,cs),
(170,589,o),
(234,567,o),
(272,565,c),
(236,494,o),
(209,412,o),
(189,334,c),
(171,335,o),
(153,336,o),
(133,336,cs),
(94,336,o),
(75,311,o),
(75,287,cs),
(75,262,o),
(94,238,o),
(133,238,cs),
(145,238,o),
(156,238,o),
(168,237,c),
(152,154,o),
(145,83,o),
(145,47,cs),
(145,9,o),
(170,-10,o),
(198,-10,cs),
(224,-10,o),
(249,9,o),
(252,48,cs),
(256,109,o),
(264,171,o),
(275,230,c),
(296,229,o),
(318,228,o),
(342,228,cs),
(376,228,o),
(393,252,o),
(393,277,cs),
(393,301,o),
(376,325,o),
(342,325,cs),
(325,325,o),
(310,325,o),
(296,326,c),
(318,410,o),
(346,485,o),
(378,538,cs),
(386,551,o),
(390,556,o),
(404,561,cs),
(438,572,o),
(453,597,o),
(453,620,cs),
(453,649,o),
(432,674,o),
(399,674,cs)
);
}
);
width = 466;
}
);
unicode = 55;
},
{
glyphname = eight;
layers = (
{
hints = (
{
horizontal = 1;
place = (-12,99);
type = Stem;
},
{
horizontal = 1;
place = (597,98);
type = Stem;
},
{
place = (23,107);
type = Stem;
},
{
place = (61,107);
type = Stem;
},
{
place = (278,107);
type = Stem;
},
{
place = (311,107);
type = Stem;
}
);
layerId = "E0442E84-B566-4B90-AE92-7C1FE943EFDC";
shapes = (
{
closed = 1;
nodes = (
(345,421,o),
(385,469,o),
(385,540,cs),
(385,634,o),
(313,695,o),
(224,695,cs),
(134,695,o),
(61,634,o),
(61,539,cs),
(61,474,o),
(99,426,o),
(145,383,c),
(83,333,o),
(23,274,o),
(23,183,cs),
(23,71,o),
(108,-12,o),
(224,-12,cs),
(337,-12,o),
(418,70,o),
(418,182,cs),
(418,269,o),
(358,328,o),
(297,380,c)
);
},
{
closed = 1;
nodes = (
(168,577,o),
(196,597,o),
(223,597,cs),
(251,597,o),
(278,577,o),
(278,538,cs),
(278,503,o),
(254,473,o),
(221,444,c),
(190,473,o),
(168,503,o),
(168,538,cs)
);
},
{
closed = 1;
nodes = (
(173,87,o),
(130,123,o),
(130,183,cs),
(130,241,o),
(171,281,o),
(220,320,c),
(269,278,o),
(311,237,o),
(311,182,cs),
(311,120,o),
(270,87,o),
(222,87,cs)
);
}
);
width = 452;
}
);
unicode = 56;
},
{
glyphname = nine;
layers = (
{
hints = (
{
horizontal = 1;
place = (-11,21);
target = up;
type = BottomGhost;
},
{
horizontal = 1;
place = (247,99);
type = Stem;
},
{
horizontal = 1;
place = (596,98);
type = Stem;
},
{
place = (33,107);
type = Stem;
},
{
place = (336,106);
type = Stem;
}
);
layerId = "E0442E84-B566-4B90-AE92-7C1FE943EFDC";
shapes = (
{
closed = 1;
nodes = (
(118,694,o),
(33,597,o),
(33,461,cs),
(33,335,o),
(109,247,o),
(214,247,cs),
(252,247,o),
(288,262,o),
(318,286,c),
(291,176,o),
(230,116,o),
(141,93,cs),
(109,84,o),
(94,61,o),
(94,38,cs),
(94,13,o),
(113,-11,o),
(144,-11,cs),
(171,-11,o),
(215,5,o),
(241,19,cs),
(368,84,o),
(442,228,o),
(442,431,cs),
(442,603,o),
(368,694,o),
(239,694,cs)
);
},
{
closed = 1;
nodes = (
(177,346,o),
(140,386,o),
(140,461,cs),
(140,545,o),
(178,596,o),
(237,596,cs),
(296,596,o),
(333,547,o),
(336,461,c),
(332,391,o),
(282,346,o),
(227,346,cs)
);
}
);
width = 469;
}
);
unicode = 57;
},
{
glyphname = colon;
layers = (
{
hints = (
{
horizontal = 1;
place = (-20,134);
type = Stem;
},
{
horizontal = 1;
place = (250,134);
type = Stem;
},
{
place = (30,133);
type = Stem;
}
);
layerId = "E0442E84-B566-4B90-AE92-7C1FE943EFDC";
shapes = (
{
closed = 1;
nodes = (
(134,250,o),
(163,280,o),
(163,317,cs),
(163,354,o),
(134,384,o),
(97,384,cs),
(59,384,o),
(30,354,o),
(30,317,cs),
(30,280,o),
(59,250,o),
(97,250,cs)
);
},
{
closed = 1;
nodes = (
(134,-20,o),
(163,10,o),
(163,47,cs),
(163,84,o),
(134,114,o),
(97,114,cs),
(59,114,o),
(30,84,o),
(30,47,cs),
(30,10,o),
(59,-20,o),
(97,-20,cs)
);
}
);
width = 193;
}
);
leftKerningGroup = colon;
unicode = 58;
},
{
glyphname = semicolon;
layers = (
{
hints = (
{
horizontal = 1;
place = (250,134);
type = Stem;
},
{
place = (34,135);
type = Stem;
}
);
layerId = "E0442E84-B566-4B90-AE92-7C1FE943EFDC";
shapes = (
{
closed = 1;
nodes = (
(138,250,o),
(167,280,o),
(167,317,cs),
(167,354,o),
(138,384,o),
(101,384,cs),
(63,384,o),
(34,354,o),
(34,317,cs),
(34,280,o),
(63,250,o),
(101,250,cs)
);
},
{
closed = 1;
nodes = (
(54,-147,o),
(66,-143,o),
(78,-136,cs),
(125,-108,o),
(169,-41,o),
(169,28,cs),
(169,88,o),
(133,112,o),
(98,112,cs),
(66,112,o),
(34,88,o),
(34,49,cs),
(34,14,o),
(60,8,o),
(60,-19,cs),
(60,-49,o),
(28,-73,o),
(13,-94,cs),
(8,-101,o),
(5,-109,o),
(5,-115,cs),
(5,-133,o),
(20,-147,o),
(43,-147,cs)
);
}
);
width = 199;
}
);
leftKerningGroup = colon;
unicode = 59;
},
{
glyphname = less;
layers = (
{
hints = (
{
horizontal = 1;
place = (163,350);
type = Stem;
},
{
place = (51,243);
type = Stem;
}
);
layerId = "E0442E84-B566-4B90-AE92-7C1FE943EFDC";
shapes = (
{
closed = 1;
nodes = (
(207,177,ls),
(219,166,o),
(231,163,o),
(243,163,cs),
(270,163,o),
(294,186,o),
(294,213,cs),
(294,226,o),
(289,240,o),
(275,252,cs),
(197,323,ls),
(192,328,o),
(190,332,o),
(190,337,cs),
(190,342,o),
(192,347,o),
(197,351,cs),
(276,422,ls),
(289,434,o),
(294,448,o),
(294,461,cs),
(294,488,o),
(271,513,o),
(244,513,cs),
(231,513,o),
(219,508,o),
(207,497,cs),
(75,378,ls),
(59,364,o),
(51,350,o),
(51,337,cs),
(51,323,o),
(58,310,o),
(73,297,cs)
);
}
);
width = 332;
}
);
unicode = 60;
},
{
glyphname = equal;
layers = (
{
hints = (
{
horizontal = 1;
place = (212,96);
type = Stem;
},
{
horizontal = 1;
place = (353,95);
type = Stem;
},
{
place = (111,344);
type = Stem;
}
);
layerId = "E0442E84-B566-4B90-AE92-7C1FE943EFDC";
shapes = (
{
closed = 1;
nodes = (
(401,353,l),
(437,353,o),
(455,377,o),
(455,400,cs),
(455,425,o),
(437,448,o),
(401,448,c),
(161,449,l),
(128,449,o),
(111,426,o),
(111,401,cs),
(111,378,o),
(128,354,o),
(161,354,c)
);
},
{
closed = 1;
nodes = (
(401,212,l),
(437,212,o),
(455,236,o),
(455,260,cs),
(455,284,o),
(437,308,o),
(401,308,c),
(161,309,l),
(128,309,o),
(111,285,o),
(111,261,cs),
(111,237,o),
(128,213,o),
(161,213,c)
);
}
);
width = 522;
}
);
unicode = 61;
},
{
glyphname = greater;
layers = (
{
hints = (
{
horizontal = 1;
place = (163,350);
type = Stem;
},
{
place = (51,243);
type = Stem;
}
);
layerId = "E0442E84-B566-4B90-AE92-7C1FE943EFDC";
shapes = (
{
closed = 1;
nodes = (
(272,297,ls),
(287,310,o),
(294,323,o),
(294,337,cs),
(294,350,o),
(286,364,o),
(270,378,cs),
(138,497,l),
(127,508,o),
(114,513,o),
(102,513,cs),
(75,513,o),
(51,488,o),
(51,461,cs),
(51,448,o),
(56,434,o),
(69,422,cs),
(148,351,ls),
(153,346,o),
(156,342,o),
(156,337,cs),
(156,332,o),
(153,327,o),
(148,323,cs),
(70,252,ls),
(56,240,o),
(51,226,o),
(51,213,cs),
(51,186,o),
(75,163,o),
(102,163,cs),
(114,163,o),
(127,166,o),
(138,177,c)
);
}
);
width = 321;
}
);
unicode = 62;
},
{
glyphname = question;
layers = (
{
hints = (
{
horizontal = 1;
place = (-15,133);
type = Stem;
},
{
horizontal = 1;
place = (632,98);
type = Stem;
},
{
place = (36,107);
type = Stem;
},
{
place = (119,134);
type = Stem;
},
{
place = (134,105);
type = Stem;
},
{
place = (289,108);
type = Stem;
}
);
layerId = "E0442E84-B566-4B90-AE92-7C1FE943EFDC";
shapes = (
{
closed = 1;
nodes = (
(213,169,o),
(239,189,o),
(239,229,cs),
(239,307,o),
(271,333,o),
(306,370,cs),
(356,422,o),
(397,468,o),
(397,560,cs),
(397,662,o),
(315,730,o),
(215,730,cs),
(115,730,o),
(36,665,o),
(36,562,cs),
(36,517,o),
(50,473,o),
(96,473,cs),
(122,473,o),
(148,491,o),
(148,523,cs),
(148,529,o),
(143,550,o),
(143,562,cs),
(143,608,o),
(178,632,o),
(215,632,cs),
(252,632,o),
(289,606,o),
(289,554,cs),
(289,513,o),
(270,478,o),
(231,442,cs),
(193,407,o),
(134,356,o),
(134,229,cs),
(134,189,o),
(161,169,o),
(187,169,cs)
);
},
{
closed = 1;
nodes = (
(223,-15,o),
(253,14,o),
(253,52,cs),
(253,89,o),
(223,118,o),
(187,118,cs),
(149,118,o),
(119,89,o),
(119,52,cs),
(119,14,o),
(149,-15,o),
(187,-15,cs)
);
}
);
width = 436;
}
);
unicode = 63;
},
{
glyphname = at;
layers = (
{
hints = (
{
horizontal = 1;
place = (-174,97);
type = Stem;
},
{
horizontal = 1;
place = (-7,95);
type = Stem;
},
{
horizontal = 1;
place = (-3,95);
type = Stem;
},
{
horizontal = 1;
place = (297,94);
type = Stem;
},
{
horizontal = 1;
place = (465,97);
type = Stem;
},
{
place = (30,107);
type = Stem;
},
{
place = (220,107);
type = Stem;
},
{
place = (457,99);
type = Stem;
},
{
place = (644,106);
type = Stem;
}
);
layerId = "E0442E84-B566-4B90-AE92-7C1FE943EFDC";
shapes = (
{
closed = 1;
nodes = (
(198,562,o),
(30,394,o),
(30,148,cs),
(30,-47,o),
(155,-174,o),
(350,-174,cs),
(410,-174,o),
(470,-164,o),
(520,-145,cs),
(545,-135,o),
(555,-117,o),
(555,-98,cs),
(555,-74,o),
(536,-50,o),
(507,-50,cs),
(484,-50,o),
(440,-77,o),
(350,-77,cs),
(212,-77,o),
(137,10,o),
(137,162,cs),
(137,343,o),
(263,465,o),
(446,465,cs),
(572,465,o),
(644,397,o),
(644,279,cs),
(644,174,o),
(607,92,o),
(576,92,cs),
(564,92,o),
(556,100,o),
(556,141,cs),
(556,229,o),
(567,328,o),
(567,340,cs),
(567,374,o),
(541,393,o),
(514,393,cs),
(499,393,o),
(483,387,o),
(473,373,c),
(455,384,o),
(434,391,o),
(411,391,cs),
(300,391,o),
(220,279,o),
(220,156,cs),
(220,61,o),
(272,-7,o),
(359,-7,cs),
(406,-7,o),
(445,17,o),
(474,58,c),
(493,19,o),
(526,-3,o),
(566,-3,cs),
(661,-3,o),
(750,110,o),
(750,279,cs),
(750,449,o),
(629,562,o),
(446,562,cs)
);
},
{
closed = 1;
nodes = (
(341,88,o),
(327,113,o),
(327,157,cs),
(327,224,o),
(366,297,o),
(417,297,cs),
(439,297,o),
(453,287,o),
(459,276,c),
(458,259,o),
(457,241,o),
(457,225,c),
(450,147,o),
(406,88,o),
(365,88,cs)
);
}
);
width = 780;
}
);
unicode = 64;
},
{
glyphname = A;
layers = (
{
anchors = (
{
name = t.uni0302_2;
position = "{646, 707}";
}
);
hints = (
{
horizontal = 1;
place = (-13,97);
type = Stem;
},
{
horizontal = 1;
place = (-10,95);
type = Stem;
},
{
horizontal = 1;
place = (249,96);
type = Stem;
},
{
horizontal = 1;
place = (254,99);
type = Stem;
},
{
horizontal = 1;
place = (614,116);
type = Stem;
},
{
place = (552,111);
type = Stem;
}
);
layerId = "E0442E84-B566-4B90-AE92-7C1FE943EFDC";
shapes = (
{
closed = 1;
nodes = (
(797,179,o),
(742,85,o),
(704,85,cs),
(682,85,o),
(663,104,o),
(663,164,cs),
(663,365,o),
(720,598,o),
(720,666,cs),
(720,707,o),
(697,730,o),
(650,730,cs),
(548,730,o),
(499,639,o),
(384,371,cs),
(380,362,o),
(377,354,o),
(373,346,c),
(343,345,o),
(313,345,o),
(283,345,cs),
(245,345,o),
(225,321,o),
(225,298,cs),
(225,273,o),
(246,249,o),
(289,249,cs),
(326,249,l),
(266,141,o),
(212,84,o),
(172,84,cs),
(134,84,o),
(117,124,o),
(84,124,cs),
(57,124,o),
(35,102,o),
(35,73,cs),
(35,30,o),
(91,-13,o),
(172,-13,cs),
(283,-13,o),
(369,87,o),
(449,254,c),
(485,257,o),
(521,260,o),
(555,264,c),
(553,238,o),
(552,211,o),
(552,185,cs),
(552,51,o),
(611,-10,o),
(693,-10,cs),
(783,-10,o),
(849,68,o),
(907,235,cs),
(910,243,o),
(911,251,o),
(911,258,cs),
(911,285,o),
(892,300,o),
(871,300,cs),
(853,300,o),
(835,289,o),
(827,265,cs)
);
},
{
closed = 1;
nodes = (
(555,506,o),
(595,614,o),
(608,614,cs),
(619,614,o),
(585,504,o),
(565,362,c),
(541,358,o),
(517,355,o),
(491,353,c)
);
}
);
width = 827;
}
);
leftKerningGroup = A2;
rightKerningGroup = A;
unicode = 65;
},
{
glyphname = B;
layers = (
{
hints = (
{
horizontal = 1;
place = (-13,84);
type = Stem;
},
{
horizontal = 1;
place = (-13,95);
type = Stem;
},
{
horizontal = 1;
place = (114,84);
type = Stem;
},
{
horizontal = 1;
place = (650,94);
type = Stem;
},
{
place = (35,91);
type = Stem;
},
{
place = (83,111);
type = Stem;
},
{
place = (271,110);
type = Stem;
},
{
place = (508,111);
type = Stem;
},
{
place = (566,111);
type = Stem;
}
);
layerId = "E0442E84-B566-4B90-AE92-7C1FE943EFDC";
shapes = (
{
closed = 1;
nodes = (
(589,422,o),
(619,474,o),
(619,535,cs),
(619,640,o),
(532,744,o),
(377,744,cs),
(201,744,o),
(83,634,o),
(83,489,cs),
(83,420,o),
(125,340,o),
(177,340,cs),
(206,340,o),
(229,362,o),
(229,391,cs),
(229,418,o),
(194,452,o),
(194,489,cs),
(194,589,o),
(276,650,o),
(374,650,cs),
(460,650,o),
(508,594,o),
(508,529,cs),
(508,479,o),
(477,439,o),
(419,427,cs),
(402,424,o),
(389,416,o),
(381,404,c),
(381,459,o),
(377,506,o),
(370,544,c),
(363,575,o),
(343,595,o),
(317,595,cs),
(286,595,o),
(262,570,o),
(262,537,cs),
(262,515,o),
(271,437,o),
(271,394,cs),
(271,303,o),
(263,229,o),
(247,175,c),
(218,189,o),
(189,198,o),
(161,198,cs),
(79,198,o),
(35,146,o),
(35,93,c),
(36,39,o),
(79,-13,o),
(166,-13,cs),
(221,-13,o),
(265,6,o),
(299,44,c),
(348,14,o),
(404,-13,o),
(461,-13,cs),
(589,-13,o),
(677,93,o),
(677,205,cs),
(677,287,o),
(632,361,o),
(536,392,c)
);
},
{
closed = 1;
nodes = (
(423,82,o),
(384,101,o),
(344,123,c),
(366,180,o),
(378,256,o),
(380,351,c),
(389,337,o),
(404,328,o),
(424,327,cs),
(525,322,o),
(566,270,o),
(566,207,cs),
(566,137,o),
(525,82,o),
(459,82,cs)
);
},
{
closed = 1;
nodes = (
(136,71,o),
(126,79,o),
(126,93,cs),
(126,105,o),
(136,114,o),
(156,114,cs),
(171,114,o),
(189,107,o),
(209,97,c),
(194,80,o),
(176,71,o),
(156,71,cs)
);
}
);
width = 675;
}
);
unicode = 66;
},
{
glyphname = C;
layers = (
{
anchors = (
{
name = t.uni0302_2;
position = "{427, 707}";
},
{
name = b.uni0326_1_2;
position = "{351, 7}";
}
);
hints = (
{
horizontal = 1;
place = (-15,95);
type = Stem;
},
{
horizontal = 1;
place = (635,94);
type = Stem;
},
{
place = (80,111);
type = Stem;
},
{
place = (459,111);
type = Stem;
}
);
layerId = "E0442E84-B566-4B90-AE92-7C1FE943EFDC";
shapes = (
{
closed = 1;
nodes = (
(481,-15,o),
(597,60,o),
(659,235,cs),
(662,243,o),
(663,250,o),
(663,256,cs),
(663,283,o),
(643,300,o),
(622,300,cs),
(605,300,o),
(588,289,o),
(579,265,cs),
(534,139,o),
(451,80,o),
(360,80,cs),
(268,80,o),
(191,150,o),
(191,276,cs),
(191,470,o),
(311,635,o),
(414,635,cs),
(443,635,o),
(459,619,o),
(459,586,cs),
(459,545,o),
(438,522,o),
(438,493,cs),
(438,462,o),
(462,441,o),
(489,441,cs),
(509,441,o),
(531,453,o),
(545,481,cs),
(561,513,o),
(570,552,o),
(570,588,cs),
(570,669,o),
(507,729,o),
(420,729,cs),
(246,729,o),
(80,529,o),
(80,276,cs),
(80,93,o),
(208,-15,o),
(352,-15,cs)
);
}
);
width = 579;
}
);
leftKerningGroup = C;
unicode = 67;
},
{
glyphname = D;
layers = (
{
anchors = (
{
name = t.uni0302_2;
position = "{454, 707}";
}
);
hints = (
{
horizontal = 1;
place = (-14,102);
type = Stem;
},
{
horizontal = 1;
place = (-12,90);
type = Stem;
},
{
horizontal = 1;
place = (121,86);
type = Stem;
},
{
horizontal = 1;
place = (373,95);
type = Stem;
},
{
horizontal = 1;
place = (631,102);
type = Stem;
},
{
place = (70,99);
type = Stem;
},
{
place = (142,111);
type = Stem;
},
{
place = (329,111);
type = Stem;
},
{
place = (691,111);
type = Stem;
}
);
layerId = "E0442E84-B566-4B90-AE92-7C1FE943EFDC";
shapes = (
{
closed = 1;
nodes = (
(265,733,o),
(142,648,o),
(142,523,cs),
(142,431,o),
(212,373,o),
(321,373,cs),
(329,373,l),
(326,302,o),
(316,233,o),
(297,181,c),
(267,196,o),
(235,207,o),
(201,207,cs),
(114,207,o),
(70,151,o),
(70,96,cs),
(70,42,o),
(112,-12,o),
(198,-12,cs),
(255,-12,o),
(301,9,o),
(337,47,c),
(390,16,o),
(450,-14,o),
(516,-14,cs),
(665,-14,o),
(802,122,o),
(802,369,cs),
(802,597,o),
(666,733,o),
(442,733,cs)
);
},
{
closed = 1;
nodes = (
(460,88,o),
(425,105,o),
(389,127,c),
(421,196,o),
(437,287,o),
(440,392,c),
(459,397,o),
(476,404,o),
(492,413,cs),
(515,425,o),
(526,444,o),
(526,460,cs),
(526,483,o),
(507,503,o),
(476,503,cs),
(467,503,o),
(454,499,o),
(440,495,c),
(439,508,o),
(438,521,o),
(436,531,c),
(432,564,o),
(407,582,o),
(381,581,c),
(353,581,o),
(328,559,o),
(328,522,cs),
(328,506,o),
(330,486,o),
(330,468,c),
(321,468,ls),
(277,468,o),
(253,488,o),
(253,524,cs),
(253,588,o),
(324,631,o),
(442,631,cs),
(606,631,o),
(691,543,o),
(691,369,cs),
(691,190,o),
(611,88,o),
(497,88,cs)
);
},
{
closed = 1;
nodes = (
(169,110,o),
(179,121,o),
(198,121,cs),
(213,121,o),
(231,113,o),
(251,102,c),
(236,87,o),
(218,78,o),
(198,78,cs),
(179,78,o),
(169,89,o),
(169,100,cs)
);
}
);
width = 800;
}
);
leftKerningGroup = D2;
rightKerningGroup = D;
unicode = 68;
},
{
glyphname = E;
layers = (
{
anchors = (
{
name = t.uni0302_2;
position = "{333, 707}";
}
);
hints = (
{
horizontal = 1;
place = (-20,95);
type = Stem;
},
{
horizontal = 1;
place = (346,96);
type = Stem;
},
{
horizontal = 1;
place = (640,94);
type = Stem;
},
{
place = (93,111);
type = Stem;
},
{
place = (145,111);
type = Stem;
},
{
place = (406,107);
type = Stem;
}
);
layerId = "E0442E84-B566-4B90-AE92-7C1FE943EFDC";
shapes = (
{
closed = 1;
nodes = (
(497,153,o),
(428,75,o),
(332,75,cs),
(251,75,o),
(204,131,o),
(204,200,c),
(203,277,o),
(260,346,o),
(363,346,cs),
(399,346,o),
(418,369,o),
(418,394,cs),
(418,419,o),
(399,442,o),
(363,442,cs),
(291,442,o),
(256,485,o),
(256,549,cs),
(256,605,o),
(290,640,o),
(339,640,cs),
(378,640,o),
(406,614,o),
(406,574,cs),
(406,559,o),
(404,548,o),
(404,532,cs),
(404,508,o),
(425,489,o),
(454,489,cs),
(483,489,o),
(513,513,o),
(513,577,cs),
(513,679,o),
(430,734,o),
(338,734,cs),
(225,734,o),
(145,660,o),
(145,554,cs),
(145,485,o),
(182,438,o),
(231,403,c),
(150,368,o),
(93,288,o),
(93,199,cs),
(93,70,o),
(184,-20,o),
(325,-20,cs),
(453,-20,o),
(556,63,o),
(616,235,cs),
(619,243,o),
(620,251,o),
(620,258,cs),
(620,286,o),
(601,304,o),
(580,304,cs),
(563,304,o),
(545,292,o),
(536,265,cs)
);
}
);
width = 536;
}
);
leftKerningGroup = E;
rightKerningGroup = A;
unicode = 69;
},
{
glyphname = F;
layers = (
{
hints = (
{
horizontal = 1;
place = (-8,96);
type = Stem;
},
{
horizontal = 1;
place = (317,96);
type = Stem;
},
{
horizontal = 1;
place = (609,100);
type = Stem;
},
{
horizontal = 1;
place = (634,100);
type = Stem;
},
{
place = (67,111);
type = Stem;
},
{
place = (303,110);
type = Stem;
},
{
place = (327,96);
type = Stem;
}
);
layerId = "E0442E84-B566-4B90-AE92-7C1FE943EFDC";
shapes = (
{
closed = 1;
nodes = (
(613,609,o),
(675,638,o),
(675,682,cs),
(675,709,o),
(655,726,o),
(627,726,cs),
(594,726,o),
(574,709,o),
(528,709,cs),
(451,709,o),
(349,734,o),
(262,734,cs),
(141,734,o),
(67,665,o),
(67,570,cs),
(67,484,o),
(139,427,o),
(197,427,cs),
(234,427,o),
(252,445,o),
(252,470,cs),
(252,488,o),
(243,498,o),
(230,507,cs),
(208,522,o),
(178,533,o),
(178,571,cs),
(178,608,o),
(207,634,o),
(264,634,cs),
(282,634,o),
(303,632,o),
(327,629,c),
(321,544,o),
(316,463,o),
(311,403,c),
(280,396,o),
(254,387,o),
(235,375,cs),
(214,362,o),
(204,344,o),
(204,327,cs),
(204,306,o),
(221,289,o),
(251,289,cs),
(266,289,o),
(283,293,o),
(303,299,c),
(289,148,o),
(266,88,o),
(219,88,cs),
(193,88,o),
(173,106,o),
(162,134,cs),
(154,156,o),
(138,167,o),
(119,167,cs),
(95,167,o),
(72,147,o),
(72,106,cs),
(72,48,o),
(131,-8,o),
(217,-8,cs),
(337,-8,o),
(396,89,o),
(410,254,cs),
(412,275,o),
(414,296,o),
(416,317,c),
(427,317,ls),
(450,317,o),
(499,310,o),
(512,310,cs),
(548,310,o),
(568,331,o),
(568,354,cs),
(568,375,o),
(552,395,o),
(520,402,cs),
(488,409,o),
(455,413,o),
(425,413,cs),
(423,413,l),
(429,489,o),
(434,560,o),
(438,616,c),
(472,612,o),
(508,609,o),
(541,609,cs)
);
}
);
width = 568;
}
);
unicode = 70;
},
{
glyphname = G;
layers = (
{
anchors = (
{
name = t.uni0302_2;
position = "{421, 707}";
},
{
name = b.uni0326_1_2;
position = "{345, 7}";
}
);
hints = (
{
horizontal = 1;
place = (-20,95);
type = Stem;
},
{
horizontal = 1;
place = (241,96);
type = Stem;
},
{
horizontal = 1;
place = (415,-20);
target = down;
type = TopGhost;
},
{
horizontal = 1;
place = (635,94);
type = Stem;
},
{
place = (76,111);
type = Stem;
},
{
place = (455,111);
type = Stem;
},
{
place = (465,106);
type = Stem;
}
);
layerId = "E0442E84-B566-4B90-AE92-7C1FE943EFDC";
shapes = (
{
closed = 1;
nodes = (
(579,415,o),
(566,409,o),
(556,398,cs),
(509,348,o),
(477,337,o),
(414,337,cs),
(375,337,o),
(355,318,o),
(355,292,cs),
(355,256,o),
(386,241,o),
(432,241,cs),
(442,241,o),
(452,242,o),
(463,243,c),
(464,235,o),
(465,226,o),
(465,216,cs),
(465,124,o),
(419,75,o),
(341,75,cs),
(251,75,o),
(187,142,o),
(187,275,cs),
(187,463,o),
(298,635,o),
(409,635,cs),
(439,635,o),
(455,619,o),
(455,590,cs),
(455,571,o),
(449,552,o),
(444,535,cs),
(440,522,o),
(436,509,o),
(436,497,cs),
(436,465,o),
(457,445,o),
(487,445,cs),
(509,445,o),
(530,462,o),
(544,490,cs),
(558,517,o),
(566,552,o),
(566,588,cs),
(566,670,o),
(505,729,o),
(417,729,cs),
(239,729,o),
(76,530,o),
(76,266,cs),
(76,94,o),
(187,-20,o),
(339,-20,cs),
(476,-20,o),
(571,76,o),
(571,216,cs),
(571,240,o),
(569,261,o),
(565,281,c),
(590,296,o),
(611,314,o),
(623,333,cs),
(632,346,o),
(637,359,o),
(637,373,cs),
(637,394,o),
(617,415,o),
(592,415,cs)
);
}
);
width = 626;
}
);
leftKerningGroup = C;
rightKerningGroup = G;
unicode = 71;
},
{
glyphname = H;
layers = (
{
anchors = (
{
name = t.uni0302_2;
position = "{469, 700}";
},
{
name = b.uni0326_1_2;
position = "{390, 0}";
}
);
hints = (
{
horizontal = 1;
place = (-7,96);
type = Stem;
},
{
horizontal = 1;
place = (-5,95);
type = Stem;
},
{
horizontal = 1;
place = (346,90);
type = Stem;
},
{
horizontal = 1;
place = (353,91);
type = Stem;
},
{
horizontal = 1;
place = (634,96);
type = Stem;
},
{
place = (78,101);
type = Stem;
},
{
place = (308,111);
type = Stem;
},
{
place = (531,111);
type = Stem;
}
);
layerId = "E0442E84-B566-4B90-AE92-7C1FE943EFDC";
shapes = (
{
closed = 1;
nodes = (
(748,162,o),
(709,90,o),
(677,90,cs),
(657,90,o),
(642,107,o),
(642,168,cs),
(642,214,o),
(646,279,o),
(651,348,c),
(680,346,l),
(716,346,o),
(737,368,o),
(737,390,cs),
(737,410,o),
(721,430,o),
(686,435,c),
(659,438,l),
(670,556,o),
(682,664,o),
(682,680,cs),
(682,712,o),
(657,734,o),
(626,734,cs),
(597,734,o),
(573,714,o),
(571,683,cs),
(565,616,o),
(556,529,o),
(549,444,c),
(502,444,o),
(457,440,o),
(415,434,c),
(418,474,o),
(419,516,o),
(419,559,cs),
(419,666,o),
(376,730,o),
(291,730,cs),
(208,730,o),
(133,666,o),
(133,610,cs),
(133,587,o),
(150,569,o),
(175,569,cs),
(212,569,o),
(237,634,o),
(274,634,cs),
(295,634,o),
(308,621,o),
(308,568,cs),
(308,509,o),
(304,454,o),
(301,404,c),
(164,355,o),
(78,261,o),
(78,133,cs),
(78,50,o),
(129,-7,o),
(205,-7,cs),
(318,-7,o),
(382,138,o),
(407,340,c),
(448,348,o),
(493,352,o),
(541,353,c),
(535,281,o),
(531,218,o),
(531,180,cs),
(531,54,o),
(589,-5,o),
(667,-5,cs),
(751,-5,o),
(805,66,o),
(865,235,cs),
(868,243,o),
(869,251,o),
(869,258,cs),
(869,284,o),
(850,299,o),
(829,299,cs),
(812,299,o),
(793,288,o),
(785,265,cs)
);
},
{
closed = 1;
nodes = (
(193,89,o),
(179,107,o),
(179,148,cs),
(179,217,o),
(220,269,o),
(290,303,c),
(272,166,o),
(241,89,o),
(209,89,cs)
);
}
);
width = 785;
}
);
leftKerningGroup = H;
rightKerningGroup = A;
unicode = 72;
},
{
glyphname = I;
layers = (
{
anchors = (
{
name = t.uni0302_2;
position = "{286, 714}";
},
{
name = b.uni0326_1_2;
position = "{226, 0}";
}
);
hints = (
{
horizontal = 1;
place = (-1,95);
type = Stem;
},
{
horizontal = 1;
place = (646,95);
type = Stem;
},
{
place = (72,109);
type = Stem;
},
{
place = (325,111);
type = Stem;
}
);
layerId = "E0442E84-B566-4B90-AE92-7C1FE943EFDC";
shapes = (
{
closed = 1;
nodes = (
(325,625,o),
(325,607,o),
(325,589,cs),
(325,244,o),
(288,94,o),
(223,94,cs),
(187,94,o),
(177,125,o),
(142,125,cs),
(117,125,o),
(98,107,o),
(98,77,cs),
(98,37,o),
(145,-1,o),
(226,-1,cs),
(372,-1,o),
(436,150,o),
(436,572,cs),
(436,607,o),
(435,645,o),
(434,686,cs),
(433,713,o),
(416,729,o),
(387,733,cs),
(351,739,o),
(308,741,o),
(264,741,cs),
(148,741,o),
(72,674,o),
(72,585,cs),
(72,509,o),
(139,443,o),
(203,443,cs),
(233,443,o),
(252,461,o),
(252,488,cs),
(252,506,o),
(241,518,o),
(227,528,cs),
(204,545,o),
(181,559,o),
(181,586,cs),
(181,621,o),
(210,646,o),
(266,646,cs),
(286,646,o),
(307,645,o),
(325,643,c)
);
}
);
width = 451;
}
);
leftKerningGroup = I2;
rightKerningGroup = I;
unicode = 73;
},
{
glyphname = J;
layers = (
{
anchors = (
{
name = t.uni0302_2;
position = "{382, 714}";
},
{
name = b.uni0326_1_2;
position = "{286, 0}";
}
);
hints = (
{
horizontal = 1;
place = (-13,95);
type = Stem;
},
{
horizontal = 1;
place = (600,95);
type = Stem;
},
{
horizontal = 1;
place = (641,96);
type = Stem;
},
{
place = (87,110);
type = Stem;
},
{
place = (137,106);
type = Stem;
},
{
place = (389,111);
type = Stem;
}
);
layerId = "E0442E84-B566-4B90-AE92-7C1FE943EFDC";
shapes = (
{
closed = 1;
nodes = (
(531,699,o),
(519,695,o),
(503,695,cs),
(459,695,o),
(375,737,o),
(315,737,cs),
(213,737,o),
(137,665,o),
(137,587,cs),
(137,538,o),
(166,514,o),
(196,514,cs),
(221,514,o),
(243,532,o),
(243,569,cs),
(243,611,o),
(270,641,o),
(324,641,cs),
(347,641,o),
(366,637,o),
(385,631,c),
(388,599,o),
(389,555,o),
(389,504,cs),
(389,186,o),
(342,82,o),
(272,82,cs),
(229,82,o),
(197,122,o),
(197,192,cs),
(197,228,o),
(204,272,o),
(204,294,cs),
(204,331,o),
(183,352,o),
(156,352,cs),
(124,352,o),
(103,327,o),
(95,289,cs),
(89,256,o),
(87,223,o),
(87,191,cs),
(87,66,o),
(162,-13,o),
(269,-13,cs),
(423,-13,o),
(500,109,o),
(500,504,cs),
(500,528,o),
(500,564,o),
(498,600,c),
(501,600,ls),
(555,600,o),
(588,622,o),
(588,654,cs),
(588,679,o),
(570,699,o),
(544,699,cs)
);
}
);
width = 570;
}
);
leftKerningGroup = J2;
rightKerningGroup = J;
unicode = 74;
},
{
glyphname = K;
layers = (
{
anchors = (
{
name = t.uni0302_2;
position = "{427, 708}";
},
{
name = b.uni0326_1_2;
position = "{391, 7}";
}
);
hints = (
{
horizontal = 1;
place = (-8,96);
type = Stem;
},
{
horizontal = 1;
place = (-15,21);
target = up;
type = BottomGhost;
},
{
horizontal = 1;
place = (635,96);
type = Stem;
},
{
place = (256,111);
type = Stem;
}
);
layerId = "E0442E84-B566-4B90-AE92-7C1FE943EFDC";
shapes = (
{
closed = 1;
nodes = (
(678,172,o),
(634,88,o),
(605,88,cs),
(581,88,o),
(567,120,o),
(546,214,cs),
(533,273,o),
(517,326,o),
(475,364,c),
(583,429,o),
(640,542,o),
(659,626,c),
(663,640,o),
(664,653,o),
(666,665,c),
(666,669,o),
(667,672,o),
(667,676,cs),
(667,710,o),
(645,732,o),
(616,732,cs),
(587,732,o),
(562,710,o),
(555,674,cs),
(531,545,o),
(449,434,o),
(356,410,c),
(363,469,o),
(367,526,o),
(367,579,cs),
(367,673,o),
(310,731,o),
(223,731,cs),
(142,731,o),
(57,653,o),
(57,604,cs),
(57,579,o),
(76,560,o),
(100,560,cs),
(145,560,o),
(171,635,o),
(221,635,cs),
(241,635,o),
(256,620,o),
(256,593,cs),
(256,530,o),
(251,468,o),
(244,410,c),
(208,407,o),
(189,386,o),
(189,365,cs),
(189,347,o),
(203,328,o),
(231,318,c),
(206,172,o),
(172,65,o),
(172,40,cs),
(172,8,o),
(197,-15,o),
(231,-15,cs),
(255,-15,o),
(274,0,o),
(280,24,cs),
(304,116,o),
(326,217,o),
(342,316,c),
(352,317,o),
(361,319,o),
(369,321,c),
(403,315,o),
(418,276,o),
(437,193,cs),
(461,90,o),
(488,-8,o),
(602,-8,cs),
(678,-8,o),
(736,67,o),
(793,235,cs),
(796,243,o),
(797,251,o),
(797,258,cs),
(797,284,o),
(778,300,o),
(757,300,cs),
(740,300,o),
(722,289,o),
(713,265,cs)
);
}
);
width = 713;
}
);
leftKerningGroup = K;
rightKerningGroup = A;
unicode = 75;
},
{
glyphname = L;
layers = (
{
anchors = (
{
name = t.uni0302_2;
position = "{396, 707}";
},
{
name = b.uni0326_1_2;
position = "{323, 7}";
}
);
hints = (
{
horizontal = 1;
place = (-6,96);
type = Stem;
},
{
horizontal = 1;
place = (-10,21);
target = up;
type = BottomGhost;
},
{
horizontal = 1;
place = (26,95);
type = Stem;
},
{
horizontal = 1;
place = (635,94);
type = Stem;
},
{
place = (410,100);
type = Stem;
}
);
layerId = "E0442E84-B566-4B90-AE92-7C1FE943EFDC";
shapes = (
{
closed = 1;
nodes = (
(514,157,o),
(477,90,o),
(430,90,cs),
(374,90,o),
(322,121,o),
(267,121,cs),
(250,121,o),
(231,119,o),
(215,116,c),
(267,180,o),
(294,288,o),
(313,450,c),
(427,452,o),
(510,525,o),
(510,620,cs),
(510,681,o),
(462,729,o),
(394,729,cs),
(310,729,o),
(252,674,o),
(222,567,c),
(195,586,o),
(177,615,o),
(168,653,c),
(162,683,o),
(141,697,o),
(119,697,cs),
(94,697,o),
(71,678,o),
(71,644,cs),
(71,571,o),
(123,502,o),
(204,469,c),
(182,248,o),
(155,169,o),
(67,93,cs),
(53,81,o),
(44,63,o),
(44,45,cs),
(44,16,o),
(69,-10,o),
(101,-10,cs),
(110,-10,o),
(120,-7,o),
(132,-1,cs),
(177,19,o),
(207,26,o),
(247,26,cs),
(291,26,o),
(377,-6,o),
(439,-6,cs),
(521,-6,o),
(575,63,o),
(634,235,cs),
(637,244,o),
(638,252,o),
(638,259,cs),
(638,286,o),
(620,302,o),
(599,302,cs),
(581,302,o),
(563,290,o),
(554,265,cs)
);
},
{
closed = 1;
nodes = (
(401,635,o),
(410,626,o),
(410,612,cs),
(410,586,o),
(382,550,o),
(327,543,c),
(340,602,o),
(360,635,o),
(386,635,cs)
);
}
);
width = 554;
}
);
leftKerningGroup = L;
rightKerningGroup = A;
unicode = 76;
},
{
glyphname = M;
layers = (
{
hints = (
{
horizontal = 1;
place = (-8,95);
type = Stem;
},
{
horizontal = 1;
place = (-14,21);
target = up;
type = BottomGhost;
},
{
horizontal = 1;
place = (527,95);
type = Stem;
},
{
horizontal = 1;
place = (638,95);
type = Stem;
},
{
horizontal = 1;
place = (647,95);
type = Stem;
},
{
place = (237,94);
type = Stem;
},
{
place = (624,110);
type = Stem;
},
{
place = (945,109);
type = Stem;
},
{
place = (960,112);
type = Stem;
}
);
layerId = "E0442E84-B566-4B90-AE92-7C1FE943EFDC";
shapes = (
{
closed = 1;
nodes = (
(1158,175,o),
(1114,87,o),
(1080,87,cs),
(1064,87,o),
(1054,98,o),
(1054,128,cs),
(1054,165,o),
(1072,377,o),
(1072,443,cs),
(1072,556,o),
(1012,622,o),
(924,622,cs),
(847,622,o),
(784,575,o),
(734,492,c),
(731,664,o),
(675,733,o),
(563,733,cs),
(462,733,o),
(385,643,o),
(331,490,c),
(315,674,o),
(259,742,o),
(159,742,cs),
(105,742,o),
(63,717,o),
(31,672,c),
(20,655,o),
(15,639,o),
(15,623,cs),
(15,595,o),
(34,577,o),
(58,577,cs),
(76,577,o),
(93,588,o),
(106,607,c),
(125,638,o),
(137,647,o),
(154,647,cs),
(203,647,o),
(237,562,o),
(237,310,cs),
(237,214,o),
(215,95,o),
(215,45,cs),
(215,9,o),
(238,-14,o),
(268,-14,cs),
(296,-14,o),
(320,6,o),
(325,40,cs),
(328,64,o),
(334,119,o),
(339,179,c),
(370,444,o),
(467,638,o),
(561,638,cs),
(598,638,o),
(624,609,o),
(624,490,cs),
(624,386,o),
(598,224,o),
(583,117,c),
(582,105,o),
(580,98,o),
(580,93,cs),
(580,61,o),
(604,37,o),
(633,37,cs),
(659,37,o),
(683,56,o),
(689,87,cs),
(697,128,o),
(705,170,o),
(711,213,c),
(754,416,o),
(835,527,o),
(907,527,cs),
(940,527,o),
(960,504,o),
(960,439,cs),
(960,370,o),
(945,204,o),
(945,149,cs),
(945,41,o),
(993,-8,o),
(1069,-8,cs),
(1156,-8,o),
(1211,64,o),
(1269,235,cs),
(1272,244,o),
(1273,252,o),
(1273,259,cs),
(1273,287,o),
(1255,304,o),
(1234,304,cs),
(1216,304,o),
(1198,292,o),
(1189,265,cs)
);
}
);
width = 1189;
}
);
leftKerningGroup = M;
rightKerningGroup = A;
unicode = 77;
},
{
glyphname = N;
layers = (
{
anchors = (
{
name = t.uni0302_2;
position = "{556, 707}";
},
{
name = b.uni0326_1_2;
position = "{491, 7}";
}
);
hints = (
{
horizontal = 1;
place = (-8,96);
type = Stem;
},
{
horizontal = 1;
place = (-15,21);
target = up;
type = BottomGhost;
},
{
horizontal = 1;
place = (635,94);
type = Stem;
},
{
horizontal = 1;
place = (646,95);
type = Stem;
},
{
place = (609,111);
type = Stem;
},
{
place = (625,111);
type = Stem;
}
);
layerId = "E0442E84-B566-4B90-AE92-7C1FE943EFDC";
shapes = (
{
closed = 1;
nodes = (
(822,181,o),
(778,88,o),
(745,88,cs),
(730,88,o),
(720,101,o),
(720,136,cs),
(720,202,o),
(736,412,o),
(736,491,cs),
(736,657,o),
(676,729,o),
(564,729,cs),
(464,729,o),
(394,646,o),
(340,505,c),
(322,664,o),
(266,741,o),
(163,741,cs),
(110,741,o),
(66,716,o),
(31,666,cs),
(21,651,o),
(15,636,o),
(15,622,cs),
(15,595,o),
(34,579,o),
(56,579,cs),
(72,579,o),
(87,587,o),
(99,604,cs),
(124,637,o),
(137,646,o),
(155,646,cs),
(205,646,o),
(238,566,o),
(238,321,cs),
(238,236,o),
(223,106,o),
(214,55,cs),
(213,51,o),
(213,46,o),
(213,42,cs),
(213,9,o),
(237,-15,o),
(267,-15,cs),
(297,-15,o),
(321,7,o),
(326,44,cs),
(331,82,o),
(337,137,o),
(343,198,cs),
(366,434,o),
(472,635,o),
(560,635,cs),
(606,635,o),
(625,604,o),
(625,509,cs),
(625,432,o),
(609,200,o),
(609,157,cs),
(609,44,o),
(661,-8,o),
(736,-8,cs),
(819,-8,o),
(875,72,o),
(931,235,cs),
(934,243,o),
(935,251,o),
(935,258,cs),
(935,285,o),
(916,302,o),
(895,302,cs),
(878,302,o),
(860,291,o),
(851,265,cs)
);
}
);
width = 851;
}
);
leftKerningGroup = M;
rightKerningGroup = A;
unicode = 78;
},
{
glyphname = O;
layers = (
{
anchors = (
{
name = t.uni0302_2;
position = "{472, 707}";
}
);
hints = (
{
horizontal = 1;
place = (-17,96);
type = Stem;
},
{
horizontal = 1;
place = (72,87);
type = Stem;
},
{
horizontal = 1;
place = (636,94);
type = Stem;
},
{
place = (95,111);
type = Stem;
},
{
place = (262,98);
type = Stem;
},
{
place = (572,111);
type = Stem;
}
);
layerId = "E0442E84-B566-4B90-AE92-7C1FE943EFDC";
shapes = (
{
closed = 1;
nodes = (
(726,203,o),
(682,166,o),
(626,159,c),
(662,230,o),
(683,321,o),
(683,427,cs),
(683,617,o),
(593,730,o),
(470,730,cs),
(433,730,o),
(397,715,o),
(364,688,c),
(356,700,o),
(343,708,o),
(327,708,cs),
(315,708,o),
(302,706,o),
(288,701,cs),
(180,661,o),
(95,490,o),
(95,319,cs),
(95,112,o),
(210,-17,o),
(376,-17,cs),
(449,-17,o),
(516,15,o),
(569,74,c),
(579,73,o),
(589,72,o),
(599,72,cs),
(702,72,o),
(790,124,o),
(829,235,cs),
(832,243,o),
(833,251,o),
(833,258,cs),
(833,285,o),
(814,300,o),
(793,300,cs),
(776,300,o),
(758,289,o),
(749,265,cs)
);
},
{
closed = 1;
nodes = (
(524,636,o),
(572,566,o),
(572,430,cs),
(572,320,o),
(551,235,o),
(518,176,c),
(434,214,o),
(360,308,o),
(360,436,cs),
(360,565,o),
(411,636,o),
(464,636,cs)
);
},
{
closed = 1;
nodes = (
(274,79,o),
(206,162,o),
(206,317,cs),
(206,422,o),
(237,527,o),
(289,580,c),
(272,538,o),
(262,488,o),
(262,433,cs),
(262,269,o),
(350,157,o),
(457,105,c),
(433,88,o),
(405,79,o),
(377,79,cs)
);
}
);
width = 749;
}
);
leftKerningGroup = O;
rightKerningGroup = A;
unicode = 79;
},
{
glyphname = P;
layers = (
{
hints = (
{
horizontal = 1;
place = (-17,21);
target = up;
type = BottomGhost;
},
{
horizontal = 1;
place = (190,94);
type = Stem;
},
{
horizontal = 1;
place = (635,94);
type = Stem;
},
{
place = (27,106);
type = Stem;
},
{
place = (153,111);
type = Stem;
},
{
place = (197,111);
type = Stem;
},
{
place = (520,111);
type = Stem;
}
);
layerId = "E0442E84-B566-4B90-AE92-7C1FE943EFDC";
shapes = (
{
closed = 1;
nodes = (
(145,729,o),
(27,611,o),
(27,469,cs),
(27,423,o),
(53,400,o),
(80,400,cs),
(107,400,o),
(133,423,o),
(133,469,cs),
(133,564,o),
(205,635,o),
(336,635,cs),
(450,635,o),
(520,567,o),
(520,458,cs),
(520,353,o),
(455,284,o),
(362,284,cs),
(342,284,o),
(320,287,o),
(301,292,c),
(305,329,o),
(308,367,o),
(308,408,cs),
(308,476,o),
(294,552,o),
(235,552,cs),
(209,552,o),
(185,533,o),
(185,497,cs),
(185,481,o),
(197,440,o),
(197,408,cs),
(197,264,o),
(153,137,o),
(153,40,cs),
(153,5,o),
(177,-17,o),
(207,-17,cs),
(239,-17,o),
(264,6,o),
(264,41,cs),
(264,82,o),
(276,137,o),
(287,203,c),
(314,195,o),
(344,190,o),
(375,190,cs),
(519,190,o),
(631,301,o),
(631,458,cs),
(631,617,o),
(513,729,o),
(336,729,cs)
);
}
);
width = 624;
}
);
leftKerningGroup = P;
unicode = 80;
},
{
glyphname = Q;
layers = (
{
hints = (
{
horizontal = 1;
place = (-21,95);
type = Stem;
},
{
horizontal = 1;
place = (-19,87);
type = Stem;
},
{
horizontal = 1;
place = (137,85);
type = Stem;
},
{
horizontal = 1;
place = (638,94);
type = Stem;
},
{
place = (113,110);
type = Stem;
},
{
place = (168,92);
type = Stem;
},
{
place = (551,111);
type = Stem;
}
);
layerId = "E0442E84-B566-4B90-AE92-7C1FE943EFDC";
shapes = (
{
closed = 1;
nodes = (
(714,165,o),
(653,74,o),
(612,74,cs),
(592,74,o),
(568,87,o),
(542,106,c),
(613,187,o),
(662,302,o),
(662,433,cs),
(662,624,o),
(553,732,o),
(404,732,cs),
(228,732,o),
(113,596,o),
(113,412,cs),
(113,361,o),
(120,316,o),
(134,277,cs),
(142,253,o),
(163,238,o),
(185,238,cs),
(214,238,o),
(238,262,o),
(238,294,cs),
(238,309,o),
(223,359,o),
(223,403,cs),
(223,544,o),
(296,638,o),
(399,638,cs),
(488,638,o),
(551,568,o),
(551,438,cs),
(551,334,o),
(514,234,o),
(461,164,c),
(415,195,o),
(362,222,o),
(305,222,cs),
(214,222,o),
(168,161,o),
(168,101,cs),
(168,41,o),
(213,-19,o),
(309,-19,cs),
(362,-19,o),
(419,3,o),
(471,41,c),
(515,7,o),
(562,-21,o),
(611,-21,cs),
(705,-21,o),
(785,104,o),
(829,235,cs),
(832,244,o),
(833,252,o),
(833,259,cs),
(833,287,o),
(815,303,o),
(794,303,cs),
(777,303,o),
(758,291,o),
(749,265,cs)
);
},
{
closed = 1;
nodes = (
(260,120,o),
(276,137,o),
(308,137,cs),
(335,137,o),
(365,120,o),
(396,98,c),
(368,79,o),
(339,68,o),
(310,68,cs),
(277,68,o),
(260,85,o),
(260,103,cs)
);
}
);
width = 749;
}
);
leftKerningGroup = Q;
rightKerningGroup = A;
unicode = 81;
},
{
glyphname = R;
layers = (
{
anchors = (
{
name = t.uni0302_2;
position = "{351, 707}";
},
{
name = b.uni0326_1_2;
position = "{361, 7}";
}
);
hints = (
{
horizontal = 1;
place = (-7,95);
type = Stem;
},
{
horizontal = 1;
place = (-13,21);
target = up;
type = BottomGhost;
},
{
horizontal = 1;
place = (285,89);
type = Stem;
},
{
horizontal = 1;
place = (639,94);
type = Stem;
},
{
place = (33,111);
type = Stem;
},
{
place = (151,110);
type = Stem;
},
{
place = (196,109);
type = Stem;
},
{
place = (491,111);
type = Stem;
}
);
layerId = "E0442E84-B566-4B90-AE92-7C1FE943EFDC";
shapes = (
{
closed = 1;
nodes = (
(641,172,o),
(600,88,o),
(574,88,cs),
(552,88,o),
(530,128,o),
(497,204,c),
(476,249,o),
(460,281,o),
(441,299,c),
(545,332,o),
(602,419,o),
(602,508,cs),
(602,628,o),
(509,733,o),
(332,733,cs),
(160,733,o),
(33,621,o),
(33,481,cs),
(33,437,o),
(58,410,o),
(89,410,cs),
(120,410,o),
(144,437,o),
(144,481,cs),
(144,575,o),
(225,639,o),
(332,639,cs),
(437,639,o),
(491,576,o),
(491,502,cs),
(491,435,o),
(440,374,o),
(344,374,cs),
(332,374,o),
(318,374,o),
(303,375,c),
(304,392,o),
(305,409,o),
(305,428,cs),
(305,501,o),
(294,560,o),
(239,560,cs),
(211,560,o),
(187,535,o),
(187,502,cs),
(187,488,o),
(196,451,o),
(196,428,cs),
(196,411,o),
(196,394,o),
(195,378,c),
(173,372,o),
(162,355,o),
(162,338,cs),
(162,322,o),
(170,307,o),
(187,298,c),
(181,255,o),
(173,216,o),
(166,179,cs),
(157,133,o),
(148,76,o),
(151,35,cs),
(153,5,o),
(176,-13,o),
(209,-13,cs),
(241,-13,o),
(261,9,o),
(261,44,cs),
(261,88,o),
(269,136,o),
(278,189,cs),
(283,219,o),
(289,251,o),
(294,285,c),
(329,285,l),
(351,276,o),
(364,231,o),
(392,167,cs),
(433,72,o),
(477,-7,o),
(565,-7,cs),
(649,-7,o),
(694,66,o),
(754,235,cs),
(757,244,o),
(758,251,o),
(758,259,cs),
(758,285,o),
(740,301,o),
(719,301,cs),
(701,301,o),
(683,290,o),
(674,265,cs)
);
}
);
width = 674;
}
);
leftKerningGroup = R;
rightKerningGroup = A;
unicode = 82;
},
{
glyphname = S;
layers = (
{
anchors = (
{
name = t.uni0302_2;
position = "{300, 707}";
},
{
name = b.uni0326_1_2;
position = "{278, 7}";
}
);
hints = (
{
horizontal = 1;
place = (-22,95);
type = Stem;
},
{
horizontal = 1;
place = (636,94);
type = Stem;
},
{
place = (42,111);
type = Stem;
},
{
place = (117,111);
type = Stem;
},
{
place = (364,106);
type = Stem;
},
{
place = (397,111);
type = Stem;
}
);
layerId = "E0442E84-B566-4B90-AE92-7C1FE943EFDC";
shapes = (
{
closed = 1;
nodes = (
(406,-22,o),
(508,73,o),
(508,196,cs),
(508,311,o),
(421,372,o),
(346,427,cs),
(282,473,o),
(228,516,o),
(228,569,cs),
(228,609,o),
(257,636,o),
(298,636,cs),
(338,636,o),
(364,612,o),
(364,577,cs),
(364,565,o),
(362,556,o),
(362,545,cs),
(362,518,o),
(385,496,o),
(413,496,cs),
(451,496,o),
(470,534,o),
(470,579,cs),
(470,669,o),
(393,730,o),
(295,730,cs),
(192,730,o),
(117,654,o),
(117,564,cs),
(117,466,o),
(198,396,o),
(278,339,cs),
(343,293,o),
(397,255,o),
(397,194,cs),
(397,121,o),
(346,73,o),
(272,73,cs),
(200,73,o),
(153,116,o),
(153,179,cs),
(153,222,o),
(170,248,o),
(170,277,cs),
(170,308,o),
(148,330,o),
(119,330,cs),
(95,330,o),
(73,313,o),
(62,285,cs),
(48,250,o),
(42,214,o),
(42,183,cs),
(42,63,o),
(137,-22,o),
(271,-22,cs)
);
}
);
width = 484;
}
);
leftKerningGroup = S2;
rightKerningGroup = S;
unicode = 83;
},
{
glyphname = T;
layers = (
{
anchors = (
{
name = t.uni0302_2;
position = "{420, 703}";
},
{
name = b.uni0326_1_2;
position = "{259, 7}";
}
);
hints = (
{
horizontal = 1;
place = (-6,97);
type = Stem;
},
{
horizontal = 1;
place = (593,96);
type = Stem;
},
{
horizontal = 1;
place = (634,97);
type = Stem;
},
{
horizontal = 1;
place = (762,-20);
target = down;
type = TopGhost;
},
{
place = (71,108);
type = Stem;
},
{
place = (340,110);
type = Stem;
}
);
layerId = "E0442E84-B566-4B90-AE92-7C1FE943EFDC";
shapes = (
{
closed = 1;
nodes = (
(605,762,o),
(623,689,o),
(534,689,cs),
(452,689,o),
(347,731,o),
(250,731,cs),
(141,731,o),
(71,670,o),
(71,578,cs),
(71,522,o),
(105,467,o),
(155,438,cs),
(171,429,o),
(185,425,o),
(199,425,cs),
(230,425,o),
(253,446,o),
(253,471,cs),
(253,487,o),
(245,503,o),
(225,516,c),
(200,534,o),
(179,550,o),
(179,580,cs),
(179,609,o),
(205,634,o),
(250,634,cs),
(274,634,o),
(305,629,o),
(340,623,c),
(334,523,o),
(321,352,o),
(318,307,cs),
(306,147,o),
(283,91,o),
(239,91,cs),
(210,91,o),
(194,113,o),
(179,136,cs),
(164,159,o),
(145,169,o),
(128,169,cs),
(102,169,o),
(79,147,o),
(79,116,cs),
(79,104,o),
(82,91,o),
(89,77,cs),
(113,30,o),
(164,-6,o),
(232,-6,cs),
(353,-6,o),
(410,85,o),
(427,280,cs),
(433,350,o),
(442,475,o),
(450,603,c),
(487,597,o),
(524,593,o),
(558,593,cs),
(643,593,o),
(705,650,o),
(705,713,cs),
(705,743,o),
(684,762,o),
(658,762,cs)
);
}
);
width = 625;
}
);
leftKerningGroup = T2;
rightKerningGroup = T;
unicode = 84;
},
{
glyphname = U;
layers = (
{
anchors = (
{
name = t.uni0302_2;
position = "{418, 707}";
}
);
hints = (
{
horizontal = 1;
place = (-9,96);
type = Stem;
},
{
horizontal = 1;
place = (-7,95);
type = Stem;
},
{
horizontal = 1;
place = (637,93);
type = Stem;
},
{
place = (145,111);
type = Stem;
},
{
place = (210,110);
type = Stem;
},
{
place = (524,100);
type = Stem;
}
);
layerId = "E0442E84-B566-4B90-AE92-7C1FE943EFDC";
shapes = (
{
closed = 1;
nodes = (
(758,168,o),
(719,88,o),
(676,88,cs),
(648,88,o),
(624,122,o),
(624,240,cs),
(624,328,o),
(629,427,o),
(646,551,cs),
(649,574,o),
(651,583,o),
(651,590,cs),
(651,625,o),
(628,651,o),
(596,651,cs),
(568,651,o),
(545,629,o),
(540,594,c),
(540,592,o),
(539,590,o),
(539,588,c),
(498,310,o),
(395,87,o),
(304,87,cs),
(274,87,o),
(256,104,o),
(256,145,cs),
(256,238,o),
(320,526,o),
(320,601,cs),
(320,681,o),
(268,730,o),
(197,730,cs),
(138,730,o),
(90,698,o),
(63,646,cs),
(51,624,o),
(49,612,o),
(49,598,cs),
(49,573,o),
(69,558,o),
(92,558,cs),
(108,558,o),
(123,566,o),
(133,584,cs),
(156,626,o),
(170,637,o),
(185,637,cs),
(201,637,o),
(210,627,o),
(210,602,cs),
(210,551,o),
(145,247,o),
(145,154,cs),
(145,52,o),
(204,-9,o),
(295,-9,cs),
(395,-9,o),
(470,80,o),
(524,226,c),
(524,218,ls),
(524,56,o),
(586,-7,o),
(669,-7,cs),
(754,-7,o),
(818,72,o),
(874,235,cs),
(877,243,o),
(878,251,o),
(878,258,cs),
(878,285,o),
(859,301,o),
(839,301,cs),
(821,301,o),
(803,290,o),
(794,265,cs)
);
}
);
width = 794;
}
);
leftKerningGroup = U;
rightKerningGroup = A;
unicode = 85;
},
{
glyphname = V;
layers = (
{
hints = (
{
horizontal = 1;
place = (-9,21);
target = up;
type = BottomGhost;
},
{
horizontal = 1;
place = (638,96);
type = Stem;
},
{
place = (27,699);
type = Stem;
}
);
layerId = "E0442E84-B566-4B90-AE92-7C1FE943EFDC";
shapes = (
{
closed = 1;
nodes = (
(657,732,o),
(640,726,o),
(626,713,cs),
(496,599,o),
(423,424,o),
(363,193,c),
(359,272,o),
(354,385,o),
(335,568,cs),
(324,675,o),
(267,734,o),
(180,734,cs),
(117,734,o),
(66,703,o),
(41,662,cs),
(31,646,o),
(27,630,o),
(27,616,cs),
(27,589,o),
(44,571,o),
(67,571,cs),
(82,571,o),
(98,578,o),
(113,596,c),
(134,624,o),
(152,638,o),
(175,638,cs),
(201,638,o),
(218,617,o),
(223,565,cs),
(247,330,o),
(258,177,o),
(290,50,c),
(300,6,o),
(324,-9,o),
(356,-9,cs),
(381,-9,o),
(404,9,o),
(411,35,cs),
(478,268,o),
(556,501,o),
(700,631,cs),
(717,646,o),
(726,664,o),
(726,680,cs),
(726,709,o),
(702,732,o),
(672,732,cs)
);
}
);
width = 628;
}
);
unicode = 86;
},
{
glyphname = W;
layers = (
{
anchors = (
{
name = t.uni0302_2;
position = "{600, 707}";
}
);
hints = (
{
horizontal = 1;
place = (-9,96);
type = Stem;
},
{
horizontal = 1;
place = (633,95);
type = Stem;
},
{
place = (166,111);
type = Stem;
},
{
place = (213,111);
type = Stem;
},
{
place = (861,111);
type = Stem;
}
);
layerId = "E0442E84-B566-4B90-AE92-7C1FE943EFDC";
shapes = (
{
closed = 1;
nodes = (
(910,720,o),
(891,733,o),
(870,733,cs),
(841,733,o),
(816,711,o),
(816,680,cs),
(816,668,o),
(820,655,o),
(826,642,c),
(847,604,o),
(861,535,o),
(861,464,cs),
(861,238,o),
(784,87,o),
(710,87,cs),
(656,87,o),
(625,179,o),
(625,325,cs),
(625,405,o),
(639,482,o),
(641,502,c),
(644,521,o),
(646,533,o),
(646,538,cs),
(646,571,o),
(622,595,o),
(591,595,cs),
(564,595,o),
(540,574,o),
(535,540,cs),
(490,266,o),
(409,87,o),
(329,87,cs),
(299,87,o),
(277,108,o),
(277,168,cs),
(277,277,o),
(324,524,o),
(324,594,cs),
(324,675,o),
(274,728,o),
(199,728,cs),
(142,728,o),
(96,699,o),
(70,662,cs),
(58,644,o),
(53,627,o),
(53,613,cs),
(53,587,o),
(73,569,o),
(94,569,cs),
(108,569,o),
(123,576,o),
(134,592,cs),
(157,623,o),
(173,633,o),
(188,633,cs),
(203,633,o),
(213,622,o),
(213,599,cs),
(213,548,o),
(166,278,o),
(166,184,cs),
(166,57,o),
(232,-9,o),
(328,-9,cs),
(417,-9,o),
(482,54,o),
(533,171,c),
(558,48,o),
(617,-9,o),
(707,-9,cs),
(852,-9,o),
(972,164,o),
(972,452,cs),
(972,543,o),
(953,633,o),
(922,697,c)
);
}
);
width = 968;
}
);
leftKerningGroup = W2;
rightKerningGroup = W;
unicode = 87;
},
{
glyphname = X;
layers = (
{
hints = (
{
horizontal = 1;
place = (-7,102);
type = Stem;
},
{
place = (43,604);
type = Stem;
}
);
layerId = "E0442E84-B566-4B90-AE92-7C1FE943EFDC";
shapes = (
{
closed = 1;
nodes = (
(583,728,o),
(570,723,o),
(556,713,cs),
(500,676,o),
(427,566,o),
(367,445,c),
(341,526,o),
(324,607,o),
(320,682,cs),
(318,712,o),
(295,733,o),
(263,733,cs),
(232,733,o),
(209,709,o),
(209,677,cs),
(209,668,o),
(210,652,o),
(213,629,cs),
(224,532,o),
(253,417,o),
(303,301,c),
(230,136,o),
(199,95,o),
(170,95,cs),
(151,95,o),
(141,106,o),
(129,116,cs),
(115,128,o),
(102,134,o),
(89,134,cs),
(63,134,o),
(43,110,o),
(43,81,cs),
(43,63,o),
(51,44,o),
(70,28,cs),
(93,8,o),
(126,-7,o),
(163,-7,cs),
(263,-7,o),
(315,70,o),
(364,178,c),
(406,105,o),
(458,34,o),
(519,-31,cs),
(531,-43,o),
(546,-52,o),
(561,-52,cs),
(589,-52,o),
(617,-28,o),
(617,3,cs),
(617,19,o),
(610,33,o),
(599,44,cs),
(529,115,o),
(468,209,o),
(421,309,c),
(494,477,o),
(560,577,o),
(626,634,cs),
(638,644,o),
(647,661,o),
(647,677,cs),
(647,705,o),
(624,728,o),
(594,728,cs)
);
}
);
width = 645;
}
);
unicode = 88;
},
{
glyphname = Y;
layers = (
{
anchors = (
{
name = t.uni0302_2;
position = "{388, 707}";
}
);
hints = (
{
horizontal = 1;
place = (-11,95);
type = Stem;
},
{
horizontal = 1;
place = (233,95);
type = Stem;
},
{
horizontal = 1;
place = (631,94);
type = Stem;
},
{
place = (191,111);
type = Stem;
},
{
place = (205,111);
type = Stem;
},
{
place = (523,111);
type = Stem;
}
);
layerId = "E0442E84-B566-4B90-AE92-7C1FE943EFDC";
shapes = (
{
closed = 1;
nodes = (
(628,707,o),
(601,725,o),
(574,725,cs),
(546,725,o),
(518,702,o),
(520,664,cs),
(522,639,o),
(524,601,o),
(523,557,c),
(514,427,o),
(442,328,o),
(361,328,cs),
(325,328,o),
(302,353,o),
(302,406,cs),
(302,443,o),
(316,570,o),
(316,601,cs),
(316,675,o),
(263,725,o),
(191,725,cs),
(132,725,o),
(82,693,o),
(48,651,cs),
(37,638,o),
(33,624,o),
(33,612,cs),
(33,585,o),
(52,565,o),
(77,565,cs),
(89,565,o),
(103,571,o),
(116,584,cs),
(142,609,o),
(163,631,o),
(183,631,cs),
(196,631,o),
(205,621,o),
(205,598,cs),
(205,571,o),
(191,473,o),
(191,415,cs),
(191,294,o),
(256,233,o),
(348,233,cs),
(413,233,o),
(461,267,o),
(497,319,c),
(469,189,o),
(412,84,o),
(335,84,cs),
(307,84,o),
(284,95,o),
(260,126,cs),
(248,140,o),
(233,148,o),
(219,148,cs),
(197,148,o),
(176,130,o),
(176,99,cs),
(176,86,o),
(181,71,o),
(190,58,cs),
(218,18,o),
(276,-11,o),
(336,-11,cs),
(549,-11,o),
(631,267,o),
(634,575,c),
(634,606,o),
(633,640,o),
(630,671,c)
);
}
);
width = 652;
}
);
leftKerningGroup = Y2;
rightKerningGroup = Y;
unicode = 89;
},
{
glyphname = Z;
layers = (
{
anchors = (
{
name = t.uni0302_2;
position = "{411, 707}";
}
);
hints = (
{
horizontal = 1;
place = (-13,95);
type = Stem;
},
{
horizontal = 1;
place = (-10,83);
type = Stem;
},
{
horizontal = 1;
place = (117,81);
type = Stem;
},
{
horizontal = 1;
place = (601,95);
type = Stem;
},
{
horizontal = 1;
place = (632,95);
type = Stem;
},
{
place = (56,91);
type = Stem;
},
{
place = (121,104);
type = Stem;
}
);
layerId = "E0442E84-B566-4B90-AE92-7C1FE943EFDC";
shapes = (
{
closed = 1;
nodes = (
(573,146,o),
(530,82,o),
(479,82,cs),
(449,82,o),
(414,100,o),
(377,121,c),
(393,148,ls),
(497,330,o),
(618,609,o),
(618,671,cs),
(618,703,o),
(595,724,o),
(564,724,cs),
(526,724,o),
(503,696,o),
(459,696,cs),
(391,696,o),
(319,727,o),
(251,727,cs),
(175,727,o),
(121,678,o),
(121,600,cs),
(121,541,o),
(146,490,o),
(190,490,cs),
(218,490,o),
(240,512,o),
(240,540,cs),
(240,555,o),
(225,576,o),
(225,597,cs),
(225,619,o),
(239,632,o),
(264,632,cs),
(321,632,o),
(376,601,o),
(447,601,cs),
(460,601,o),
(474,602,o),
(488,605,c),
(433,459,o),
(358,304,o),
(282,173,c),
(250,188,o),
(217,198,o),
(183,198,cs),
(99,198,o),
(56,147,o),
(56,96,cs),
(56,43,o),
(99,-10,o),
(187,-10,cs),
(233,-10,o),
(277,9,o),
(317,47,c),
(368,16,o),
(423,-13,o),
(475,-13,cs),
(572,-13,o),
(640,73,o),
(697,235,cs),
(700,244,o),
(701,252,o),
(701,259,cs),
(701,287,o),
(683,303,o),
(663,303,cs),
(645,303,o),
(627,291,o),
(617,265,cs)
);
},
{
closed = 1;
nodes = (
(157,73,o),
(147,84,o),
(147,95,cs),
(147,106,o),
(157,117,o),
(177,117,cs),
(191,117,o),
(209,110,o),
(230,98,c),
(214,82,o),
(197,73,o),
(178,73,cs)
);
}
);
width = 617;
}
);
leftKerningGroup = Z;
rightKerningGroup = A;
unicode = 90;
},
{
glyphname = bracketleft;
layers = (
{
hints = (
{
horizontal = 1;
place = (-31,96);
type = Stem;
},
{
horizontal = 1;
place = (599,95);
type = Stem;
},
{
place = (80,105);
type = Stem;
}
);
layerId = "E0442E84-B566-4B90-AE92-7C1FE943EFDC";
shapes = (
{
closed = 1;
nodes = (
(290,-27,o),
(309,-2,o),
(309,22,cs),
(309,44,o),
(292,65,o),
(259,65,cs),
(224,65,o),
(204,64,o),
(196,71,cs),
(186,80,o),
(185,203,o),
(185,332,cs),
(185,450,o),
(189,577,o),
(199,591,cs),
(203,597,o),
(230,599,o),
(257,599,cs),
(293,599,o),
(311,623,o),
(311,646,cs),
(311,670,o),
(292,694,o),
(254,694,cs),
(187,694,o),
(135,688,o),
(114,669,cs),
(92,650,o),
(80,486,o),
(80,333,cs),
(80,162,o),
(89,11,o),
(112,-10,cs),
(128,-25,o),
(170,-31,o),
(219,-31,cs),
(229,-31,o),
(240,-31,o),
(251,-30,cs)
);
}
);
width = 341;
}
);
unicode = 91;
},
{
glyphname = backslash;
layers = (
{
hints = (
{
horizontal = 1;
place = (-8,21);
target = up;
type = BottomGhost;
},
{
place = (36,351);
type = Stem;
}
);
layerId = "E0442E84-B566-4B90-AE92-7C1FE943EFDC";
shapes = (
{
closed = 1;
nodes = (
(363,-8,o),
(387,13,o),
(387,40,cs),
(387,50,o),
(384,63,o),
(377,74,cs),
(305,187,o),
(211,555,o),
(121,665,cs),
(109,680,o),
(95,686,o),
(82,686,cs),
(57,686,o),
(36,664,o),
(36,638,cs),
(36,628,o),
(40,616,o),
(48,605,cs),
(133,485,o),
(221,138,o),
(300,16,cs),
(311,-1,o),
(326,-8,o),
(339,-8,cs)
);
}
);
width = 410;
}
);
unicode = 92;
},
{
glyphname = bracketright;
layers = (
{
hints = (
{
horizontal = 1;
place = (-31,96);
type = Stem;
},
{
horizontal = 1;
place = (599,95);
type = Stem;
},
{
place = (156,105);
type = Stem;
}
);
layerId = "E0442E84-B566-4B90-AE92-7C1FE943EFDC";
shapes = (
{
closed = 1;
nodes = (
(102,-31,o),
(114,-31,o),
(126,-31,cs),
(173,-31,o),
(214,-24,o),
(229,-10,cs),
(252,11,o),
(261,162,o),
(261,333,cs),
(261,486,o),
(249,650,o),
(227,669,cs),
(206,688,o),
(154,694,o),
(88,694,cs),
(49,694,o),
(30,670,o),
(30,646,cs),
(30,623,o),
(48,599,o),
(84,599,cs),
(111,599,o),
(138,597,o),
(142,591,cs),
(152,577,o),
(156,450,o),
(156,332,cs),
(156,203,o),
(155,80,o),
(145,71,cs),
(137,64,o),
(117,65,o),
(83,65,cs),
(49,65,o),
(32,44,o),
(32,21,cs),
(32,-3,o),
(51,-27,o),
(90,-30,cs)
);
}
);
width = 341;
}
);
unicode = 93;
},
{
glyphname = asciicircum;
layers = (
{
hints = (
{
horizontal = 1;
place = (363,331);
type = Stem;
},
{
place = (30,329);
type = Stem;
}
);
layerId = "E0442E84-B566-4B90-AE92-7C1FE943EFDC";
shapes = (
{
closed = 1;
nodes = (
(98,364,o),
(116,373,o),
(126,395,cs),
(182,512,ls),
(185,518,o),
(190,522,o),
(195,522,cs),
(199,522,o),
(203,518,o),
(206,512,cs),
(263,393,ls),
(274,371,o),
(291,363,o),
(309,363,cs),
(334,363,o),
(359,382,o),
(359,411,cs),
(359,419,o),
(357,428,o),
(353,438,c),
(246,657,ls),
(234,682,o),
(213,694,o),
(193,694,cs),
(173,694,o),
(153,681,o),
(142,657,cs),
(37,439,l),
(32,430,o),
(30,421,o),
(30,412,cs),
(30,383,o),
(55,364,o),
(81,364,cs)
);
}
);
width = 389;
}
);
unicode = 94;
},
{
glyphname = underscore;
layers = (
{
hints = (
{
horizontal = 1;
place = (-25,89);
type = Stem;
},
{
place = (44,361);
type = Stem;
}
);
layerId = "E0442E84-B566-4B90-AE92-7C1FE943EFDC";
shapes = (
{
closed = 1;
nodes = (
(388,-27,o),
(405,-6,o),
(405,18,cs),
(405,41,o),
(388,64,o),
(356,64,cs),
(268,64,o),
(182,65,o),
(93,66,c),
(61,66,o),
(44,45,o),
(44,20,cs),
(44,-2,o),
(61,-25,o),
(92,-25,cs),
(181,-25,o),
(267,-26,o),
(355,-27,c)
);
}
);
width = 425;
}
);
unicode = 95;
},
{
glyphname = grave;
layers = (
{
hints = (
{
horizontal = 1;
place = (754,174);
type = Stem;
},
{
place = (32,169);
type = Stem;
}
);
layerId = "E0442E84-B566-4B90-AE92-7C1FE943EFDC";
shapes = (
{
closed = 1;
nodes = (
(121,907,ls),
(107,922,o),
(91,928,o),
(78,928,cs),
(52,928,o),
(32,908,o),
(32,882,cs),
(32,869,o),
(37,853,o),
(51,839,cs),
(113,774,ls),
(127,760,o),
(142,754,o),
(156,754,cs),
(181,754,o),
(201,774,o),
(201,800,cs),
(201,814,o),
(196,829,o),
(182,843,cs)
);
}
);
width = 233;
}
);
unicode = 96;
},
{
glyphname = a;
layers = (
{
anchors = (
{
name = t.uni0302_2;
position = "{222, 407}";
}
);
hints = (
{
horizontal = 1;
place = (-7,95);
type = Stem;
},
{
horizontal = 1;
place = (333,94);
type = Stem;
},
{
place = (-1,107);
type = Stem;
},
{
place = (280,93);
type = Stem;
}
);
layerId = "E0442E84-B566-4B90-AE92-7C1FE943EFDC";
shapes = (
{
closed = 1;
nodes = (
(462,170,o),
(425,88,o),
(397,88,cs),
(382,88,o),
(373,101,o),
(373,154,cs),
(373,236,o),
(389,351,o),
(389,385,cs),
(389,417,o),
(366,436,o),
(340,436,cs),
(312,436,o),
(295,421,o),
(287,399,c),
(262,417,o),
(234,427,o),
(203,427,cs),
(101,427,o),
(-1,320,o),
(-1,169,cs),
(-1,52,o),
(65,-7,o),
(150,-7,cs),
(206,-7,o),
(250,20,o),
(288,77,c),
(306,22,o),
(345,-7,o),
(389,-7,cs),
(462,-7,o),
(515,57,o),
(577,235,cs),
(580,243,o),
(581,251,o),
(581,258,cs),
(581,285,o),
(562,301,o),
(541,301,cs),
(524,301,o),
(506,290,o),
(497,265,cs)
);
},
{
closed = 1;
nodes = (
(124,88,o),
(106,121,o),
(106,171,cs),
(106,259,o),
(155,333,o),
(225,333,cs),
(253,333,o),
(271,320,o),
(280,304,c),
(277,204,o),
(244,88,o),
(166,88,cs)
);
}
);
width = 497;
}
);
leftKerningGroup = a;
rightKerningGroup = A;
unicode = 97;
},
{
glyphname = b;
layers = (
{
hints = (
{
horizontal = 1;
place = (-13,95);
type = Stem;
},
{
horizontal = 1;
place = (326,88);
type = Stem;
},
{
horizontal = 1;
place = (437,89);
type = Stem;
},
{
horizontal = 1;
place = (641,93);
type = Stem;
},
{
place = (14,104);
type = Stem;
},
{
place = (119,86);
type = Stem;
},
{
place = (297,98);
type = Stem;
},
{
place = (299,101);
type = Stem;
}
);
layerId = "E0442E84-B566-4B90-AE92-7C1FE943EFDC";
shapes = (
{
closed = 1;
nodes = (
(450,226,o),
(427,201,o),
(396,188,c),
(399,204,o),
(400,221,o),
(400,238,cs),
(400,352,o),
(336,414,o),
(256,414,cs),
(185,414,o),
(119,358,o),
(119,278,cs),
(119,203,o),
(175,136,o),
(251,106,c),
(236,91,o),
(218,82,o),
(200,82,cs),
(154,82,o),
(118,138,o),
(118,268,cs),
(118,331,o),
(123,388,o),
(133,437,c),
(137,437,ls),
(282,437,o),
(395,505,o),
(395,611,cs),
(395,681,o),
(346,734,o),
(266,734,cs),
(171,734,o),
(96,662,o),
(53,538,c),
(47,538,o),
(43,539,o),
(40,539,cs),
(11,539,o),
(-7,519,o),
(-7,496,cs),
(-7,478,o),
(4,459,o),
(30,450,c),
(20,398,o),
(14,340,o),
(14,277,cs),
(14,79,o),
(80,-13,o),
(199,-13,cs),
(272,-13,o),
(328,31,o),
(362,92,c),
(441,100,o),
(512,145,o),
(544,235,cs),
(547,244,o),
(548,252,o),
(548,259,cs),
(548,286,o),
(530,302,o),
(509,302,cs),
(492,302,o),
(473,291,o),
(464,265,cs)
);
},
{
closed = 1;
nodes = (
(285,641,o),
(297,628,o),
(297,611,cs),
(297,576,o),
(252,527,o),
(157,526,c),
(184,599,o),
(223,641,o),
(266,641,cs)
);
},
{
closed = 1;
nodes = (
(205,305,o),
(224,326,o),
(251,326,cs),
(279,326,o),
(299,299,o),
(299,250,cs),
(299,225,o),
(296,202,o),
(290,181,c),
(238,194,o),
(205,230,o),
(205,271,cs)
);
}
);
width = 464;
}
);
leftKerningGroup = b;
rightKerningGroup = A;
unicode = 98;
},
{
glyphname = c;
layers = (
{
anchors = (
{
name = t.uni0302_2;
position = "{205, 407}";
},
{
name = b.uni0326_1_2;
position = "{189, 7}";
}
);
hints = (
{
horizontal = 1;
place = (-13,94);
type = Stem;
},
{
horizontal = 1;
place = (338,93);
type = Stem;
},
{
place = (5,107);
type = Stem;
},
{
place = (237,103);
type = Stem;
}
);
layerId = "E0442E84-B566-4B90-AE92-7C1FE943EFDC";
shapes = (
{
closed = 1;
nodes = (
(330,-13,o),
(430,69,o),
(488,235,cs),
(491,243,o),
(492,251,o),
(492,258,cs),
(492,285,o),
(473,302,o),
(452,302,cs),
(435,302,o),
(417,291,o),
(408,265,cs),
(378,182,o),
(309,81,o),
(214,81,cs),
(150,81,o),
(112,120,o),
(112,193,cs),
(112,282,o),
(160,338,o),
(205,338,cs),
(226,338,o),
(237,327,o),
(237,304,cs),
(237,268,o),
(259,250,o),
(286,250,cs),
(313,250,o),
(340,272,o),
(340,320,cs),
(340,379,o),
(287,431,o),
(205,431,cs),
(99,431,o),
(5,337,o),
(5,192,cs),
(5,65,o),
(84,-13,o),
(205,-13,cs)
);
}
);
width = 408;
}
);
leftKerningGroup = c;
rightKerningGroup = A;
unicode = 99;
},
{
glyphname = d;
layers = (
{
hints = (
{
horizontal = 1;
place = (-7,95);
type = Stem;
},
{
horizontal = 1;
place = (-4,94);
type = Stem;
},
{
horizontal = 1;
place = (344,93);
type = Stem;
},
{
horizontal = 1;
place = (431,-20);
target = down;
type = TopGhost;
},
{
horizontal = 1;
place = (638,93);
type = Stem;
},
{
place = (-1,107);
type = Stem;
},
{
place = (258,92);
type = Stem;
},
{
place = (269,87);
type = Stem;
},
{
place = (414,96);
type = Stem;
}
);
layerId = "E0442E84-B566-4B90-AE92-7C1FE943EFDC";
shapes = (
{
closed = 1;
nodes = (
(477,184,o),
(429,90,o),
(400,90,cs),
(381,90,o),
(364,123,o),
(356,209,c),
(408,293,o),
(510,470,o),
(510,602,cs),
(510,682,o),
(467,731,o),
(404,731,cs),
(314,731,o),
(261,641,o),
(258,431,c),
(246,435,o),
(233,437,o),
(219,437,cs),
(102,437,o),
(-1,324,o),
(-1,179,cs),
(-1,60,o),
(60,-7,o),
(148,-7,cs),
(199,-7,o),
(250,25,o),
(287,73,c),
(310,25,o),
(346,-4,o),
(396,-4,cs),
(474,-4,o),
(534,86,o),
(587,235,cs),
(590,243,o),
(591,251,o),
(591,258,cs),
(591,285,o),
(572,301,o),
(551,301,cs),
(534,301,o),
(516,290,o),
(507,265,cs)
);
},
{
closed = 1;
nodes = (
(407,638,o),
(414,630,o),
(414,603,cs),
(414,557,o),
(389,453,o),
(350,362,c),
(351,567,o),
(374,638,o),
(397,638,cs)
);
},
{
closed = 1;
nodes = (
(126,88,o),
(106,122,o),
(106,178,cs),
(106,259,o),
(156,344,o),
(215,344,cs),
(248,344,o),
(269,322,o),
(269,265,cs),
(269,178,o),
(216,88,o),
(157,88,cs)
);
}
);
width = 507;
}
);
leftKerningGroup = a;
rightKerningGroup = A;
unicode = 100;
},
{
glyphname = e;
layers = (
{
anchors = (
{
name = t.uni0302_2;
position = "{205, 407}";
}
);
hints = (
{
horizontal = 1;
place = (-13,95);
type = Stem;
},
{
horizontal = 1;
place = (158,77);
type = Stem;
},
{
horizontal = 1;
place = (339,93);
type = Stem;
},
{
place = (7,106);
type = Stem;
},
{
place = (256,101);
type = Stem;
}
);
layerId = "E0442E84-B566-4B90-AE92-7C1FE943EFDC";
shapes = (
{
closed = 1;
nodes = (
(392,187,o),
(328,82,o),
(226,82,cs),
(159,82,o),
(120,114,o),
(113,178,c),
(140,165,o),
(169,158,o),
(201,158,cs),
(292,158,o),
(357,221,o),
(357,299,cs),
(357,369,o),
(303,432,o),
(205,432,cs),
(86,432,o),
(7,326,o),
(7,199,cs),
(7,72,o),
(90,-13,o),
(214,-13,cs),
(339,-13,o),
(439,65,o),
(500,235,cs),
(503,243,o),
(504,250,o),
(504,257,cs),
(504,283,o),
(485,300,o),
(463,300,cs),
(446,300,o),
(429,289,o),
(420,265,cs)
);
},
{
closed = 1;
nodes = (
(237,339,o),
(256,320,o),
(256,292,cs),
(256,263,o),
(231,235,o),
(187,235,cs),
(164,235,o),
(140,239,o),
(117,247,c),
(130,304,o),
(166,339,o),
(207,339,cs)
);
}
);
width = 420;
}
);
leftKerningGroup = c;
rightKerningGroup = A;
unicode = 101;
},
{
glyphname = f;
layers = (
{
hints = (
{
horizontal = 1;
place = (-260,94);
type = Stem;
},
{
horizontal = 1;
place = (631,93);
type = Stem;
},
{
place = (11,107);
type = Stem;
},
{
place = (215,100);
type = Stem;
},
{
place = (232,100);
type = Stem;
}
);
layerId = "E0442E84-B566-4B90-AE92-7C1FE943EFDC";
shapes = (
{
closed = 1;
nodes = (
(327,204,o),
(295,170,o),
(253,170,cs),
(250,170,l),
(226,208,o),
(198,233,o),
(170,233,cs),
(144,233,o),
(126,220,o),
(118,202,c),
(118,220,o),
(118,238,o),
(119,256,c),
(283,399,o),
(332,535,o),
(332,604,cs),
(332,678,o),
(290,724,o),
(224,724,cs),
(87,724,o),
(11,563,o),
(11,170,cs),
(11,-194,o),
(77,-260,o),
(175,-260,cs),
(248,-260,o),
(315,-193,o),
(315,-67,cs),
(315,-16,o),
(305,38,o),
(289,86,c),
(352,102,o),
(403,156,o),
(430,235,cs),
(433,243,o),
(434,251,o),
(434,258,cs),
(434,286,o),
(415,304,o),
(394,304,cs),
(377,304,o),
(359,292,o),
(350,265,c)
);
},
{
closed = 1;
nodes = (
(225,631,o),
(232,625,o),
(232,608,cs),
(232,562,o),
(191,458,o),
(127,378,c),
(144,531,o),
(182,631,o),
(216,631,cs)
);
},
{
closed = 1;
nodes = (
(146,-166,o),
(121,-94,o),
(118,151,c),
(128,127,o),
(149,104,o),
(184,91,c),
(203,49,o),
(215,-12,o),
(215,-63,cs),
(215,-130,o),
(197,-166,o),
(178,-166,cs)
);
}
);
width = 350;
}
);
leftKerningGroup = f;
rightKerningGroup = A;
unicode = 102;
},
{
glyphname = g;
layers = (
{
anchors = (
{
name = t.uni0302_2;
position = "{217, 407}";
}
);
hints = (
{
horizontal = 1;
place = (-261,93);
type = Stem;
},
{
horizontal = 1;
place = (11,94);
type = Stem;
},
{
horizontal = 1;
place = (336,93);
type = Stem;
},
{
place = (-1,107);
type = Stem;
},
{
place = (87,95);
type = Stem;
},
{
place = (274,105);
type = Stem;
}
);
layerId = "E0442E84-B566-4B90-AE92-7C1FE943EFDC";
shapes = (
{
closed = 1;
nodes = (
(447,207,o),
(413,136,o),
(366,84,c),
(373,191,o),
(379,281,o),
(379,309,cs),
(379,383,o),
(304,429,o),
(216,429,cs),
(96,429,o),
(-1,321,o),
(-1,174,cs),
(-1,77,o),
(64,11,o),
(148,11,cs),
(185,11,o),
(223,27,o),
(259,62,c),
(258,45,o),
(258,27,o),
(256,11,c),
(173,-40,o),
(87,-75,o),
(87,-164,cs),
(87,-217,o),
(131,-261,o),
(194,-261,cs),
(291,-261,o),
(343,-171,o),
(357,-35,c),
(447,27,o),
(509,121,o),
(548,235,cs),
(551,243,o),
(552,251,o),
(552,258,cs),
(552,285,o),
(533,302,o),
(512,302,cs),
(495,302,o),
(477,291,o),
(468,265,cs)
);
},
{
closed = 1;
nodes = (
(128,105,o),
(106,129,o),
(106,178,cs),
(106,271,o),
(161,336,o),
(213,336,cs),
(248,336,o),
(267,319,o),
(274,297,c),
(272,198,o),
(246,105,o),
(165,105,cs)
);
},
{
closed = 1;
nodes = (
(189,-168,o),
(182,-161,o),
(182,-151,cs),
(182,-131,o),
(211,-111,o),
(248,-88,c),
(238,-149,o),
(222,-168,o),
(202,-168,cs)
);
}
);
width = 468;
}
);
leftKerningGroup = a;
rightKerningGroup = A;
unicode = 103;
},
{
glyphname = h;
layers = (
{
anchors = (
{
name = t.uni0302_2;
position = "{236, 714}";
}
);
hints = (
{
horizontal = 1;
place = (-9,94);
type = Stem;
},
{
horizontal = 1;
place = (340,91);
type = Stem;
},
{
horizontal = 1;
place = (443,85);
type = Stem;
},
{
horizontal = 1;
place = (642,93);
type = Stem;
},
{
place = (13,108);
type = Stem;
},
{
place = (231,104);
type = Stem;
},
{
place = (271,99);
type = Stem;
},
{
place = (278,105);
type = Stem;
}
);
layerId = "E0442E84-B566-4B90-AE92-7C1FE943EFDC";
shapes = (
{
closed = 1;
nodes = (
(436,165,o),
(388,85,o),
(356,85,cs),
(343,85,o),
(335,94,o),
(335,108,cs),
(335,142,o),
(383,254,o),
(383,328,cs),
(383,388,o),
(339,431,o),
(278,431,cs),
(217,431,o),
(162,397,o),
(119,337,c),
(121,377,o),
(125,412,o),
(129,443,c),
(277,446,o),
(370,520,o),
(370,616,cs),
(370,682,o),
(318,735,o),
(242,735,cs),
(159,735,o),
(82,684,o),
(42,539,c),
(37,540,o),
(32,540,o),
(29,540,cs),
(0,540,o),
(-16,520,o),
(-16,499,cs),
(-16,481,o),
(-4,462,o),
(24,454,c),
(25,454,l),
(17,403,o),
(13,343,o),
(13,274,cs),
(13,201,o),
(13,125,o),
(18,52,cs),
(20,12,o),
(39,-11,o),
(72,-11,cs),
(107,-11,o),
(127,16,o),
(125,57,c),
(123,81,o),
(122,104,o),
(121,127,c),
(124,267,o),
(213,340,o),
(253,340,cs),
(269,340,o),
(278,331,o),
(278,314,cs),
(278,271,o),
(231,164,o),
(231,101,cs),
(231,37,o),
(277,-9,o),
(344,-9,cs),
(420,-9,o),
(491,64,o),
(551,235,cs),
(554,243,o),
(555,251,o),
(555,258,cs),
(555,285,o),
(536,303,o),
(514,303,cs),
(497,303,o),
(480,291,o),
(471,265,cs)
);
},
{
closed = 1;
nodes = (
(258,642,o),
(271,627,o),
(271,606,cs),
(271,569,o),
(228,532,o),
(145,528,c),
(167,608,o),
(199,642,o),
(236,642,cs)
);
}
);
width = 471;
}
);
leftKerningGroup = h;
rightKerningGroup = A;
unicode = 104;
},
{
glyphname = i;
layers = (
{
hints = (
{
horizontal = 1;
place = (-11,94);
type = Stem;
},
{
horizontal = 1;
place = (427,-20);
target = down;
type = TopGhost;
},
{
horizontal = 1;
place = (462,126);
type = Stem;
},
{
place = (8,107);
type = Stem;
},
{
place = (36,125);
type = Stem;
}
);
layerId = "E0442E84-B566-4B90-AE92-7C1FE943EFDC";
shapes = (
{
closed = 1;
nodes = (
(133,462,o),
(161,490,o),
(161,525,cs),
(161,560,o),
(133,588,o),
(98,588,cs),
(63,588,o),
(36,560,o),
(36,525,cs),
(36,490,o),
(63,462,o),
(98,462,cs)
);
},
{
closed = 1;
nodes = (
(234,-11,o),
(290,90,o),
(340,235,cs),
(343,243,o),
(344,251,o),
(344,258,cs),
(344,286,o),
(325,302,o),
(304,302,cs),
(287,302,o),
(269,291,o),
(260,265,cs),
(220,151,o),
(178,83,o),
(148,83,cs),
(129,83,o),
(115,98,o),
(115,164,cs),
(115,223,o),
(135,356,o),
(135,368,cs),
(135,404,o),
(114,427,o),
(85,427,cs),
(58,427,o),
(34,406,o),
(29,372,c),
(19,316,o),
(8,222,o),
(8,170,cs),
(8,50,o),
(56,-11,o),
(136,-11,cs)
);
}
);
width = 260;
}
);
leftKerningGroup = i;
rightKerningGroup = A;
unicode = 105;
},
{
glyphname = j;
layers = (
{
hints = (
{
horizontal = 1;
place = (-260,93);
type = Stem;
},
{
horizontal = 1;
place = (428,-20);
target = down;
type = TopGhost;
},
{
horizontal = 1;
place = (461,126);
type = Stem;
},
{
place = (-176,94);
type = Stem;
},
{
place = (20,125);
type = Stem;
}
);
layerId = "E0442E84-B566-4B90-AE92-7C1FE943EFDC";
shapes = (
{
closed = 1;
nodes = (
(117,461,o),
(145,489,o),
(145,524,cs),
(145,559,o),
(117,587,o),
(83,587,cs),
(48,587,o),
(20,559,o),
(20,524,cs),
(20,489,o),
(48,461,o),
(83,461,cs)
);
},
{
closed = 1;
nodes = (
(186,201,o),
(149,133,o),
(104,85,c),
(106,105,ls),
(113,187,o),
(120,289,o),
(127,369,cs),
(130,409,o),
(102,428,o),
(74,428,cs),
(49,428,o),
(22,411,o),
(20,379,c),
(9,264,o),
(-2,108,o),
(-7,10,c),
(-96,-42,o),
(-176,-80,o),
(-176,-164,cs),
(-176,-217,o),
(-131,-260,o),
(-71,-260,cs),
(28,-260,o),
(87,-152,o),
(95,-46,c),
(95,-44,o),
(95,-40,o),
(96,-35,c),
(185,25,o),
(246,116,o),
(288,235,cs),
(291,244,o),
(292,252,o),
(292,259,cs),
(292,287,o),
(274,304,o),
(253,304,cs),
(236,304,o),
(218,292,o),
(208,265,cs)
);
},
{
closed = 1;
nodes = (
(-75,-167,o),
(-82,-160,o),
(-82,-149,cs),
(-82,-131,o),
(-55,-112,o),
(-15,-88,c),
(-23,-144,o),
(-41,-167,o),
(-61,-167,cs)
);
}
);
width = 208;
}
);
leftKerningGroup = j;
rightKerningGroup = A;
unicode = 106;
},
{
glyphname = k;
layers = (
{
anchors = (
{
name = b.uni0326_1_2;
position = "{178, 7}";
}
);
hints = (
{
horizontal = 1;
place = (-12,94);
type = Stem;
},
{
horizontal = 1;
place = (322,94);
type = Stem;
},
{
horizontal = 1;
place = (443,85);
type = Stem;
},
{
horizontal = 1;
place = (642,93);
type = Stem;
},
{
place = (15,108);
type = Stem;
},
{
place = (157,106);
type = Stem;
},
{
place = (273,99);
type = Stem;
},
{
place = (275,105);
type = Stem;
}
);
layerId = "E0442E84-B566-4B90-AE92-7C1FE943EFDC";
shapes = (
{
closed = 1;
nodes = (
(407,170,o),
(360,82,o),
(313,82,cs),
(289,82,o),
(263,108,o),
(263,138,cs),
(263,153,o),
(285,164,o),
(310,182,cs),
(342,205,o),
(380,238,o),
(380,303,cs),
(380,364,o),
(329,416,o),
(262,416,cs),
(209,416,o),
(160,387,o),
(123,340,c),
(125,378,o),
(128,413,o),
(132,443,c),
(281,446,o),
(372,521,o),
(372,615,cs),
(372,683,o),
(320,735,o),
(245,735,cs),
(161,735,o),
(84,684,o),
(44,539,c),
(39,540,o),
(35,540,o),
(31,540,cs),
(2,540,o),
(-14,520,o),
(-14,499,cs),
(-14,481,o),
(-2,462,o),
(26,454,c),
(27,454,l),
(19,403,o),
(15,343,o),
(15,274,cs),
(15,201,o),
(15,125,o),
(20,52,cs),
(23,12,o),
(42,-11,o),
(74,-11,cs),
(109,-11,o),
(130,16,o),
(127,57,cs),
(125,84,o),
(123,110,o),
(123,135,cs),
(123,257,o),
(180,322,o),
(238,322,cs),
(263,322,o),
(275,309,o),
(275,291,cs),
(275,266,o),
(244,247,o),
(214,227,cs),
(182,207,o),
(157,185,o),
(157,151,cs),
(157,62,o),
(229,-12,o),
(310,-12,cs),
(403,-12,o),
(472,94,o),
(521,235,cs),
(524,244,o),
(525,252,o),
(525,259,cs),
(525,286,o),
(507,302,o),
(486,302,cs),
(468,302,o),
(450,290,o),
(441,265,cs)
);
},
{
closed = 1;
nodes = (
(260,642,o),
(273,627,o),
(273,605,cs),
(273,574,o),
(236,533,o),
(148,528,c),
(169,608,o),
(201,642,o),
(238,642,cs)
);
}
);
width = 441;
}
);
leftKerningGroup = k;
rightKerningGroup = A;
unicode = 107;
},
{
glyphname = l;
layers = (
{
anchors = (
{
name = t.uni0302_2;
position = "{199, 703}";
},
{
name = b.uni0326_1_2;
position = "{183, 7}";
}
);
hints = (
{
horizontal = 1;
place = (-10,94);
type = Stem;
},
{
horizontal = 1;
place = (636,93);
type = Stem;
},
{
place = (15,105);
type = Stem;
},
{
place = (216,94);
type = Stem;
}
);
layerId = "E0442E84-B566-4B90-AE92-7C1FE943EFDC";
shapes = (
{
closed = 1;
nodes = (
(282,158,o),
(234,84,o),
(190,84,cs),
(151,84,o),
(125,120,o),
(119,213,c),
(233,350,o),
(310,497,o),
(310,614,cs),
(310,685,o),
(265,729,o),
(205,729,cs),
(86,729,o),
(15,590,o),
(15,266,cs),
(15,72,o),
(75,-10,o),
(184,-10,cs),
(278,-10,o),
(345,73,o),
(401,235,cs),
(404,243,o),
(405,251,o),
(405,258,cs),
(405,285,o),
(386,303,o),
(365,303,cs),
(349,303,o),
(331,292,o),
(321,265,cs)
);
},
{
closed = 1;
nodes = (
(209,636,o),
(216,628,o),
(216,604,cs),
(216,552,o),
(180,440,o),
(120,340,c),
(129,514,o),
(166,636,o),
(199,636,cs)
);
}
);
width = 321;
}
);
leftKerningGroup = l;
rightKerningGroup = A;
unicode = 108;
},
{
glyphname = m;
layers = (
{
hints = (
{
horizontal = 1;
place = (-8,95);
type = Stem;
},
{
horizontal = 1;
place = (-14,21);
target = up;
type = BottomGhost;
},
{
horizontal = 1;
place = (306,93);
type = Stem;
},
{
horizontal = 1;
place = (331,93);
type = Stem;
},
{
horizontal = 1;
place = (429,-20);
target = down;
type = TopGhost;
},
{
place = (10,107);
type = Stem;
},
{
place = (25,107);
type = Stem;
},
{
place = (230,107);
type = Stem;
},
{
place = (453,107);
type = Stem;
},
{
place = (469,108);
type = Stem;
}
);
layerId = "E0442E84-B566-4B90-AE92-7C1FE943EFDC";
shapes = (
{
closed = 1;
nodes = (
(657,194,o),
(608,87,o),
(577,87,cs),
(568,87,o),
(560,95,o),
(560,113,cs),
(560,174,o),
(577,273,o),
(577,319,cs),
(577,382,o),
(534,424,o),
(468,424,cs),
(417,424,o),
(375,398,o),
(341,345,c),
(325,377,o),
(293,399,o),
(255,399,cs),
(202,399,o),
(160,370,o),
(126,315,c),
(129,351,o),
(132,371,o),
(132,376,cs),
(132,411,o),
(114,429,o),
(81,429,cs),
(49,429,o),
(29,410,o),
(25,381,cs),
(15,303,o),
(10,187,o),
(10,43,cs),
(10,7,o),
(29,-14,o),
(65,-14,cs),
(97,-14,o),
(117,8,o),
(117,43,cs),
(117,99,l),
(127,220,o),
(187,306,o),
(235,306,cs),
(250,306,o),
(257,299,o),
(257,283,cs),
(257,254,o),
(230,178,o),
(230,106,cs),
(230,15,o),
(250,-8,o),
(293,-8,cs),
(322,-8,o),
(341,11,o),
(341,40,c),
(341,41,o),
(337,96,o),
(337,110,cs),
(337,117,l),
(340,254,o),
(394,331,o),
(441,331,cs),
(460,331,o),
(469,322,o),
(469,299,cs),
(469,268,o),
(453,186,o),
(453,123,cs),
(453,35,o),
(496,-8,o),
(561,-8,cs),
(650,-8,o),
(709,83,o),
(762,235,cs),
(765,244,o),
(766,251,o),
(766,259,cs),
(766,287,o),
(747,303,o),
(726,303,cs),
(709,303,o),
(691,291,o),
(682,265,cs)
);
}
);
width = 682;
}
);
leftKerningGroup = m;
rightKerningGroup = A;
unicode = 109;
},
{
glyphname = n;
layers = (
{
anchors = (
{
name = t.uni0302_2;
position = "{243, 407}";
},
{
name = b.uni0326_1_2;
position = "{195, 7}";
}
);
hints = (
{
horizontal = 1;
place = (-8,95);
type = Stem;
},
{
horizontal = 1;
place = (-13,21);
target = up;
type = BottomGhost;
},
{
horizontal = 1;
place = (331,93);
type = Stem;
},
{
horizontal = 1;
place = (429,-20);
target = down;
type = TopGhost;
},
{
place = (10,106);
type = Stem;
},
{
place = (239,107);
type = Stem;
},
{
place = (256,107);
type = Stem;
}
);
layerId = "E0442E84-B566-4B90-AE92-7C1FE943EFDC";
shapes = (
{
closed = 1;
nodes = (
(443,192,o),
(395,87,o),
(366,87,cs),
(354,87,o),
(346,95,o),
(346,123,cs),
(346,173,o),
(363,272,o),
(363,320,cs),
(363,382,o),
(321,424,o),
(256,424,cs),
(202,424,o),
(158,396,o),
(127,337,c),
(128,347,o),
(129,357,o),
(131,368,cs),
(132,372,o),
(132,375,o),
(132,378,cs),
(132,408,o),
(112,429,o),
(80,429,cs),
(48,429,o),
(27,412,o),
(24,383,cs),
(14,300,o),
(10,176,o),
(10,43,cs),
(10,7,o),
(30,-13,o),
(64,-13,cs),
(96,-13,o),
(116,8,o),
(116,43,cs),
(116,104,l),
(119,230,o),
(179,331,o),
(228,331,cs),
(247,331,o),
(256,323,o),
(256,300,cs),
(256,260,o),
(239,186,o),
(239,113,cs),
(239,37,o),
(284,-8,o),
(350,-8,cs),
(438,-8,o),
(496,84,o),
(549,235,cs),
(552,244,o),
(554,252,o),
(554,259,cs),
(554,286,o),
(534,303,o),
(514,303,cs),
(497,303,o),
(478,292,o),
(469,265,cs)
);
}
);
width = 469;
}
);
leftKerningGroup = m;
rightKerningGroup = A;
unicode = 110;
},
{
glyphname = o;
layers = (
{
anchors = (
{
name = t.uni0302_2;
position = "{213, 407}";
},
{
name = b.uni0326_1_2;
position = "{156, 7}";
}
);
hints = (
{
horizontal = 1;
place = (-11,93);
type = Stem;
},
{
horizontal = 1;
place = (333,102);
type = Stem;
},
{
horizontal = 1;
place = (429,-20);
target = down;
type = TopGhost;
},
{
place = (0,101);
type = Stem;
},
{
place = (144,75);
type = Stem;
},
{
place = (284,98);
type = Stem;
}
);
layerId = "E0442E84-B566-4B90-AE92-7C1FE943EFDC";
shapes = (
{
closed = 1;
nodes = (
(427,228,o),
(408,197,o),
(377,182,c),
(380,200,o),
(382,220,o),
(382,240,cs),
(382,356,o),
(313,419,o),
(259,429,c),
(244,433,o),
(227,435,o),
(209,435,cs),
(88,435,o),
(0,315,o),
(0,178,cs),
(0,69,o),
(63,-11,o),
(170,-11,cs),
(245,-11,o),
(304,28,o),
(341,88,c),
(416,93,o),
(487,138,o),
(522,235,cs),
(525,244,o),
(526,251,o),
(526,258,cs),
(526,285,o),
(508,300,o),
(487,300,cs),
(469,300,o),
(451,289,o),
(442,265,cs)
);
},
{
closed = 1;
nodes = (
(219,317,o),
(230,333,o),
(243,333,cs),
(269,333,o),
(284,285,o),
(284,241,cs),
(284,219,o),
(282,199,o),
(278,182,c),
(244,197,o),
(219,230,o),
(219,280,cs)
);
},
{
closed = 1;
nodes = (
(101,233,o),
(120,289,o),
(153,321,c),
(147,299,o),
(144,276,o),
(144,257,cs),
(144,185,o),
(185,133,o),
(239,107,c),
(222,90,o),
(201,82,o),
(179,82,cs),
(127,82,o),
(101,124,o),
(101,183,cs)
);
}
);
width = 442;
}
);
leftKerningGroup = c;
rightKerningGroup = A;
unicode = 111;
},
{
glyphname = p;
layers = (
{
hints = (
{
horizontal = 1;
place = (-259,21);
target = up;
type = BottomGhost;
},
{
horizontal = 1;
place = (-19,121);
type = Stem;
},
{
horizontal = 1;
place = (336,93);
type = Stem;
},
{
place = (291,107);
type = Stem;
}
);
layerId = "E0442E84-B566-4B90-AE92-7C1FE943EFDC";
shapes = (
{
closed = 1;
nodes = (
(445,211,o),
(420,164,o),
(367,135,c),
(386,178,o),
(398,225,o),
(398,268,cs),
(398,366,o),
(340,429,o),
(255,429,cs),
(201,429,o),
(151,395,o),
(114,346,c),
(112,364,o),
(109,380,o),
(105,396,cs),
(99,419,o),
(82,431,o),
(59,431,cs),
(26,431,o),
(1,412,o),
(1,381,cs),
(1,367,o),
(16,271,o),
(16,196,cs),
(16,13,o),
(-21,-186,o),
(-21,-208,cs),
(-21,-239,o),
(4,-259,o),
(35,-259,cs),
(62,-259,o),
(83,-242,o),
(87,-213,cs),
(106,-64,o),
(122,71,o),
(123,186,c),
(136,270,o),
(197,336,o),
(248,336,cs),
(276,336,o),
(291,313,o),
(291,277,cs),
(291,216,o),
(264,141,o),
(232,103,c),
(224,102,o),
(215,102,o),
(206,102,cs),
(164,102,o),
(142,69,o),
(142,38,cs),
(142,10,o),
(161,-19,o),
(204,-19,cs),
(229,-19,o),
(256,-7,o),
(280,14,c),
(414,34,o),
(499,102,o),
(545,235,cs),
(548,244,o),
(550,252,o),
(550,259,cs),
(550,286,o),
(530,304,o),
(509,304,cs),
(493,304,o),
(475,292,o),
(465,265,cs)
);
}
);
width = 465;
}
);
leftKerningGroup = p;
rightKerningGroup = A;
unicode = 112;
},
{
glyphname = q;
layers = (
{
anchors = (
{
name = t.uni0302_2;
position = "{239, 415}";
},
{
name = b.uni0326_1_2;
position = "{239, 0}";
}
);
hints = (
{
horizontal = 1;
place = (-257,95);
type = Stem;
},
{
horizontal = 1;
place = (6,95);
type = Stem;
},
{
horizontal = 1;
place = (336,92);
type = Stem;
},
{
place = (-1,107);
type = Stem;
},
{
place = (217,103);
type = Stem;
},
{
place = (279,105);
type = Stem;
},
{
place = (360,96);
type = Stem;
}
);
layerId = "E0442E84-B566-4B90-AE92-7C1FE943EFDC";
shapes = (
{
closed = 1;
nodes = (
(404,-257,o),
(456,-196,o),
(456,-105,cs),
(456,-31,o),
(438,-2,o),
(419,61,c),
(480,88,o),
(532,157,o),
(558,235,cs),
(561,243,o),
(562,251,o),
(562,258,cs),
(562,286,o),
(543,304,o),
(522,304,cs),
(505,304,o),
(487,292,o),
(478,265,cs),
(453,196,o),
(413,153,o),
(354,119,c),
(369,203,o),
(384,280,o),
(384,312,cs),
(384,374,o),
(317,428,o),
(216,428,cs),
(102,428,o),
(-1,326,o),
(-1,174,cs),
(-1,74,o),
(64,6,o),
(147,6,cs),
(176,6,o),
(205,16,o),
(232,35,c),
(224,-15,o),
(217,-69,o),
(217,-121,cs),
(217,-210,o),
(268,-257,o),
(335,-257,cs)
);
},
{
closed = 1;
nodes = (
(130,101,o),
(106,125,o),
(106,178,cs),
(106,265,o),
(161,336,o),
(225,336,cs),
(249,336,o),
(268,326,o),
(279,312,c),
(273,215,o),
(249,101,o),
(169,101,cs)
);
},
{
closed = 1;
nodes = (
(328,-162,o),
(320,-155,o),
(320,-137,cs),
(320,-98,o),
(329,-33,o),
(340,34,c),
(349,2,o),
(360,-45,o),
(360,-107,cs),
(360,-149,o),
(349,-162,o),
(337,-162,cs)
);
}
);
width = 478;
}
);
leftKerningGroup = a;
rightKerningGroup = A;
unicode = 113;
},
{
glyphname = r;
layers = (
{
anchors = (
{
name = t.uni0302_2;
position = "{193, 407}";
},
{
name = b.uni0326_1_2;
position = "{247, 7}";
}
);
hints = (
{
horizontal = 1;
place = (-11,95);
type = Stem;
},
{
horizontal = 1;
place = (420,-20);
target = down;
type = TopGhost;
},
{
place = (110,107);
type = Stem;
}
);
layerId = "E0442E84-B566-4B90-AE92-7C1FE943EFDC";
shapes = (
{
closed = 1;
nodes = (
(374,162,o),
(323,84,o),
(267,84,cs),
(236,84,o),
(217,102,o),
(217,138,cs),
(217,192,o),
(262,274,o),
(284,327,cs),
(292,345,o),
(297,360,o),
(297,370,cs),
(297,399,o),
(275,420,o),
(247,420,cs),
(231,420,o),
(212,412,o),
(193,412,cs),
(147,412,o),
(133,437,o),
(118,455,cs),
(108,467,o),
(97,477,o),
(73,477,cs),
(42,477,o),
(20,451,o),
(20,418,cs),
(20,404,o),
(28,389,o),
(37,380,c),
(27,341,o),
(15,307,o),
(0,265,cs),
(-3,258,o),
(-4,251,o),
(-4,244,cs),
(-4,219,o),
(16,202,o),
(38,202,cs),
(54,202,o),
(71,212,o),
(80,235,cs),
(94,273,o),
(106,310,o),
(116,341,c),
(134,334,o),
(149,329,o),
(170,324,c),
(139,263,o),
(110,192,o),
(110,132,cs),
(110,48,o),
(170,-11,o),
(253,-11,cs),
(358,-11,o),
(438,79,o),
(492,235,cs),
(495,244,o),
(496,251,o),
(496,259,cs),
(496,285,o),
(478,301,o),
(457,301,cs),
(440,301,o),
(421,290,o),
(412,265,cs)
);
}
);
width = 412;
}
);
leftKerningGroup = r;
rightKerningGroup = A;
unicode = 114;
},
{
glyphname = s;
layers = (
{
anchors = (
{
name = t.uni0302_2;
position = "{128, 444}";
},
{
name = b.uni0326_1_2;
position = "{139, 7}";
}
);
hints = (
{
horizontal = 1;
place = (-8,109);
type = Stem;
},
{
horizontal = 1;
place = (-8,21);
target = up;
type = BottomGhost;
},
{
place = (-4,443);
type = Stem;
},
{
place = (41,125);
type = Stem;
}
);
layerId = "E0442E84-B566-4B90-AE92-7C1FE943EFDC";
shapes = (
{
closed = 1;
nodes = (
(337,218,o),
(314,178,o),
(282,149,c),
(272,256,o),
(166,333,o),
(166,370,cs),
(166,385,o),
(188,399,o),
(188,425,cs),
(188,459,o),
(157,478,o),
(123,478,cs),
(84,478,o),
(41,452,o),
(41,394,cs),
(41,392,l),
(25,338,o),
(15,309,o),
(0,265,cs),
(-2,258,o),
(-4,251,o),
(-4,245,cs),
(-4,218,o),
(17,202,o),
(38,202,cs),
(55,202,o),
(72,212,o),
(80,235,cs),
(85,251,o),
(91,268,o),
(96,285,c),
(134,236,o),
(177,185,o),
(177,137,cs),
(177,120,o),
(172,108,o),
(163,101,c),
(153,101,ls),
(119,101,o),
(107,110,o),
(84,112,c),
(81,112,o),
(78,113,o),
(75,113,cs),
(46,113,o),
(27,90,o),
(27,64,cs),
(27,46,o),
(36,27,o),
(57,13,cs),
(79,-1,o),
(106,-8,o),
(132,-8,cs),
(168,-8,o),
(204,4,o),
(233,26,c),
(329,57,o),
(398,130,o),
(435,235,cs),
(438,243,o),
(439,250,o),
(439,257,cs),
(439,284,o),
(419,301,o),
(398,301,cs),
(382,301,o),
(364,290,o),
(355,265,cs)
);
}
);
width = 355;
}
);
leftKerningGroup = r;
rightKerningGroup = A;
unicode = 115;
},
{
glyphname = t;
layers = (
{
anchors = (
{
name = b.uni0326_1_2;
position = "{156, 7}";
}
);
hints = (
{
horizontal = 1;
place = (-11,95);
type = Stem;
},
{
horizontal = 1;
place = (418,90);
type = Stem;
},
{
place = (5,108);
type = Stem;
},
{
place = (58,108);
type = Stem;
}
);
layerId = "E0442E84-B566-4B90-AE92-7C1FE943EFDC";
shapes = (
{
closed = 1;
nodes = (
(270,186,o),
(216,84,o),
(164,84,cs),
(132,84,o),
(113,102,o),
(113,168,cs),
(113,204,o),
(120,269,o),
(132,343,cs),
(135,359,o),
(138,383,o),
(142,411,c),
(179,406,o),
(205,400,o),
(218,400,cs),
(245,400,o),
(262,420,o),
(262,443,cs),
(262,463,o),
(249,485,o),
(217,491,cs),
(196,495,o),
(175,499,o),
(154,501,c),
(161,554,o),
(166,603,o),
(166,623,cs),
(166,657,o),
(140,674,o),
(114,674,cs),
(87,674,o),
(60,657,o),
(58,622,cs),
(56,590,o),
(52,550,o),
(46,508,c),
(39,508,ls),
(-1,508,o),
(-20,487,o),
(-20,463,cs),
(-20,439,o),
(-1,419,o),
(34,418,c),
(25,359,ls),
(14,289,o),
(5,218,o),
(5,173,cs),
(5,53,o),
(60,-11,o),
(156,-11,cs),
(248,-11,o),
(320,69,o),
(379,235,cs),
(382,244,o),
(383,252,o),
(383,259,cs),
(383,286,o),
(365,302,o),
(344,302,cs),
(327,302,o),
(308,291,o),
(299,265,cs)
);
}
);
width = 299;
}
);
leftKerningGroup = t;
rightKerningGroup = A;
unicode = 116;
},
{
glyphname = u;
layers = (
{
anchors = (
{
name = t.uni0302_2;
position = "{185, 407}";
}
);
hints = (
{
horizontal = 1;
place = (-7,95);
type = Stem;
},
{
horizontal = 1;
place = (430,-20);
target = down;
type = TopGhost;
},
{
place = (-1,107);
type = Stem;
},
{
place = (22,108);
type = Stem;
},
{
place = (258,109);
type = Stem;
}
);
layerId = "E0442E84-B566-4B90-AE92-7C1FE943EFDC";
shapes = (
{
closed = 1;
nodes = (
(438,167,o),
(399,88,o),
(374,88,cs),
(362,88,o),
(352,98,o),
(352,157,cs),
(352,238,o),
(361,309,o),
(368,372,cs),
(372,411,o),
(345,430,o),
(317,430,cs),
(292,430,o),
(267,415,o),
(263,383,cs),
(254,306,ls),
(236,155,o),
(183,88,o),
(139,88,cs),
(119,88,o),
(106,100,o),
(106,138,cs),
(106,191,o),
(130,285,o),
(130,351,cs),
(130,400,o),
(91,441,o),
(45,441,cs),
(17,441,o),
(-7,418,o),
(-7,390,cs),
(-7,360,o),
(22,351,o),
(22,331,cs),
(22,299,o),
(-1,204,o),
(-1,117,cs),
(-1,44,o),
(50,-7,o),
(122,-7,cs),
(179,-7,o),
(225,26,o),
(261,88,c),
(279,24,o),
(314,-7,o),
(362,-7,cs),
(445,-7,o),
(507,88,o),
(557,235,cs),
(560,244,o),
(561,252,o),
(561,259,cs),
(561,286,o),
(543,303,o),
(522,303,cs),
(505,303,o),
(487,291,o),
(477,265,cs)
);
}
);
width = 477;
}
);
leftKerningGroup = u;
rightKerningGroup = A;
unicode = 117;
},
{
glyphname = v;
layers = (
{
hints = (
{
horizontal = 1;
place = (-12,95);
type = Stem;
},
{
horizontal = 1;
place = (129,88);
type = Stem;
},
{
horizontal = 1;
place = (430,-20);
target = down;
type = TopGhost;
},
{
place = (4,107);
type = Stem;
},
{
place = (22,107);
type = Stem;
},
{
place = (224,138);
type = Stem;
}
);
layerId = "E0442E84-B566-4B90-AE92-7C1FE943EFDC";
shapes = (
{
closed = 1;
nodes = (
(421,235,o),
(399,217,o),
(376,217,cs),
(367,217,o),
(358,220,o),
(349,225,c),
(357,255,o),
(362,286,o),
(362,318,cs),
(362,397,o),
(331,433,o),
(297,433,cs),
(260,433,o),
(224,393,o),
(224,303,cs),
(224,271,o),
(230,243,o),
(241,220,c),
(215,132,o),
(156,83,o),
(132,83,cs),
(119,83,o),
(111,92,o),
(111,128,cs),
(111,204,o),
(129,265,o),
(129,373,cs),
(129,409,o),
(109,430,o),
(77,430,cs),
(44,430,o),
(22,405,o),
(22,371,cs),
(22,264,o),
(4,225,o),
(4,136,cs),
(4,34,o),
(44,-12,o),
(121,-12,cs),
(192,-12,o),
(269,52,o),
(317,142,c),
(336,134,o),
(356,129,o),
(377,129,cs),
(433,129,o),
(487,164,o),
(511,235,cs),
(514,243,o),
(515,251,o),
(515,258,cs),
(515,285,o),
(496,300,o),
(475,300,cs),
(458,300,o),
(440,289,o),
(431,265,cs)
);
}
);
width = 431;
}
);
leftKerningGroup = v;
rightKerningGroup = A;
unicode = 118;
},
{
glyphname = w;
layers = (
{
anchors = (
{
name = t.uni0302_2;
position = "{295, 407}";
}
);
hints = (
{
horizontal = 1;
place = (-16,96);
type = Stem;
},
{
horizontal = 1;
place = (-7,95);
type = Stem;
},
{
horizontal = 1;
place = (130,88);
type = Stem;
},
{
horizontal = 1;
place = (432,-20);
target = down;
type = TopGhost;
},
{
place = (-1,107);
type = Stem;
},
{
place = (22,107);
type = Stem;
},
{
place = (237,107);
type = Stem;
},
{
place = (433,138);
type = Stem;
}
);
layerId = "E0442E84-B566-4B90-AE92-7C1FE943EFDC";
shapes = (
{
closed = 1;
nodes = (
(632,234,o),
(611,218,o),
(590,218,cs),
(580,218,o),
(569,222,o),
(560,228,c),
(567,257,o),
(571,287,o),
(571,318,cs),
(571,397,o),
(537,435,o),
(503,435,cs),
(469,435,o),
(433,395,o),
(433,320,cs),
(433,284,o),
(440,253,o),
(452,226,c),
(430,150,o),
(383,88,o),
(350,88,cs),
(335,88,o),
(326,98,o),
(326,126,cs),
(326,170,o),
(344,236,o),
(344,339,cs),
(344,374,o),
(324,395,o),
(291,395,cs),
(259,395,o),
(237,371,o),
(237,337,cs),
(237,308,o),
(236,284,o),
(234,264,cs),
(221,156,o),
(176,80,o),
(137,80,cs),
(116,80,o),
(106,92,o),
(106,135,cs),
(106,202,o),
(129,297,o),
(129,366,cs),
(129,410,o),
(111,432,o),
(77,432,cs),
(43,432,o),
(22,409,o),
(22,366,cs),
(22,306,o),
(-1,196,o),
(-1,137,cs),
(-1,40,o),
(50,-16,o),
(115,-16,cs),
(161,-16,o),
(205,10,o),
(241,51,c),
(262,13,o),
(297,-7,o),
(337,-7,cs),
(405,-7,o),
(481,55,o),
(528,145,c),
(548,135,o),
(569,130,o),
(590,130,cs),
(646,130,o),
(698,163,o),
(723,235,cs),
(726,243,o),
(727,250,o),
(727,257,cs),
(727,285,o),
(707,302,o),
(686,302,cs),
(669,302,o),
(652,291,o),
(643,265,cs)
);
}
);
width = 643;
}
);
leftKerningGroup = v;
rightKerningGroup = A;
unicode = 119;
},
{
glyphname = x;
layers = (
{
hints = (
{
horizontal = 1;
place = (-13,95);
type = Stem;
},
{
horizontal = 1;
place = (-16,21);
target = up;
type = BottomGhost;
},
{
horizontal = 1;
place = (334,94);
type = Stem;
},
{
horizontal = 1;
place = (420,-20);
target = down;
type = TopGhost;
},
{
place = (-4,576);
type = Stem;
}
);
layerId = "E0442E84-B566-4B90-AE92-7C1FE943EFDC";
shapes = (
{
closed = 1;
nodes = (
(449,156,o),
(411,82,o),
(382,82,cs),
(363,82,o),
(346,108,o),
(326,157,cs),
(323,164,o),
(320,173,o),
(316,181,c),
(352,230,o),
(385,280,o),
(411,333,cs),
(418,347,o),
(421,360,o),
(421,372,cs),
(421,401,o),
(398,420,o),
(371,420,cs),
(350,420,o),
(331,405,o),
(317,377,cs),
(304,351,o),
(289,323,o),
(273,296,c),
(267,310,o),
(262,323,o),
(257,337,cs),
(233,399,o),
(195,428,o),
(142,428,cs),
(90,428,o),
(49,400,o),
(27,339,cs),
(0,265,ls),
(-3,257,o),
(-4,250,o),
(-4,244,cs),
(-4,217,o),
(16,201,o),
(38,201,cs),
(54,201,o),
(72,212,o),
(80,235,cs),
(87,255,o),
(93,274,o),
(99,290,cs),
(109,318,o),
(119,334,o),
(132,334,cs),
(150,334,o),
(158,308,o),
(181,246,cs),
(186,231,o),
(192,218,o),
(196,205,c),
(160,157,o),
(121,113,o),
(88,77,cs),
(75,63,o),
(68,47,o),
(68,33,cs),
(68,6,o),
(90,-16,o),
(116,-16,cs),
(133,-16,o),
(151,-5,o),
(170,16,cs),
(193,41,o),
(217,68,o),
(241,98,c),
(247,85,ls),
(275,23,o),
(317,-13,o),
(374,-13,cs),
(453,-13,o),
(505,51,o),
(568,235,cs),
(571,243,o),
(572,251,o),
(572,258,cs),
(572,286,o),
(553,302,o),
(532,302,cs),
(515,302,o),
(497,291,o),
(488,265,cs)
);
}
);
width = 488;
}
);
leftKerningGroup = r;
rightKerningGroup = A;
unicode = 120;
},
{
glyphname = y;
layers = (
{
anchors = (
{
name = t.uni0302_2;
position = "{190, 407}";
}
);
hints = (
{
horizontal = 1;
place = (-260,93);
type = Stem;
},
{
horizontal = 1;
place = (7,95);
type = Stem;
},
{
horizontal = 1;
place = (430,-20);
target = down;
type = TopGhost;
},
{
place = (-2,107);
type = Stem;
},
{
place = (22,108);
type = Stem;
},
{
place = (69,95);
type = Stem;
},
{
place = (243,107);
type = Stem;
}
);
layerId = "E0442E84-B566-4B90-AE92-7C1FE943EFDC";
shapes = (
{
closed = 1;
nodes = (
(432,199,o),
(397,130,o),
(350,81,c),
(350,88,o),
(351,95,o),
(351,102,c),
(358,185,o),
(366,286,o),
(372,371,cs),
(375,410,o),
(347,430,o),
(320,430,cs),
(294,430,o),
(268,413,o),
(266,380,c),
(263,351,o),
(261,319,o),
(258,286,c),
(241,155,o),
(189,102,o),
(142,102,cs),
(117,102,o),
(105,114,o),
(105,148,cs),
(105,199,o),
(130,290,o),
(130,356,cs),
(130,405,o),
(91,445,o),
(45,445,cs),
(15,445,o),
(-7,425,o),
(-7,397,cs),
(-7,365,o),
(22,360,o),
(22,337,cs),
(22,303,o),
(-2,212,o),
(-2,128,cs),
(-2,55,o),
(47,7,o),
(115,7,cs),
(164,7,o),
(206,30,o),
(243,72,c),
(241,49,o),
(240,28,o),
(239,9,c),
(150,-42,o),
(69,-79,o),
(69,-164,cs),
(69,-217,o),
(114,-260,o),
(174,-260,cs),
(274,-260,o),
(326,-158,o),
(340,-50,c),
(340,-47,o),
(341,-42,o),
(341,-36,c),
(431,25,o),
(495,115,o),
(536,235,cs),
(539,243,o),
(540,250,o),
(540,257,cs),
(540,285,o),
(521,302,o),
(500,302,cs),
(483,302,o),
(465,291,o),
(456,265,cs)
);
},
{
closed = 1;
nodes = (
(171,-167,o),
(164,-160,o),
(164,-149,cs),
(164,-131,o),
(191,-112,o),
(230,-89,c),
(222,-141,o),
(208,-167,o),
(185,-167,cs)
);
}
);
width = 456;
}
);
leftKerningGroup = u;
rightKerningGroup = A;
unicode = 121;
},
{
glyphname = z;
layers = (
{
anchors = (
{
name = t.uni0302_2;
position = "{213, 407}";
}
);
hints = (
{
horizontal = 1;
place = (-20,94);
type = Stem;
},
{
horizontal = 1;
place = (-4,90);
type = Stem;
},
{
horizontal = 1;
place = (-13,21);
target = up;
type = BottomGhost;
},
{
horizontal = 1;
place = (-4,21);
target = up;
type = BottomGhost;
},
{
horizontal = 1;
place = (301,94);
type = Stem;
},
{
place = (-3,510);
type = Stem;
}
);
layerId = "E0442E84-B566-4B90-AE92-7C1FE943EFDC";
shapes = (
{
closed = 1;
nodes = (
(391,174,o),
(327,74,o),
(283,74,cs),
(261,74,o),
(243,82,o),
(216,85,c),
(212,85,o),
(208,86,o),
(203,86,c),
(264,150,o),
(328,246,o),
(346,332,cs),
(348,340,o),
(349,346,o),
(349,356,cs),
(349,385,o),
(332,403,o),
(305,403,cs),
(288,403,o),
(269,395,o),
(245,395,cs),
(182,395,o),
(158,422,o),
(138,445,cs),
(123,462,o),
(109,477,o),
(86,477,cs),
(58,477,o),
(33,456,o),
(33,425,cs),
(33,416,o),
(36,398,o),
(38,388,c),
(28,348,o),
(17,313,o),
(0,265,cs),
(-2,258,o),
(-3,252,o),
(-3,246,cs),
(-3,219,o),
(18,201,o),
(39,201,cs),
(55,201,o),
(72,211,o),
(80,235,cs),
(91,267,o),
(102,302,o),
(113,337,c),
(143,320,o),
(187,307,o),
(226,301,c),
(181,196,o),
(114,133,o),
(66,90,cs),
(49,75,o),
(42,54,o),
(42,37,cs),
(42,9,o),
(66,-13,o),
(100,-13,cs),
(116,-13,o),
(147,-4,o),
(180,-4,cs),
(224,-4,o),
(250,-20,o),
(297,-20,cs),
(372,-20,o),
(457,101,o),
(503,235,cs),
(506,243,o),
(507,251,o),
(507,257,cs),
(507,285,o),
(488,301,o),
(467,301,cs),
(450,301,o),
(432,290,o),
(423,265,cs)
);
}
);
width = 423;
}
);
leftKerningGroup = r;
rightKerningGroup = A;
unicode = 122;
},
{
glyphname = braceleft;
layers = (
{
hints = (
{
horizontal = 1;
place = (-24,93);
type = Stem;
},
{
horizontal = 1;
place = (604,91);
type = Stem;
},
{
place = (124,104);
type = Stem;
},
{
place = (135,98);
type = Stem;
}
);
layerId = "E0442E84-B566-4B90-AE92-7C1FE943EFDC";
shapes = (
{
closed = 1;
nodes = (
(273,73,o),
(263,69,o),
(255,69,cs),
(236,69,o),
(225,88,o),
(225,124,cs),
(225,153,o),
(233,218,o),
(233,258,cs),
(233,299,o),
(209,323,o),
(192,337,c),
(207,350,o),
(228,372,o),
(228,418,cs),
(228,453,o),
(223,532,o),
(223,554,cs),
(223,586,o),
(233,604,o),
(253,604,cs),
(261,604,o),
(271,601,o),
(284,593,cs),
(295,586,o),
(305,584,o),
(315,584,cs),
(340,584,o),
(357,603,o),
(357,626,cs),
(357,642,o),
(349,658,o),
(330,671,cs),
(307,686,o),
(278,695,o),
(252,695,cs),
(170,695,o),
(124,637,o),
(124,548,cs),
(124,523,o),
(131,463,o),
(130,420,cs),
(129,398,o),
(117,392,o),
(107,387,cs),
(75,371,o),
(60,361,o),
(60,339,cs),
(60,315,o),
(77,305,o),
(107,291,cs),
(119,286,o),
(135,277,o),
(135,249,cs),
(135,208,o),
(126,157,o),
(126,130,cs),
(126,37,o),
(162,-24,o),
(253,-24,cs),
(280,-24,o),
(307,-14,o),
(329,3,cs),
(347,18,o),
(354,35,o),
(354,51,cs),
(354,74,o),
(338,93,o),
(315,93,cs),
(305,93,o),
(294,89,o),
(283,81,cs)
);
}
);
width = 398;
}
);
unicode = 123;
},
{
glyphname = bar;
layers = (
{
hints = (
{
horizontal = 1;
place = (-271,995);
type = Stem;
},
{
place = (66,107);
type = Stem;
}
);
layerId = "E0442E84-B566-4B90-AE92-7C1FE943EFDC";
shapes = (
{
closed = 1;
nodes = (
(134,-271,o),
(160,-253,o),
(161,-217,cs),
(165,-75,o),
(173,108,o),
(173,283,cs),
(173,416,o),
(169,552,o),
(158,669,cs),
(154,707,o),
(129,724,o),
(104,724,cs),
(77,724,o),
(50,703,o),
(50,668,cs),
(50,632,o),
(66,537,o),
(66,294,cs),
(66,119,o),
(54,-154,o),
(54,-213,cs),
(54,-252,o),
(81,-271,o),
(108,-271,cs)
);
}
);
width = 223;
}
);
unicode = 124;
},
{
glyphname = braceright;
layers = (
{
hints = (
{
horizontal = 1;
place = (-24,93);
type = Stem;
},
{
horizontal = 1;
place = (604,91);
type = Stem;
},
{
place = (165,107);
type = Stem;
},
{
place = (170,104);
type = Stem;
}
);
layerId = "E0442E84-B566-4B90-AE92-7C1FE943EFDC";
shapes = (
{
closed = 1;
nodes = (
(281,392,o),
(269,398,o),
(268,420,cs),
(266,463,o),
(274,523,o),
(274,548,cs),
(274,637,o),
(228,695,o),
(147,695,cs),
(120,695,o),
(91,686,o),
(68,671,cs),
(48,659,o),
(40,642,o),
(40,627,cs),
(40,604,o),
(58,584,o),
(84,584,cs),
(93,584,o),
(103,587,o),
(114,593,cs),
(127,601,o),
(137,604,o),
(145,604,cs),
(165,604,o),
(175,586,o),
(175,554,cs),
(175,532,o),
(170,453,o),
(170,418,cs),
(170,372,o),
(191,350,o),
(206,337,c),
(189,323,o),
(165,299,o),
(165,258,cs),
(165,218,o),
(173,153,o),
(173,124,cs),
(173,88,o),
(162,69,o),
(143,69,cs),
(135,69,o),
(125,73,o),
(115,81,cs),
(104,89,o),
(93,92,o),
(83,92,cs),
(60,92,o),
(44,73,o),
(44,50,cs),
(44,35,o),
(51,17,o),
(69,3,cs),
(91,-14,o),
(118,-24,o),
(146,-24,cs),
(236,-24,o),
(272,37,o),
(272,130,cs),
(272,158,o),
(261,213,o),
(263,255,cs),
(264,278,o),
(280,286,o),
(291,291,cs),
(321,305,o),
(338,315,o),
(338,339,cs),
(338,361,o),
(323,371,o),
(291,387,cs)
);
}
);
width = 398;
}
);
unicode = 125;
},
{
glyphname = asciitilde;
layers = (
{
hints = (
{
horizontal = 1;
place = (275,97);
type = Stem;
},
{
horizontal = 1;
place = (308,99);
type = Stem;
},
{
place = (30,323);
type = Stem;
}
);
layerId = "E0442E84-B566-4B90-AE92-7C1FE943EFDC";
shapes = (
{
closed = 1;
nodes = (
(260,378,o),
(253,372,o),
(244,372,cs),
(215,372,o),
(170,407,o),
(130,407,cs),
(100,407,o),
(67,390,o),
(43,359,cs),
(34,348,o),
(30,336,o),
(30,325,cs),
(30,299,o),
(51,277,o),
(76,277,cs),
(87,277,o),
(98,281,o),
(108,290,cs),
(120,301,o),
(127,308,o),
(139,308,cs),
(162,308,o),
(210,275,o),
(252,275,cs),
(288,275,o),
(321,294,o),
(343,332,cs),
(350,343,o),
(353,354,o),
(353,363,cs),
(353,390,o),
(332,408,o),
(307,408,cs),
(295,408,o),
(281,402,o),
(269,389,cs)
);
}
);
width = 383;
}
);
unicode = 126;
},
{
glyphname = exclamdown;
layers = (
{
hints = (
{
horizontal = 1;
place = (-257,21);
target = up;
type = BottomGhost;
},
{
horizontal = 1;
place = (366,133);
type = Stem;
},
{
place = (31,134);
type = Stem;
},
{
place = (55,108);
type = Stem;
}
);
layerId = "E0442E84-B566-4B90-AE92-7C1FE943EFDC";
shapes = (
{
closed = 1;
nodes = (
(61,499,o),
(31,470,o),
(31,432,cs),
(31,395,o),
(61,366,o),
(98,366,cs),
(135,366,o),
(165,395,o),
(165,432,cs),
(165,470,o),
(135,499,o),
(98,499,cs)
);
},
{
closed = 1;
nodes = (
(73,318,o),
(45,297,o),
(47,256,cs),
(51,180,o),
(55,94,o),
(55,-10,cs),
(55,-78,o),
(53,-140,o),
(49,-188,cs),
(46,-234,o),
(73,-257,o),
(101,-257,cs),
(127,-257,o),
(154,-237,o),
(156,-198,c),
(160,-145,o),
(163,-73,o),
(163,6,cs),
(163,87,o),
(160,176,o),
(154,262,cs),
(152,300,o),
(127,318,o),
(101,318,cs)
);
}
);
width = 195;
}
);
leftKerningGroup = colon;
unicode = 161;
},
{
glyphname = cent;
layers = (
{
hints = (
{
horizontal = 1;
place = (-12,21);
target = up;
type = BottomGhost;
},
{
horizontal = 1;
place = (-8,21);
target = up;
type = BottomGhost;
},
{
place = (25,107);
type = Stem;
},
{
place = (205,98);
type = Stem;
},
{
place = (342,102);
type = Stem;
}
);
layerId = "E0442E84-B566-4B90-AE92-7C1FE943EFDC";
shapes = (
{
closed = 1;
nodes = (
(476,276,o),
(457,265,o),
(443,238,cs),
(404,158,o),
(356,105,o),
(297,88,c),
(301,163,o),
(303,243,o),
(303,319,cs),
(303,356,o),
(302,391,o),
(301,425,c),
(326,417,o),
(342,398,o),
(342,369,cs),
(342,330,o),
(367,311,o),
(392,311,cs),
(419,311,o),
(444,333,o),
(444,375,cs),
(444,456,o),
(385,512,o),
(298,522,c),
(297,538,o),
(295,552,o),
(294,565,cs),
(290,600,o),
(267,618,o),
(243,618,cs),
(219,618,o),
(196,599,o),
(196,563,cs),
(196,558,o),
(198,542,o),
(200,514,c),
(92,479,o),
(25,364,o),
(25,233,cs),
(25,112,o),
(84,17,o),
(192,-8,c),
(191,-24,o),
(191,-37,o),
(191,-50,cs),
(191,-87,o),
(214,-108,o),
(239,-108,cs),
(261,-108,o),
(283,-90,o),
(287,-53,cs),
(289,-40,o),
(290,-26,o),
(291,-12,c),
(393,3,o),
(477,76,o),
(528,195,c),
(536,212,o),
(538,221,o),
(538,230,cs),
(538,258,o),
(518,276,o),
(495,276,cs)
);
},
{
closed = 1;
nodes = (
(132,321,o),
(163,379,o),
(205,408,c),
(205,385,o),
(206,360,o),
(205,333,cs),
(202,224,o),
(199,149,o),
(197,92,c),
(153,114,o),
(132,164,o),
(132,239,cs)
);
}
);
width = 570;
}
);
unicode = 162;
},
{
glyphname = sterling;
layers = (
{
hints = (
{
horizontal = 1;
place = (-18,98);
type = Stem;
},
{
horizontal = 1;
place = (-9,21);
target = up;
type = BottomGhost;
},
{
horizontal = 1;
place = (309,90);
type = Stem;
},
{
horizontal = 1;
place = (616,97);
type = Stem;
},
{
place = (98,105);
type = Stem;
},
{
place = (118,105);
type = Stem;
},
{
place = (366,102);
type = Stem;
}
);
layerId = "E0442E84-B566-4B90-AE92-7C1FE943EFDC";
shapes = (
{
closed = 1;
nodes = (
(399,204,o),
(376,190,o),
(371,157,cs),
(363,109,o),
(342,80,o),
(309,80,cs),
(283,80,o),
(231,102,o),
(203,110,c),
(215,136,o),
(223,167,o),
(223,205,cs),
(223,232,o),
(219,269,o),
(215,309,c),
(249,309,ls),
(285,309,o),
(303,331,o),
(303,353,cs),
(303,376,o),
(285,399,o),
(249,399,cs),
(205,399,l),
(204,418,o),
(203,435,o),
(203,451,cs),
(203,557,o),
(246,616,o),
(301,616,cs),
(339,616,o),
(366,592,o),
(366,561,cs),
(366,539,o),
(354,530,o),
(354,506,cs),
(354,477,o),
(377,457,o),
(402,457,cs),
(421,457,o),
(440,467,o),
(451,492,cs),
(461,515,o),
(468,544,o),
(468,569,cs),
(468,653,o),
(399,713,o),
(296,713,cs),
(183,713,o),
(98,617,o),
(98,451,cs),
(98,435,o),
(99,417,o),
(100,400,c),
(66,400,o),
(48,378,o),
(48,356,cs),
(48,333,o),
(66,310,o),
(101,310,cs),
(109,310,l),
(114,270,o),
(118,234,o),
(118,205,cs),
(118,152,o),
(107,136,o),
(48,99,c),
(27,87,o),
(19,68,o),
(19,50,cs),
(19,21,o),
(42,-9,o),
(73,-9,cs),
(83,-9,o),
(94,-6,o),
(105,1,cs),
(121,10,o),
(140,23,o),
(151,23,cs),
(182,23,o),
(250,-18,o),
(309,-18,cs),
(412,-18,o),
(473,73,o),
(473,152,cs),
(473,185,o),
(448,204,o),
(422,204,cs)
);
}
);
width = 491;
}
);
unicode = 163;
},
{
glyphname = currency;
layers = (
{
hints = (
{
horizontal = 1;
place = (-9,21);
target = up;
type = BottomGhost;
},
{
horizontal = 1;
place = (-6,21);
target = up;
type = BottomGhost;
},
{
horizontal = 1;
place = (43,96);
type = Stem;
},
{
horizontal = 1;
place = (457,97);
type = Stem;
},
{
place = (23,104);
type = Stem;
},
{
place = (342,104);
type = Stem;
}
);
layerId = "E0442E84-B566-4B90-AE92-7C1FE943EFDC";
shapes = (
{
closed = 1;
nodes = (
(396,131,l),
(428,178,o),
(446,240,o),
(446,307,cs),
(446,371,o),
(429,428,o),
(398,471,c),
(421,499,ls),
(432,513,o),
(437,527,o),
(437,540,cs),
(437,567,o),
(414,588,o),
(388,588,cs),
(372,588,o),
(356,581,o),
(342,564,cs),
(320,537,l),
(295,548,o),
(268,554,o),
(238,554,cs),
(206,554,o),
(177,547,o),
(151,534,c),
(126,562,ls),
(112,577,o),
(96,584,o),
(82,584,cs),
(55,584,o),
(32,562,o),
(32,534,cs),
(32,521,o),
(37,506,o),
(50,492,cs),
(74,466,l),
(41,420,o),
(23,359,o),
(23,292,cs),
(23,228,o),
(39,171,o),
(69,128,c),
(35,82,ls),
(25,69,o),
(20,55,o),
(20,43,cs),
(20,15,o),
(43,-6,o),
(69,-6,cs),
(85,-6,o),
(103,2,o),
(117,21,cs),
(148,61,l),
(173,49,o),
(201,43,o),
(233,43,cs),
(264,43,o),
(292,50,o),
(318,62,c),
(350,18,ls),
(364,-1,o),
(381,-9,o),
(396,-9,cs),
(424,-9,o),
(448,14,o),
(448,43,cs),
(448,54,o),
(444,67,o),
(434,80,cs)
);
},
{
closed = 1;
nodes = (
(167,139,o),
(127,204,o),
(127,291,cs),
(127,383,o),
(171,457,o),
(238,457,cs),
(303,457,o),
(342,392,o),
(342,305,cs),
(342,213,o),
(298,139,o),
(233,139,cs)
);
}
);
width = 470;
}
);
unicode = 164;
},
{
glyphname = yen;
layers = (
{
hints = (
{
horizontal = 1;
place = (-16,21);
target = up;
type = BottomGhost;
},
{
horizontal = 1;
place = (125,87);
type = Stem;
},
{
horizontal = 1;
place = (251,87);
type = Stem;
},
{
place = (18,424);
type = Stem;
},
{
place = (128,111);
type = Stem;
},
{
place = (153,105);
type = Stem;
}
);
layerId = "E0442E84-B566-4B90-AE92-7C1FE943EFDC";
shapes = (
{
closed = 1;
nodes = (
(442,668,o),
(417,689,o),
(392,689,cs),
(373,689,o),
(354,678,o),
(341,652,cs),
(304,579,o),
(255,478,o),
(215,400,c),
(183,464,o),
(149,562,o),
(125,646,cs),
(115,680,o),
(92,694,o),
(70,694,cs),
(43,694,o),
(18,674,o),
(18,641,cs),
(18,596,o),
(75,444,o),
(132,338,c),
(109,338,ls),
(73,338,o),
(54,316,o),
(54,295,cs),
(54,273,o),
(73,251,o),
(109,251,cs),
(153,251,l),
(151,237,o),
(150,225,o),
(148,214,c),
(107,214,ls),
(71,214,o),
(52,192,o),
(52,170,cs),
(52,149,o),
(71,127,o),
(107,127,cs),
(138,127,l),
(131,71,o),
(128,49,o),
(128,38,cs),
(128,3,o),
(153,-16,o),
(180,-16,cs),
(205,-16,o),
(230,0,o),
(234,34,cs),
(245,126,l),
(301,125,l),
(337,125,o),
(355,146,o),
(355,168,cs),
(355,190,o),
(337,212,o),
(302,212,cs),
(256,212,l),
(261,250,l),
(315,249,l),
(351,249,o),
(368,270,o),
(368,292,cs),
(368,314,o),
(351,336,o),
(316,336,cs),
(292,336,l),
(342,429,o),
(391,524,o),
(433,603,cs),
(439,615,o),
(442,626,o),
(442,637,cs)
);
}
);
width = 466;
}
);
unicode = 165;
},
{
glyphname = brokenbar;
layers = (
{
hints = (
{
horizontal = 1;
place = (-273,998);
type = Stem;
},
{
place = (54,119);
type = Stem;
}
);
layerId = "E0442E84-B566-4B90-AE92-7C1FE943EFDC";
shapes = (
{
closed = 1;
nodes = (
(146,272,o),
(173,291,o),
(173,331,cs),
(173,450,o),
(168,566,o),
(158,670,cs),
(154,708,o),
(128,725,o),
(103,725,cs),
(77,725,o),
(50,706,o),
(50,670,cs),
(50,634,o),
(66,572,o),
(66,330,cs),
(66,291,o),
(93,272,o),
(120,272,cs)
);
},
{
closed = 1;
nodes = (
(134,-273,o),
(160,-255,o),
(161,-218,cs),
(163,-133,o),
(173,25,o),
(173,116,cs),
(173,156,o),
(146,176,o),
(119,176,cs),
(93,176,o),
(66,157,o),
(66,118,c),
(65,49,o),
(54,-175,o),
(54,-216,cs),
(54,-253,o),
(80,-273,o),
(108,-273,cs)
);
}
);
width = 223;
}
);
unicode = 166;
},
{
glyphname = section;
layers = (
{
hints = (
{
horizontal = 1;
place = (-20,95);
type = Stem;
},
{
horizontal = 1;
place = (602,96);
type = Stem;
},
{
place = (32,100);
type = Stem;
},
{
place = (57,99);
type = Stem;
},
{
place = (69,100);
type = Stem;
},
{
place = (238,100);
type = Stem;
},
{
place = (249,98);
type = Stem;
}
);
layerId = "E0442E84-B566-4B90-AE92-7C1FE943EFDC";
shapes = (
{
closed = 1;
nodes = (
(347,462,o),
(169,516,o),
(169,576,cs),
(169,593,o),
(182,602,o),
(199,602,cs),
(217,602,o),
(238,593,o),
(255,573,cs),
(266,559,o),
(279,553,o),
(292,553,cs),
(317,553,o),
(339,575,o),
(339,601,cs),
(339,612,o),
(335,624,o),
(326,635,cs),
(293,676,o),
(245,698,o),
(197,698,cs),
(128,698,o),
(69,654,o),
(69,581,cs),
(69,542,o),
(85,511,o),
(108,485,c),
(75,458,o),
(57,422,o),
(57,381,cs),
(57,262,o),
(238,203,o),
(238,127,cs),
(238,93,o),
(214,75,o),
(186,75,cs),
(158,75,o),
(132,94,o),
(132,126,cs),
(132,136,o),
(137,156,o),
(137,165,cs),
(137,194,o),
(113,210,o),
(89,210,cs),
(48,210,o),
(32,168,o),
(32,124,cs),
(32,33,o),
(107,-20,o),
(188,-20,cs),
(267,-20,o),
(338,30,o),
(338,122,cs),
(338,158,o),
(326,189,o),
(307,216,c),
(333,249,o),
(347,286,o),
(347,323,cs)
);
},
{
closed = 1;
nodes = (
(156,397,o),
(162,411,o),
(176,423,c),
(215,391,o),
(249,362,o),
(249,322,cs),
(249,307,o),
(247,295,o),
(242,285,c),
(198,322,o),
(156,352,o),
(156,382,cs)
);
}
);
width = 379;
}
);
unicode = 167;
},
{
glyphname = dieresis;
layers = (
{
hints = (
{
horizontal = 1;
place = (763,115);
type = Stem;
},
{
place = (31,115);
type = Stem;
},
{
place = (185,115);
type = Stem;
}
);
layerId = "E0442E84-B566-4B90-AE92-7C1FE943EFDC";
shapes = (
{
closed = 1;
nodes = (
(120,763,o),
(146,789,o),
(146,821,cs),
(146,852,o),
(120,878,o),
(89,878,cs),
(57,878,o),
(31,852,o),
(31,821,cs),
(31,789,o),
(57,763,o),
(89,763,cs)
);
},
{
closed = 1;
nodes = (
(274,763,o),
(300,789,o),
(300,821,cs),
(300,852,o),
(274,878,o),
(243,878,cs),
(211,878,o),
(185,852,o),
(185,821,cs),
(185,789,o),
(211,763,o),
(243,763,cs)
);
}
);
width = 338;
}
);
unicode = 168;
},
{
glyphname = copyright;
layers = (
{
hints = (
{
horizontal = 1;
place = (32,94);
type = Stem;
},
{
horizontal = 1;
place = (163,88);
type = Stem;
},
{
horizontal = 1;
place = (403,85);
type = Stem;
},
{
horizontal = 1;
place = (524,93);
type = Stem;
},
{
place = (29,100);
type = Stem;
},
{
place = (184,91);
type = Stem;
},
{
place = (341,82);
type = Stem;
},
{
place = (512,100);
type = Stem;
}
);
layerId = "E0442E84-B566-4B90-AE92-7C1FE943EFDC";
shapes = (
{
closed = 1;
nodes = (
(146,617,o),
(29,465,o),
(29,305,cs),
(29,157,o),
(124,32,o),
(312,32,cs),
(502,32,o),
(612,186,o),
(612,348,cs),
(612,491,o),
(518,617,o),
(344,617,cs)
);
},
{
closed = 1;
nodes = (
(453,524,o),
(512,441,o),
(512,345,cs),
(512,230,o),
(441,126,o),
(313,126,cs),
(191,126,o),
(129,207,o),
(129,306,cs),
(129,420,o),
(206,524,o),
(343,524,cs)
);
},
{
closed = 1;
nodes = (
(370,263,o),
(349,251,o),
(326,251,cs),
(295,251,o),
(275,279,o),
(275,323,cs),
(275,366,o),
(295,403,o),
(322,403,cs),
(335,403,o),
(341,396,o),
(341,382,cs),
(341,357,o),
(360,343,o),
(379,343,cs),
(400,343,o),
(423,359,o),
(423,391,cs),
(423,447,o),
(381,488,o),
(322,488,cs),
(240,488,o),
(184,409,o),
(184,316,cs),
(184,224,o),
(243,163,o),
(322,163,cs),
(371,163,o),
(418,186,o),
(453,235,cs),
(461,247,o),
(464,258,o),
(464,269,cs),
(464,292,o),
(446,310,o),
(425,310,cs),
(412,310,o),
(399,302,o),
(388,287,cs)
);
}
);
width = 644;
}
);
unicode = 169;
},
{
glyphname = guillemotleft;
layers = (
{
hints = (
{
horizontal = 1;
place = (142,294);
type = Stem;
},
{
place = (29,373);
type = Stem;
}
);
layerId = "E0442E84-B566-4B90-AE92-7C1FE943EFDC";
shapes = (
{
closed = 1;
nodes = (
(210,165,o),
(215,178,o),
(215,191,cs),
(215,204,o),
(210,218,o),
(200,230,cs),
(187,246,o),
(165,272,o),
(154,287,cs),
(150,293,o),
(147,295,o),
(147,298,cs),
(147,300,o),
(150,303,o),
(155,309,cs),
(165,321,o),
(183,336,o),
(194,348,cs),
(207,361,o),
(214,377,o),
(214,392,cs),
(214,403,o),
(210,413,o),
(203,421,cs),
(194,431,o),
(182,436,o),
(170,436,cs),
(156,436,o),
(142,430,o),
(129,419,cs),
(91,386,o),
(53,347,o),
(37,320,cs),
(31,311,o),
(29,304,o),
(29,298,cs),
(29,291,o),
(31,285,o),
(36,276,cs),
(52,247,o),
(88,202,o),
(127,164,cs),
(141,150,o),
(157,142,o),
(171,142,cs),
(182,142,o),
(191,146,o),
(200,155,cs)
);
},
{
closed = 1;
nodes = (
(397,165,o),
(402,178,o),
(402,191,cs),
(402,204,o),
(397,218,o),
(387,230,cs),
(374,246,o),
(352,272,o),
(341,287,cs),
(337,293,o),
(334,296,o),
(334,298,cs),
(334,301,o),
(337,303,o),
(342,309,cs),
(352,320,o),
(370,336,o),
(381,348,cs),
(394,361,o),
(401,377,o),
(401,392,cs),
(401,403,o),
(397,413,o),
(390,421,cs),
(381,431,o),
(369,436,o),
(357,436,cs),
(343,436,o),
(329,430,o),
(316,419,cs),
(278,386,o),
(241,347,o),
(224,320,cs),
(218,311,o),
(216,304,o),
(216,298,cs),
(216,291,o),
(218,285,o),
(223,276,cs),
(239,248,o),
(275,202,o),
(314,164,cs),
(328,150,o),
(344,142,o),
(358,142,cs),
(369,142,o),
(378,146,o),
(387,155,cs)
);
}
);
width = 427;
}
);
leftKerningGroup = guillemotleft2;
rightKerningGroup = guillemotleft;
unicode = 171;
},
{
glyphname = logicalnot;
layers = (
{
hints = (
{
horizontal = 1;
place = (289,99);
type = Stem;
},
{
place = (276,101);
type = Stem;
}
);
layerId = "E0442E84-B566-4B90-AE92-7C1FE943EFDC";
shapes = (
{
closed = 1;
nodes = (
(377,335,ls),
(377,366,o),
(356,388,o),
(324,388,cs),
(87,388,ls),
(50,388,o),
(31,363,o),
(31,338,cs),
(31,314,o),
(50,289,o),
(87,289,cs),
(264,289,ls),
(272,289,o),
(276,284,o),
(276,276,cs),
(276,254,ls),
(276,216,o),
(302,198,o),
(326,198,cs),
(352,198,o),
(377,216,o),
(377,254,cs)
);
}
);
width = 408;
}
);
unicode = 172;
},
{
glyphname = uni00AD;
layers = (
{
hints = (
{
horizontal = 1;
place = (219,92);
type = Stem;
},
{
place = (100,279);
type = Stem;
}
);
layerId = "E0442E84-B566-4B90-AE92-7C1FE943EFDC";
shapes = (
{
closed = 1;
nodes = (
(363,219,o),
(379,241,o),
(379,264,cs),
(379,286,o),
(362,309,o),
(331,309,c),
(270,310,o),
(208,311,o),
(148,311,cs),
(116,311,o),
(100,289,o),
(100,266,cs),
(100,243,o),
(117,221,o),
(149,221,c),
(210,220,o),
(272,219,o),
(332,219,cs)
);
}
);
width = 456;
}
);
unicode = 173;
},
{
glyphname = registered;
layers = (
{
hints = (
{
horizontal = 1;
place = (262,75);
type = Stem;
},
{
horizontal = 1;
place = (446,49);
type = Stem;
},
{
horizontal = 1;
place = (546,55);
type = Stem;
},
{
horizontal = 1;
place = (632,75);
type = Stem;
},
{
place = (31,85);
type = Stem;
},
{
place = (183,61);
type = Stem;
},
{
place = (281,56);
type = Stem;
},
{
place = (394,85);
type = Stem;
}
);
layerId = "E0442E84-B566-4B90-AE92-7C1FE943EFDC";
shapes = (
{
closed = 1;
nodes = (
(112,707,o),
(31,589,o),
(31,474,cs),
(31,366,o),
(102,262,o),
(252,262,cs),
(401,262,o),
(479,380,o),
(479,494,cs),
(479,603,o),
(410,707,o),
(266,707,cs)
);
},
{
closed = 1;
nodes = (
(160,337,o),
(116,406,o),
(116,478,cs),
(116,554,o),
(168,632,o),
(266,632,cs),
(353,632,o),
(394,564,o),
(394,494,cs),
(394,417,o),
(346,337,o),
(255,337,cs)
);
},
{
closed = 1;
nodes = (
(337,565,o),
(308,601,o),
(254,601,cs),
(232,601,o),
(206,589,o),
(186,574,c),
(180,413,ls),
(179,389,o),
(195,376,o),
(210,376,cs),
(225,376,o),
(239,388,o),
(240,410,cs),
(241,447,l),
(245,446,o),
(249,446,o),
(253,446,cs),
(256,446,l),
(260,430,o),
(267,412,o),
(280,397,cs),
(289,385,o),
(299,381,o),
(308,381,cs),
(324,381,o),
(336,393,o),
(336,409,cs),
(336,416,o),
(334,424,o),
(329,432,cs),
(322,442,o),
(316,452,o),
(310,466,c),
(327,481,o),
(337,503,o),
(337,525,cs)
);
},
{
closed = 1;
nodes = (
(245,541,l),
(249,544,o),
(255,546,o),
(260,546,cs),
(274,546,o),
(281,535,o),
(281,523,cs),
(281,508,o),
(273,495,o),
(258,495,cs),
(253,495,o),
(248,496,o),
(243,498,c)
);
}
);
width = 510;
}
);
unicode = 174;
},
{
glyphname = macron;
layers = (
{
hints = (
{
horizontal = 1;
place = (775,96);
type = Stem;
},
{
place = (30,254);
type = Stem;
}
);
layerId = "E0442E84-B566-4B90-AE92-7C1FE943EFDC";
shapes = (
{
closed = 1;
nodes = (
(228,773,ls),
(265,772,o),
(284,797,o),
(284,821,cs),
(284,846,o),
(265,871,o),
(228,871,c),
(87,873,ls),
(49,874,o),
(30,849,o),
(30,824,cs),
(30,800,o),
(48,775,o),
(87,775,c)
);
}
);
width = 315;
}
);
unicode = 175;
},
{
glyphname = degree;
layers = (
{
hints = (
{
horizontal = 1;
place = (459,85);
type = Stem;
},
{
horizontal = 1;
place = (604,86);
type = Stem;
},
{
place = (25,90);
type = Stem;
},
{
place = (175,89);
type = Stem;
}
);
layerId = "E0442E84-B566-4B90-AE92-7C1FE943EFDC";
shapes = (
{
closed = 1;
nodes = (
(215,459,o),
(264,522,o),
(264,587,cs),
(264,642,o),
(227,690,o),
(156,690,cs),
(75,690,o),
(25,626,o),
(25,562,cs),
(25,506,o),
(62,459,o),
(135,459,cs)
);
},
{
closed = 1;
nodes = (
(123,544,o),
(115,556,o),
(115,569,cs),
(115,585,o),
(127,604,o),
(149,604,cs),
(167,604,o),
(175,593,o),
(175,579,cs),
(175,563,o),
(162,544,o),
(141,544,cs)
);
}
);
width = 288;
}
);
unicode = 176;
},
{
glyphname = plusminus;
layers = (
{
hints = (
{
horizontal = 1;
place = (141,90);
type = Stem;
},
{
horizontal = 1;
place = (353,90);
type = Stem;
},
{
place = (165,99);
type = Stem;
}
);
layerId = "E0442E84-B566-4B90-AE92-7C1FE943EFDC";
shapes = (
{
closed = 1;
nodes = (
(163,353,l),
(163,319,ls),
(163,283,o),
(187,266,o),
(212,266,cs),
(238,266,o),
(263,283,o),
(263,319,cs),
(263,352,l),
(315,352,ls),
(351,352,o),
(369,375,o),
(369,397,cs),
(369,420,o),
(351,442,o),
(315,442,cs),
(264,442,l),
(264,494,ls),
(264,528,o),
(239,545,o),
(214,545,cs),
(190,545,o),
(165,528,o),
(165,495,c),
(164,443,l),
(109,443,ls),
(75,443,o),
(59,421,o),
(59,398,cs),
(59,376,o),
(75,353,o),
(109,353,cs)
);
},
{
closed = 1;
nodes = (
(109,232,l),
(75,232,o),
(59,209,o),
(59,187,cs),
(59,164,o),
(75,142,o),
(109,142,c),
(315,141,l),
(351,141,o),
(369,163,o),
(369,186,cs),
(369,208,o),
(351,231,o),
(315,231,c)
);
}
);
width = 400;
}
);
unicode = 177;
},
{
glyphname = uni00B2;
layers = (
{
hints = (
{
horizontal = 1;
place = (361,82);
type = Stem;
},
{
horizontal = 1;
place = (641,86);
type = Stem;
},
{
place = (38,79);
type = Stem;
},
{
place = (150,84);
type = Stem;
}
);
layerId = "E0442E84-B566-4B90-AE92-7C1FE943EFDC";
shapes = (
{
closed = 1;
nodes = (
(250,361,o),
(295,414,o),
(295,460,cs),
(295,484,o),
(275,500,o),
(256,500,cs),
(242,500,o),
(229,492,o),
(221,475,cs),
(210,451,o),
(200,443,o),
(189,443,cs),
(183,443,o),
(169,446,o),
(160,448,c),
(196,496,o),
(234,561,o),
(234,617,cs),
(234,684,o),
(190,727,o),
(135,727,cs),
(80,727,o),
(38,686,o),
(38,623,cs),
(38,593,o),
(59,578,o),
(79,578,cs),
(98,578,o),
(117,591,o),
(117,619,cs),
(117,633,o),
(126,641,o),
(134,641,cs),
(142,641,o),
(150,633,o),
(150,617,cs),
(150,565,o),
(122,499,o),
(78,462,cs),
(72,457,o),
(67,453,o),
(57,449,cs),
(34,440,o),
(23,424,o),
(23,406,cs),
(23,383,o),
(40,361,o),
(63,361,cs),
(80,361,o),
(92,374,o),
(111,374,cs),
(134,374,o),
(171,361,o),
(199,361,cs)
);
}
);
width = 313;
}
);
leftKerningGroup = onehalf;
unicode = 178;
},
{
glyphname = uni00B3;
layers = (
{
hints = (
{
horizontal = 1;
place = (359,81);
type = Stem;
},
{
horizontal = 1;
place = (648,80);
type = Stem;
},
{
place = (155,80);
type = Stem;
},
{
place = (169,85);
type = Stem;
}
);
layerId = "E0442E84-B566-4B90-AE92-7C1FE943EFDC";
shapes = (
{
closed = 1;
nodes = (
(221,578,o),
(235,608,o),
(235,638,cs),
(235,688,o),
(198,728,o),
(135,728,cs),
(78,728,o),
(25,686,o),
(25,628,cs),
(25,601,o),
(43,586,o),
(64,586,cs),
(81,586,o),
(100,598,o),
(105,624,cs),
(108,641,o),
(120,648,o),
(131,648,cs),
(146,648,o),
(155,638,o),
(155,623,cs),
(155,605,o),
(145,586,o),
(124,580,cs),
(105,575,o),
(97,559,o),
(97,545,cs),
(97,528,o),
(109,511,o),
(132,511,cs),
(157,511,o),
(169,494,o),
(169,476,cs),
(169,453,o),
(154,440,o),
(136,440,cs),
(124,440,o),
(109,447,o),
(97,463,cs),
(87,477,o),
(74,481,o),
(62,481,cs),
(41,481,o),
(22,463,o),
(22,440,cs),
(22,397,o),
(80,359,o),
(134,359,cs),
(214,359,o),
(254,411,o),
(254,463,cs),
(254,500,o),
(234,537,o),
(195,557,c)
);
}
);
width = 277;
}
);
unicode = 179;
},
{
glyphname = acute;
layers = (
{
hints = (
{
horizontal = 1;
place = (754,174);
type = Stem;
},
{
place = (32,170);
type = Stem;
}
);
layerId = "E0442E84-B566-4B90-AE92-7C1FE943EFDC";
shapes = (
{
closed = 1;
nodes = (
(51,843,ls),
(37,829,o),
(32,814,o),
(32,800,cs),
(32,775,o),
(52,754,o),
(78,754,cs),
(91,754,o),
(106,760,o),
(120,774,cs),
(182,839,ls),
(196,853,o),
(202,869,o),
(202,882,cs),
(202,908,o),
(181,928,o),
(156,928,cs),
(142,928,o),
(126,922,o),
(112,907,cs)
);
}
);
width = 234;
}
);
unicode = 180;
},
{
glyphname = paragraph;
layers = (
{
hints = (
{
horizontal = 1;
place = (-21,99);
type = Stem;
},
{
horizontal = 1;
place = (566,99);
type = Stem;
},
{
horizontal = 1;
place = (600,105);
type = Stem;
},
{
place = (30,232);
type = Stem;
},
{
place = (308,106);
type = Stem;
}
);
layerId = "E0442E84-B566-4B90-AE92-7C1FE943EFDC";
shapes = (
{
closed = 1;
nodes = (
(473,669,o),
(453,665,o),
(442,665,cs),
(386,665,o),
(286,705,o),
(211,705,cs),
(103,705,o),
(30,624,o),
(30,493,cs),
(30,312,o),
(60,242,o),
(148,242,cs),
(240,242,o),
(262,314,o),
(262,579,cs),
(262,593,o),
(269,600,o),
(282,600,cs),
(289,600,o),
(298,598,o),
(308,596,c),
(307,539,o),
(304,429,o),
(299,280,cs),
(295,152,o),
(264,78,o),
(223,78,cs),
(200,78,o),
(182,101,o),
(169,141,cs),
(160,170,o),
(138,182,o),
(118,182,cs),
(92,182,o),
(68,163,o),
(68,132,cs),
(68,69,o),
(128,-21,o),
(218,-21,cs),
(332,-21,o),
(396,86,o),
(406,276,cs),
(410,344,o),
(412,471,o),
(414,569,c),
(426,567,o),
(439,566,o),
(452,566,cs),
(494,566,o),
(530,581,o),
(530,622,cs),
(530,646,o),
(513,669,o),
(483,669,cs)
);
}
);
width = 480;
}
);
unicode = 182;
},
{
glyphname = periodcentered;
layers = (
{
hints = (
{
horizontal = 1;
place = (243,133);
type = Stem;
},
{
place = (30,133);
type = Stem;
}
);
layerId = "E0442E84-B566-4B90-AE92-7C1FE943EFDC";
shapes = (
{
closed = 1;
nodes = (
(134,243,o),
(163,272,o),
(163,310,cs),
(163,346,o),
(134,376,o),
(97,376,cs),
(59,376,o),
(30,346,o),
(30,310,cs),
(30,272,o),
(59,243,o),
(97,243,cs)
);
}
);
width = 193;
}
);
unicode = 183;
},
{
glyphname = cedilla;
layers = (
{
hints = (
{
horizontal = 1;
place = (-221,87);
type = Stem;
},
{
place = (30,187);
type = Stem;
},
{
place = (129,88);
type = Stem;
}
);
layerId = "E0442E84-B566-4B90-AE92-7C1FE943EFDC";
shapes = (
{
closed = 1;
nodes = (
(76,-215,o),
(97,-221,o),
(118,-221,cs),
(181,-221,o),
(217,-174,o),
(217,-129,cs),
(217,-106,o),
(208,-84,o),
(188,-68,cs),
(178,-60,o),
(167,-52,o),
(167,-44,cs),
(167,-38,o),
(170,-30,o),
(174,-19,cs),
(176,-14,o),
(177,-9,o),
(177,-5,cs),
(177,16,o),
(159,29,o),
(140,29,cs),
(123,29,o),
(104,19,o),
(95,-3,cs),
(85,-27,o),
(81,-46,o),
(81,-61,cs),
(81,-78,o),
(93,-90,o),
(115,-104,cs),
(125,-110,o),
(129,-116,o),
(129,-122,cs),
(129,-129,o),
(123,-134,o),
(113,-134,cs),
(107,-134,o),
(98,-132,o),
(89,-127,cs),
(81,-123,o),
(74,-121,o),
(67,-121,cs),
(45,-121,o),
(30,-140,o),
(30,-161,cs),
(30,-176,o),
(38,-193,o),
(58,-204,cs)
);
}
);
width = 249;
}
);
unicode = 184;
},
{
glyphname = uni00B9;
layers = (
{
hints = (
{
horizontal = 1;
place = (361,363);
type = Stem;
},
{
place = (15,171);
type = Stem;
}
);
layerId = "E0442E84-B566-4B90-AE92-7C1FE943EFDC";
shapes = (
{
closed = 1;
nodes = (
(146,361,o),
(166,375,o),
(170,408,cs),
(179,481,o),
(186,579,o),
(186,657,cs),
(186,675,o),
(181,692,o),
(174,704,cs),
(167,716,o),
(156,724,o),
(142,724,cs),
(123,724,o),
(104,714,o),
(92,689,cs),
(82,668,o),
(60,645,o),
(37,628,cs),
(22,617,o),
(15,603,o),
(15,590,cs),
(15,569,o),
(32,551,o),
(53,551,cs),
(68,551,o),
(85,562,o),
(99,579,c),
(97,515,o),
(83,439,o),
(83,409,cs),
(83,378,o),
(104,361,o),
(126,361,cs)
);
}
);
width = 207;
}
);
leftKerningGroup = uni00B9;
unicode = 185;
},
{
glyphname = guillemotright;
layers = (
{
hints = (
{
horizontal = 1;
place = (143,293);
type = Stem;
},
{
place = (55,373);
type = Stem;
}
);
layerId = "E0442E84-B566-4B90-AE92-7C1FE943EFDC";
shapes = (
{
closed = 1;
nodes = (
(79,147,o),
(90,143,o),
(100,143,cs),
(115,143,o),
(130,150,o),
(144,164,cs),
(182,202,o),
(220,247,o),
(234,276,cs),
(239,286,o),
(241,292,o),
(241,298,cs),
(241,305,o),
(239,311,o),
(233,320,cs),
(216,347,o),
(179,386,o),
(141,419,cs),
(128,430,o),
(114,436,o),
(100,436,cs),
(88,436,o),
(76,431,o),
(67,421,cs),
(59,413,o),
(56,402,o),
(56,391,cs),
(56,376,o),
(63,361,o),
(76,348,cs),
(88,337,o),
(105,320,o),
(115,309,cs),
(121,303,o),
(123,301,o),
(123,298,cs),
(123,296,o),
(121,293,o),
(116,287,cs),
(105,272,o),
(83,246,o),
(71,230,cs),
(61,217,o),
(55,202,o),
(55,188,cs),
(55,176,o),
(60,164,o),
(70,155,cs)
);
},
{
closed = 1;
nodes = (
(266,147,o),
(277,143,o),
(287,143,cs),
(302,143,o),
(317,150,o),
(331,164,cs),
(369,202,o),
(406,247,o),
(421,276,cs),
(426,285,o),
(428,292,o),
(428,298,cs),
(428,305,o),
(426,311,o),
(420,320,cs),
(403,347,o),
(366,386,o),
(328,419,cs),
(315,430,o),
(301,436,o),
(287,436,cs),
(275,436,o),
(263,431,o),
(254,421,cs),
(246,413,o),
(243,402,o),
(243,391,cs),
(243,376,o),
(250,361,o),
(263,348,cs),
(275,337,o),
(292,320,o),
(302,309,cs),
(307,303,o),
(310,301,o),
(310,298,cs),
(310,296,o),
(307,293,o),
(303,287,cs),
(293,272,o),
(270,246,o),
(258,230,cs),
(248,217,o),
(242,202,o),
(242,188,cs),
(242,176,o),
(247,164,o),
(257,155,cs)
);
}
);
width = 453;
}
);
leftKerningGroup = guillemotright;
unicode = 187;
},
{
glyphname = onequarter;
layers = (
{
hints = (
{
horizontal = 1;
place = (-13,21);
target = up;
type = BottomGhost;
},
{
horizontal = 1;
place = (-8,21);
target = up;
type = BottomGhost;
},
{
place = (24,171);
type = Stem;
},
{
place = (373,87);
type = Stem;
},
{
place = (484,82);
type = Stem;
}
);
layerId = "E0442E84-B566-4B90-AE92-7C1FE943EFDC";
shapes = (
{
closed = 1;
nodes = (
(106,486,o),
(92,410,o),
(92,380,cs),
(92,349,o),
(113,332,o),
(135,332,cs),
(155,332,o),
(175,346,o),
(179,379,c),
(190,452,o),
(195,550,o),
(195,628,cs),
(195,646,o),
(190,663,o),
(183,675,c),
(177,688,o),
(165,695,o),
(151,695,cs),
(132,695,o),
(113,685,o),
(101,660,cs),
(91,639,o),
(69,616,o),
(46,599,cs),
(31,588,o),
(24,574,o),
(24,561,cs),
(24,540,o),
(41,522,o),
(62,522,cs),
(77,522,o),
(94,534,o),
(108,550,c)
);
},
{
closed = 1;
nodes = (
(502,668,o),
(484,686,o),
(462,686,cs),
(448,686,o),
(434,680,o),
(420,665,cs),
(316,554,o),
(170,186,o),
(81,74,cs),
(71,61,o),
(66,47,o),
(66,35,cs),
(66,11,o),
(85,-8,o),
(108,-8,cs),
(121,-8,o),
(137,-1,o),
(150,16,cs),
(244,140,o),
(383,485,o),
(485,605,cs),
(497,619,o),
(502,633,o),
(502,645,cs)
);
},
{
closed = 1;
nodes = (
(590,189,o),
(583,192,o),
(575,194,c),
(581,237,o),
(587,260,o),
(587,274,cs),
(587,301,o),
(566,316,o),
(544,316,cs),
(527,316,o),
(509,305,o),
(503,280,c),
(499,258,o),
(495,234,o),
(492,209,c),
(478,209,o),
(463,206,o),
(449,201,c),
(455,228,o),
(460,260,o),
(460,292,cs),
(460,332,o),
(455,369,o),
(416,369,cs),
(395,369,o),
(373,354,o),
(373,325,cs),
(373,306,o),
(377,271,o),
(377,262,cs),
(377,230,o),
(372,209,o),
(360,192,cs),
(350,178,o),
(345,164,o),
(345,153,cs),
(345,130,o),
(364,114,o),
(391,114,cs),
(407,114,o),
(443,128,o),
(484,129,c),
(482,96,o),
(481,63,o),
(482,35,cs),
(483,4,o),
(504,-13,o),
(524,-13,cs),
(545,-13,o),
(566,4,o),
(566,36,cs),
(566,64,o),
(567,89,o),
(568,111,c),
(577,108,o),
(586,106,o),
(593,106,cs),
(617,106,o),
(632,124,o),
(632,143,cs),
(632,158,o),
(622,175,o),
(598,186,cs)
);
}
);
width = 657;
}
);
leftKerningGroup = onehalf;
unicode = 188;
},
{
glyphname = onehalf;
layers = (
{
hints = (
{
horizontal = 1;
place = (-7,82);
type = Stem;
},
{
horizontal = 1;
place = (-8,21);
target = up;
type = BottomGhost;
},
{
horizontal = 1;
place = (-6,21);
target = up;
type = BottomGhost;
},
{
horizontal = 1;
place = (274,86);
type = Stem;
},
{
place = (23,171);
type = Stem;
},
{
place = (351,80);
type = Stem;
},
{
place = (464,84);
type = Stem;
}
);
layerId = "E0442E84-B566-4B90-AE92-7C1FE943EFDC";
shapes = (
{
closed = 1;
nodes = (
(154,330,o),
(174,345,o),
(178,377,cs),
(189,450,o),
(194,549,o),
(194,626,cs),
(194,645,o),
(189,662,o),
(182,673,c),
(176,687,o),
(164,694,o),
(150,694,cs),
(131,694,o),
(112,683,o),
(100,659,cs),
(90,638,o),
(68,615,o),
(45,598,cs),
(30,586,o),
(23,573,o),
(23,560,cs),
(23,538,o),
(40,520,o),
(61,520,cs),
(76,520,o),
(93,532,o),
(107,548,c),
(105,485,o),
(91,409,o),
(91,379,cs),
(91,348,o),
(112,330,o),
(134,330,cs)
);
},
{
closed = 1;
nodes = (
(242,140,o),
(381,485,o),
(483,605,cs),
(495,619,o),
(500,633,o),
(500,645,cs),
(500,668,o),
(482,686,o),
(460,686,cs),
(446,686,o),
(432,680,o),
(418,665,cs),
(314,554,o),
(168,186,o),
(79,74,cs),
(69,61,o),
(64,47,o),
(64,35,cs),
(64,11,o),
(83,-8,o),
(106,-8,cs),
(119,-8,o),
(135,-1,o),
(148,16,cs)
);
},
{
closed = 1;
nodes = (
(564,-7,o),
(608,47,o),
(608,93,cs),
(608,117,o),
(589,132,o),
(570,132,cs),
(556,132,o),
(543,124,o),
(535,107,cs),
(525,83,o),
(514,75,o),
(503,75,cs),
(497,75,o),
(483,79,o),
(474,81,c),
(510,128,o),
(548,194,o),
(548,250,cs),
(548,317,o),
(504,360,o),
(449,360,cs),
(394,360,o),
(351,319,o),
(351,256,cs),
(351,226,o),
(372,210,o),
(393,210,cs),
(412,210,o),
(431,224,o),
(431,251,cs),
(431,265,o),
(440,274,o),
(448,274,cs),
(456,274,o),
(464,266,o),
(464,250,cs),
(464,198,o),
(432,135,o),
(392,94,cs),
(387,89,o),
(381,85,o),
(371,82,cs),
(347,74,o),
(337,56,o),
(337,38,cs),
(337,16,o),
(354,-6,o),
(377,-6,cs),
(394,-6,o),
(406,7,o),
(425,7,cs),
(448,7,o),
(485,-7,o),
(513,-7,cs)
);
}
);
width = 633;
}
);
leftKerningGroup = onehalf;
unicode = 189;
},
{
glyphname = threequarters;
layers = (
{
hints = (
{
horizontal = 1;
place = (-13,21);
target = up;
type = BottomGhost;
},
{
horizontal = 1;
place = (-8,21);
target = up;
type = BottomGhost;
},
{
horizontal = 1;
place = (321,81);
type = Stem;
},
{
horizontal = 1;
place = (610,80);
type = Stem;
},
{
place = (155,80);
type = Stem;
},
{
place = (169,85);
type = Stem;
},
{
place = (421,87);
type = Stem;
},
{
place = (530,84);
type = Stem;
}
);
layerId = "E0442E84-B566-4B90-AE92-7C1FE943EFDC";
shapes = (
{
closed = 1;
nodes = (
(254,462,o),
(234,499,o),
(195,519,c),
(221,540,o),
(235,570,o),
(235,600,cs),
(235,650,o),
(198,690,o),
(135,690,cs),
(78,690,o),
(25,648,o),
(25,590,cs),
(25,563,o),
(43,548,o),
(64,548,cs),
(81,548,o),
(100,560,o),
(105,586,cs),
(108,603,o),
(120,610,o),
(131,610,cs),
(146,610,o),
(155,600,o),
(155,585,cs),
(155,567,o),
(145,548,o),
(124,542,cs),
(105,536,o),
(97,521,o),
(97,507,cs),
(97,490,o),
(109,473,o),
(132,473,cs),
(157,473,o),
(169,456,o),
(169,438,cs),
(169,415,o),
(154,402,o),
(136,402,cs),
(124,402,o),
(109,409,o),
(97,425,cs),
(86,438,o),
(74,443,o),
(62,443,cs),
(41,443,o),
(22,425,o),
(22,402,cs),
(22,359,o),
(80,321,o),
(134,321,cs),
(214,321,o),
(254,373,o),
(254,425,cs)
);
},
{
closed = 1;
nodes = (
(549,668,o),
(531,686,o),
(509,686,cs),
(495,686,o),
(481,680,o),
(467,665,cs),
(363,554,o),
(217,186,o),
(128,74,cs),
(118,61,o),
(113,47,o),
(113,35,cs),
(113,11,o),
(132,-8,o),
(155,-8,cs),
(168,-8,o),
(184,-1,o),
(197,16,cs),
(291,140,o),
(430,485,o),
(532,605,cs),
(544,619,o),
(549,633,o),
(549,645,cs)
);
},
{
closed = 1;
nodes = (
(623,195,l),
(629,237,o),
(635,260,o),
(635,274,cs),
(635,301,o),
(614,316,o),
(593,316,cs),
(575,316,o),
(557,305,o),
(552,280,cs),
(547,258,o),
(543,234,o),
(540,209,c),
(526,209,o),
(513,206,o),
(498,201,c),
(503,228,o),
(508,260,o),
(508,292,cs),
(508,332,o),
(504,369,o),
(464,369,cs),
(443,369,o),
(421,354,o),
(421,325,cs),
(421,306,o),
(425,271,o),
(425,262,cs),
(425,230,o),
(420,209,o),
(408,192,cs),
(398,178,o),
(393,164,o),
(393,153,cs),
(393,130,o),
(412,114,o),
(440,114,cs),
(455,114,o),
(491,128,o),
(532,129,c),
(531,110,o),
(530,90,o),
(530,72,cs),
(530,59,o),
(531,47,o),
(531,35,c),
(532,4,o),
(552,-13,o),
(573,-13,cs),
(593,-13,o),
(614,4,o),
(614,36,cs),
(614,64,o),
(615,89,o),
(616,111,c),
(625,108,o),
(634,106,o),
(641,106,cs),
(665,106,o),
(680,124,o),
(680,143,cs),
(680,158,o),
(670,175,o),
(646,186,c)
);
}
);
width = 704;
}
);
leftKerningGroup = uni00B9;
unicode = 190;
},
{
glyphname = questiondown;
layers = (
{
hints = (
{
horizontal = 1;
place = (-256,98);
type = Stem;
},
{
horizontal = 1;
place = (356,133);
type = Stem;
},
{
place = (38,108);
type = Stem;
},
{
place = (182,134);
type = Stem;
},
{
place = (196,105);
type = Stem;
},
{
place = (292,107);
type = Stem;
}
);
layerId = "E0442E84-B566-4B90-AE92-7C1FE943EFDC";
shapes = (
{
closed = 1;
nodes = (
(212,489,o),
(182,460,o),
(182,422,cs),
(182,385,o),
(212,356,o),
(248,356,cs),
(286,356,o),
(316,385,o),
(316,422,cs),
(316,460,o),
(286,489,o),
(248,489,cs)
);
},
{
closed = 1;
nodes = (
(222,305,o),
(196,285,o),
(196,245,cs),
(196,167,o),
(164,141,o),
(129,104,cs),
(79,52,o),
(38,6,o),
(38,-86,cs),
(38,-188,o),
(120,-256,o),
(220,-256,cs),
(320,-256,o),
(399,-191,o),
(399,-88,cs),
(399,-43,o),
(385,1,o),
(339,1,cs),
(313,1,o),
(287,-17,o),
(287,-49,cs),
(287,-55,o),
(292,-76,o),
(292,-88,cs),
(292,-134,o),
(257,-158,o),
(220,-158,cs),
(183,-158,o),
(146,-132,o),
(146,-80,cs),
(146,-39,o),
(165,-4,o),
(204,32,cs),
(242,67,o),
(301,118,o),
(301,245,cs),
(301,285,o),
(274,305,o),
(248,305,cs)
);
}
);
width = 436;
}
);
unicode = 191;
},
{
glyphname = Agrave;
layers = (
{
anchors = (
{
name = t.uni0302_2;
position = "{646, 707}";
}
);
hints = (
{
horizontal = 1;
place = (-13,97);
type = Stem;
},
{
horizontal = 1;
place = (-10,95);
type = Stem;
},
{
horizontal = 1;
place = (249,96);
type = Stem;
},
{
horizontal = 1;
place = (254,99);
type = Stem;
},
{
horizontal = 1;
place = (614,116);
type = Stem;
},
{
place = (552,111);
type = Stem;
}
);
layerId = "E0442E84-B566-4B90-AE92-7C1FE943EFDC";
shapes = (
{
closed = 1;
nodes = (
(634,781,ls),
(648,767,o),
(663,761,o),
(677,761,cs),
(702,761,o),
(722,781,o),
(722,807,cs),
(722,821,o),
(717,836,o),
(703,850,cs),
(642,914,ls),
(628,929,o),
(612,935,o),
(599,935,cs),
(573,935,o),
(553,915,o),
(553,889,cs),
(553,876,o),
(558,860,o),
(572,846,cs)
);
},
{
closed = 1;
nodes = (
(797,179,o),
(742,85,o),
(704,85,cs),
(682,85,o),
(663,104,o),
(663,164,cs),
(663,365,o),
(720,598,o),
(720,666,cs),
(720,707,o),
(697,730,o),
(650,730,cs),
(548,730,o),
(499,639,o),
(384,371,cs),
(380,362,o),
(377,354,o),
(373,346,c),
(343,345,o),
(313,345,o),
(283,345,cs),
(245,345,o),
(225,321,o),
(225,298,cs),
(225,273,o),
(246,249,o),
(289,249,cs),
(326,249,l),
(266,141,o),
(212,84,o),
(172,84,cs),
(134,84,o),
(117,124,o),
(84,124,cs),
(57,124,o),
(35,102,o),
(35,73,cs),
(35,30,o),
(91,-13,o),
(172,-13,cs),
(283,-13,o),
(369,87,o),
(449,254,c),
(485,257,o),
(521,260,o),
(555,264,c),
(553,238,o),
(552,211,o),
(552,185,cs),
(552,51,o),
(611,-10,o),
(693,-10,cs),
(783,-10,o),
(849,68,o),
(907,235,cs),
(910,243,o),
(911,251,o),
(911,258,cs),
(911,285,o),
(892,300,o),
(871,300,cs),
(853,300,o),
(835,289,o),
(827,265,cs)
);
},
{
closed = 1;
nodes = (
(555,506,o),
(595,614,o),
(608,614,cs),
(619,614,o),
(585,504,o),
(565,362,c),
(541,358,o),
(517,355,o),
(491,353,c)
);
}
);
width = 827;
}
);
leftKerningGroup = A2;
rightKerningGroup = A;
unicode = 192;
},
{
glyphname = Aacute;
layers = (
{
anchors = (
{
name = t.uni0302_2;
position = "{646, 707}";
}
);
hints = (
{
horizontal = 1;
place = (-13,97);
type = Stem;
},
{
horizontal = 1;
place = (-10,95);
type = Stem;
},
{
horizontal = 1;
place = (249,96);
type = Stem;
},
{
horizontal = 1;
place = (254,99);
type = Stem;
},
{
horizontal = 1;
place = (614,116);
type = Stem;
},
{
place = (552,111);
type = Stem;
}
);
layerId = "E0442E84-B566-4B90-AE92-7C1FE943EFDC";
shapes = (
{
closed = 1;
nodes = (
(764,846,ls),
(778,860,o),
(784,876,o),
(784,889,cs),
(784,915,o),
(763,935,o),
(738,935,cs),
(724,935,o),
(708,929,o),
(694,914,cs),
(633,850,ls),
(619,836,o),
(614,821,o),
(614,807,cs),
(614,782,o),
(634,761,o),
(660,761,cs),
(673,761,o),
(688,767,o),
(702,781,cs)
);
},
{
closed = 1;
nodes = (
(797,179,o),
(742,85,o),
(704,85,cs),
(682,85,o),
(663,104,o),
(663,164,cs),
(663,365,o),
(720,598,o),
(720,666,cs),
(720,707,o),
(697,730,o),
(650,730,cs),
(548,730,o),
(499,639,o),
(384,371,cs),
(380,362,o),
(377,354,o),
(373,346,c),
(343,345,o),
(313,345,o),
(283,345,cs),
(245,345,o),
(225,321,o),
(225,298,cs),
(225,273,o),
(246,249,o),
(289,249,cs),
(326,249,l),
(266,141,o),
(212,84,o),
(172,84,cs),
(134,84,o),
(117,124,o),
(84,124,cs),
(57,124,o),
(35,102,o),
(35,73,cs),
(35,30,o),
(91,-13,o),
(172,-13,cs),
(283,-13,o),
(369,87,o),
(449,254,c),
(485,257,o),
(521,260,o),
(555,264,c),
(553,238,o),
(552,211,o),
(552,185,cs),
(552,51,o),
(611,-10,o),
(693,-10,cs),
(783,-10,o),
(849,68,o),
(907,235,cs),
(910,243,o),
(911,251,o),
(911,258,cs),
(911,285,o),
(892,300,o),
(871,300,cs),
(853,300,o),
(835,289,o),
(827,265,cs)
);
},
{
closed = 1;
nodes = (
(555,506,o),
(595,614,o),
(608,614,cs),
(619,614,o),
(585,504,o),
(565,362,c),
(541,358,o),
(517,355,o),
(491,353,c)
);
}
);
width = 827;
}
);
leftKerningGroup = A2;
rightKerningGroup = A;
unicode = 193;
},
{
glyphname = Acircumflex;
layers = (
{
anchors = (
{
name = t.uni0302_2;
position = "{646, 707}";
}
);
hints = (
{
horizontal = 1;
place = (-13,97);
type = Stem;
},
{
horizontal = 1;
place = (-10,95);
type = Stem;
},
{
horizontal = 1;
place = (249,96);
type = Stem;
},
{
horizontal = 1;
place = (254,99);
type = Stem;
},
{
horizontal = 1;
place = (614,116);
type = Stem;
},
{
place = (552,111);
type = Stem;
}
);
layerId = "E0442E84-B566-4B90-AE92-7C1FE943EFDC";
shapes = (
{
closed = 1;
nodes = (
(654,807,ls),
(658,810,o),
(663,812,o),
(667,812,cs),
(671,812,o),
(675,810,o),
(679,806,cs),
(698,785,ls),
(710,771,o),
(724,765,o),
(737,765,cs),
(760,765,o),
(780,785,o),
(780,809,cs),
(780,821,o),
(776,833,o),
(766,844,cs),
(709,909,ls),
(700,920,o),
(690,925,o),
(679,925,cs),
(670,925,o),
(661,922,o),
(652,916,cs),
(564,856,ls),
(544,842,o),
(536,826,o),
(536,811,cs),
(536,788,o),
(556,769,o),
(581,769,cs),
(591,769,o),
(601,772,o),
(612,779,cs)
);
},
{
closed = 1;
nodes = (
(797,179,o),
(742,85,o),
(704,85,cs),
(682,85,o),
(663,104,o),
(663,164,cs),
(663,365,o),
(720,598,o),
(720,666,cs),
(720,707,o),
(697,730,o),
(650,730,cs),
(548,730,o),
(499,639,o),
(384,371,cs),
(380,362,o),
(377,354,o),
(373,346,c),
(343,345,o),
(313,345,o),
(283,345,cs),
(245,345,o),
(225,321,o),
(225,298,cs),
(225,273,o),
(246,249,o),
(289,249,cs),
(326,249,l),
(266,141,o),
(212,84,o),
(172,84,cs),
(134,84,o),
(117,124,o),
(84,124,cs),
(57,124,o),
(35,102,o),
(35,73,cs),
(35,30,o),
(91,-13,o),
(172,-13,cs),
(283,-13,o),
(369,87,o),
(449,254,c),
(485,257,o),
(521,260,o),
(555,264,c),
(553,238,o),
(552,211,o),
(552,185,cs),
(552,51,o),
(611,-10,o),
(693,-10,cs),
(783,-10,o),
(849,68,o),
(907,235,cs),
(910,243,o),
(911,251,o),
(911,258,cs),
(911,285,o),
(892,300,o),
(871,300,cs),
(853,300,o),
(835,289,o),
(827,265,cs)
);
},
{
closed = 1;
nodes = (
(555,506,o),
(595,614,o),
(608,614,cs),
(619,614,o),
(585,504,o),
(565,362,c),
(541,358,o),
(517,355,o),
(491,353,c)
);
}
);
width = 827;
}
);
leftKerningGroup = A2;
rightKerningGroup = A;
unicode = 194;
},
{
glyphname = Atilde;
layers = (
{
anchors = (
{
name = t.uni0302_2;
position = "{646, 707}";
}
);
hints = (
{
horizontal = 1;
place = (-13,97);
type = Stem;
},
{
horizontal = 1;
place = (-10,95);
type = Stem;
},
{
horizontal = 1;
place = (249,96);
type = Stem;
},
{
horizontal = 1;
place = (254,99);
type = Stem;
},
{
horizontal = 1;
place = (614,116);
type = Stem;
},
{
horizontal = 1;
place = (774,95);
type = Stem;
},
{
horizontal = 1;
place = (804,95);
type = Stem;
},
{
place = (552,111);
type = Stem;
}
);
layerId = "E0442E84-B566-4B90-AE92-7C1FE943EFDC";
shapes = (
{
closed = 1;
nodes = (
(601,800,o),
(606,804,o),
(612,804,cs),
(625,804,o),
(668,774,o),
(700,774,cs),
(725,774,o),
(749,786,o),
(770,809,cs),
(782,823,o),
(786,836,o),
(786,849,cs),
(786,875,o),
(764,896,o),
(740,896,cs),
(729,896,o),
(718,892,o),
(709,882,cs),
(700,872,o),
(696,869,o),
(691,869,cs),
(678,869,o),
(631,899,o),
(603,899,cs),
(576,899,o),
(547,885,o),
(531,862,cs),
(522,849,o),
(518,837,o),
(518,825,cs),
(518,799,o),
(538,779,o),
(562,779,cs),
(573,779,o),
(585,783,o),
(596,794,cs)
);
},
{
closed = 1;
nodes = (
(797,179,o),
(742,85,o),
(704,85,cs),
(682,85,o),
(663,104,o),
(663,164,cs),
(663,365,o),
(720,598,o),
(720,666,cs),
(720,707,o),
(697,730,o),
(650,730,cs),
(548,730,o),
(499,639,o),
(384,371,cs),
(380,362,o),
(377,354,o),
(373,346,c),
(343,345,o),
(313,345,o),
(283,345,cs),
(245,345,o),
(225,321,o),
(225,298,cs),
(225,273,o),
(246,249,o),
(289,249,cs),
(326,249,l),
(266,141,o),
(212,84,o),
(172,84,cs),
(134,84,o),
(117,124,o),
(84,124,cs),
(57,124,o),
(35,102,o),
(35,73,cs),
(35,30,o),
(91,-13,o),
(172,-13,cs),
(283,-13,o),
(369,87,o),
(449,254,c),
(485,257,o),
(521,260,o),
(555,264,c),
(553,238,o),
(552,211,o),
(552,185,cs),
(552,51,o),
(611,-10,o),
(693,-10,cs),
(783,-10,o),
(849,68,o),
(907,235,cs),
(910,243,o),
(911,251,o),
(911,258,cs),
(911,285,o),
(892,300,o),
(871,300,cs),
(853,300,o),
(835,289,o),
(827,265,cs)
);
},
{
closed = 1;
nodes = (
(555,506,o),
(595,614,o),
(608,614,cs),
(619,614,o),
(585,504,o),
(565,362,c),
(541,358,o),
(517,355,o),
(491,353,c)
);
}
);
width = 827;
}
);
leftKerningGroup = A2;
rightKerningGroup = A;
unicode = 195;
},
{
glyphname = Adieresis;
layers = (
{
anchors = (
{
name = t.uni0302_2;
position = "{646, 707}";
}
);
hints = (
{
horizontal = 1;
place = (-13,97);
type = Stem;
},
{
horizontal = 1;
place = (-10,95);
type = Stem;
},
{
horizontal = 1;
place = (249,96);
type = Stem;
},
{
horizontal = 1;
place = (254,99);
type = Stem;
},
{
horizontal = 1;
place = (614,116);
type = Stem;
},
{
horizontal = 1;
place = (770,115);
type = Stem;
},
{
place = (525,115);
type = Stem;
},
{
place = (552,111);
type = Stem;
},
{
place = (679,115);
type = Stem;
}
);
layerId = "E0442E84-B566-4B90-AE92-7C1FE943EFDC";
shapes = (
{
closed = 1;
nodes = (
(614,770,o),
(640,796,o),
(640,828,cs),
(640,859,o),
(614,885,o),
(583,885,cs),
(551,885,o),
(525,859,o),
(525,828,cs),
(525,796,o),
(551,770,o),
(583,770,cs)
);
},
{
closed = 1;
nodes = (
(768,770,o),
(794,796,o),
(794,828,cs),
(794,859,o),
(768,885,o),
(737,885,cs),
(705,885,o),
(679,859,o),
(679,828,cs),
(679,796,o),
(705,770,o),
(737,770,cs)
);
},
{
closed = 1;
nodes = (
(797,179,o),
(742,85,o),
(704,85,cs),
(682,85,o),
(663,104,o),
(663,164,cs),
(663,365,o),
(720,598,o),
(720,666,cs),
(720,707,o),
(697,730,o),
(650,730,cs),
(548,730,o),
(499,639,o),
(384,371,cs),
(380,362,o),
(377,354,o),
(373,346,c),
(343,345,o),
(313,345,o),
(283,345,cs),
(245,345,o),
(225,321,o),
(225,298,cs),
(225,273,o),
(246,249,o),
(289,249,cs),
(326,249,l),
(266,141,o),
(212,84,o),
(172,84,cs),
(134,84,o),
(117,124,o),
(84,124,cs),
(57,124,o),
(35,102,o),
(35,73,cs),
(35,30,o),
(91,-13,o),
(172,-13,cs),
(283,-13,o),
(369,87,o),
(449,254,c),
(485,257,o),
(521,260,o),
(555,264,c),
(553,238,o),
(552,211,o),
(552,185,cs),
(552,51,o),
(611,-10,o),
(693,-10,cs),
(783,-10,o),
(849,68,o),
(907,235,cs),
(910,243,o),
(911,251,o),
(911,258,cs),
(911,285,o),
(892,300,o),
(871,300,cs),
(853,300,o),
(835,289,o),
(827,265,cs)
);
},
{
closed = 1;
nodes = (
(555,506,o),
(595,614,o),
(608,614,cs),
(619,614,o),
(585,504,o),
(565,362,c),
(541,358,o),
(517,355,o),
(491,353,c)
);
}
);
width = 827;
}
);
leftKerningGroup = A2;
rightKerningGroup = A;
unicode = 196;
},
{
glyphname = Aring;
layers = (
{
anchors = (
{
name = t.uni0302_2;
position = "{646, 707}";
}
);
hints = (
{
horizontal = 1;
place = (-13,97);
type = Stem;
},
{
horizontal = 1;
place = (-10,95);
type = Stem;
},
{
horizontal = 1;
place = (249,96);
type = Stem;
},
{
horizontal = 1;
place = (254,99);
type = Stem;
},
{
horizontal = 1;
place = (614,116);
type = Stem;
},
{
horizontal = 1;
place = (754,76);
type = Stem;
},
{
horizontal = 1;
place = (875,77);
type = Stem;
},
{
place = (552,111);
type = Stem;
},
{
place = (563,79);
type = Stem;
},
{
place = (687,78);
type = Stem;
}
);
layerId = "E0442E84-B566-4B90-AE92-7C1FE943EFDC";
shapes = (
{
closed = 1;
nodes = (
(720,754,o),
(765,798,o),
(765,857,cs),
(765,912,o),
(727,952,o),
(672,952,cs),
(610,952,o),
(563,906,o),
(563,846,cs),
(563,791,o),
(604,754,o),
(661,754,cs)
);
},
{
closed = 1;
nodes = (
(678,875,o),
(687,867,o),
(687,855,cs),
(687,840,o),
(676,830,o),
(663,830,cs),
(651,830,o),
(642,838,o),
(642,850,cs),
(642,866,o),
(653,875,o),
(667,875,cs)
);
},
{
closed = 1;
nodes = (
(797,179,o),
(742,85,o),
(704,85,cs),
(682,85,o),
(663,104,o),
(663,164,cs),
(663,365,o),
(720,598,o),
(720,666,cs),
(720,707,o),
(697,730,o),
(650,730,cs),
(548,730,o),
(499,639,o),
(384,371,cs),
(380,362,o),
(377,354,o),
(373,346,c),
(343,345,o),
(313,345,o),
(283,345,cs),
(245,345,o),
(225,321,o),
(225,298,cs),
(225,273,o),
(246,249,o),
(289,249,cs),
(326,249,l),
(266,141,o),
(212,84,o),
(172,84,cs),
(134,84,o),
(117,124,o),
(84,124,cs),
(57,124,o),
(35,102,o),
(35,73,cs),
(35,30,o),
(91,-13,o),
(172,-13,cs),
(283,-13,o),
(369,87,o),
(449,254,c),
(485,257,o),
(521,260,o),
(555,264,c),
(553,238,o),
(552,211,o),
(552,185,cs),
(552,51,o),
(611,-10,o),
(693,-10,cs),
(783,-10,o),
(849,68,o),
(907,235,cs),
(910,243,o),
(911,251,o),
(911,258,cs),
(911,285,o),
(892,300,o),
(871,300,cs),
(853,300,o),
(835,289,o),
(827,265,cs)
);
},
{
closed = 1;
nodes = (
(555,506,o),
(595,614,o),
(608,614,cs),
(619,614,o),
(585,504,o),
(565,362,c),
(541,358,o),
(517,355,o),
(491,353,c)
);
}
);
width = 827;
}
);
leftKerningGroup = A2;
rightKerningGroup = A;
unicode = 197;
},
{
glyphname = AE;
layers = (
{
anchors = (
{
name = t.uni0302_2;
position = "{716, 700}";
}
);
hints = (
{
horizontal = 1;
place = (-17,101);
type = Stem;
},
{
horizontal = 1;
place = (-11,104);
type = Stem;
},
{
horizontal = 1;
place = (219,96);
type = Stem;
},
{
horizontal = 1;
place = (224,97);
type = Stem;
},
{
horizontal = 1;
place = (431,-20);
target = down;
type = TopGhost;
},
{
horizontal = 1;
place = (602,126);
type = Stem;
},
{
horizontal = 1;
place = (631,103);
type = Stem;
},
{
place = (569,132);
type = Stem;
},
{
place = (597,103);
type = Stem;
},
{
place = (725,107);
type = Stem;
},
{
place = (985,102);
type = Stem;
}
);
layerId = "E0442E84-B566-4B90-AE92-7C1FE943EFDC";
shapes = (
{
closed = 1;
nodes = (
(1013,148,o),
(941,84,o),
(844,84,cs),
(748,84,o),
(701,146,o),
(701,204,cs),
(701,289,o),
(765,356,o),
(900,356,cs),
(934,356,o),
(954,378,o),
(954,401,cs),
(954,420,o),
(941,440,o),
(913,450,cs),
(866,466,o),
(832,493,o),
(832,547,cs),
(832,599,o),
(865,631,o),
(914,631,cs),
(953,631,o),
(985,605,o),
(985,567,cs),
(985,551,o),
(986,538,o),
(992,525,cs),
(1000,508,o),
(1014,498,o),
(1034,498,cs),
(1059,498,o),
(1081,518,o),
(1085,552,cs),
(1086,560,o),
(1087,569,o),
(1087,576,cs),
(1087,669,o),
(1011,734,o),
(915,734,cs),
(807,734,o),
(725,657,o),
(725,555,cs),
(725,498,o),
(744,463,o),
(778,431,c),
(741,420,o),
(705,403,o),
(675,373,c),
(680,472,o),
(700,627,o),
(700,676,cs),
(700,709,o),
(679,728,o),
(644,728,cs),
(533,728,o),
(472,577,o),
(386,372,cs),
(378,352,o),
(370,333,o),
(361,316,c),
(335,315,o),
(309,315,o),
(283,315,cs),
(245,315,o),
(225,291,o),
(225,268,cs),
(225,243,o),
(246,219,o),
(289,219,cs),
(311,219,l),
(259,131,o),
(210,93,o),
(170,93,cs),
(131,93,o),
(123,135,o),
(82,135,cs),
(56,135,o),
(35,113,o),
(35,84,cs),
(35,34,o),
(95,-11,o),
(170,-11,cs),
(284,-11,o),
(372,94,o),
(437,224,c),
(481,226,o),
(527,230,o),
(569,235,c),
(578,78,o),
(693,-17,o),
(837,-17,cs),
(957,-17,o),
(1071,53,o),
(1134,235,cs),
(1137,243,o),
(1138,251,o),
(1138,258,cs),
(1138,285,o),
(1119,303,o),
(1098,303,cs),
(1081,303,o),
(1063,292,o),
(1054,265,cs)
);
},
{
closed = 1;
nodes = (
(502,378,l),
(558,537,o),
(583,602,o),
(594,602,cs),
(596,602,o),
(597,599,o),
(597,594,cs),
(597,567,o),
(576,471,o),
(570,332,c),
(541,327,o),
(511,324,o),
(481,321,c)
);
}
);
width = 1054;
}
);
leftKerningGroup = A2;
unicode = 198;
},
{
glyphname = Ccedilla;
layers = (
{
anchors = (
{
name = t.uni0302_2;
position = "{427, 707}";
},
{
name = b.uni0326_1_2;
position = "{351, 7}";
}
);
hints = (
{
horizontal = 1;
place = (-213,87);
type = Stem;
},
{
horizontal = 1;
place = (-12,92);
type = Stem;
},
{
horizontal = 1;
place = (-12,21);
target = up;
type = BottomGhost;
},
{
horizontal = 1;
place = (635,94);
type = Stem;
},
{
place = (80,111);
type = Stem;
},
{
place = (350,88);
type = Stem;
},
{
place = (459,111);
type = Stem;
}
);
layerId = "E0442E84-B566-4B90-AE92-7C1FE943EFDC";
shapes = (
{
closed = 1;
nodes = (
(534,139,o),
(451,80,o),
(360,80,cs),
(268,80,o),
(191,150,o),
(191,276,cs),
(191,470,o),
(311,635,o),
(414,635,cs),
(443,635,o),
(459,619,o),
(459,586,cs),
(459,545,o),
(438,522,o),
(438,493,cs),
(438,462,o),
(462,441,o),
(489,441,cs),
(509,441,o),
(531,453,o),
(545,481,cs),
(561,513,o),
(570,552,o),
(570,588,cs),
(570,669,o),
(507,729,o),
(420,729,cs),
(246,729,o),
(80,529,o),
(80,276,cs),
(80,111,o),
(184,7,o),
(310,-12,c),
(304,-28,o),
(302,-42,o),
(302,-53,cs),
(302,-70,o),
(314,-82,o),
(336,-96,cs),
(346,-102,o),
(350,-108,o),
(350,-114,cs),
(350,-121,o),
(344,-126,o),
(334,-126,cs),
(328,-126,o),
(319,-124,o),
(310,-119,cs),
(302,-115,o),
(295,-113,o),
(288,-113,cs),
(266,-113,o),
(251,-132,o),
(251,-153,cs),
(251,-168,o),
(259,-185,o),
(279,-196,cs),
(297,-207,o),
(318,-213,o),
(339,-213,cs),
(402,-213,o),
(438,-166,o),
(438,-121,cs),
(438,-98,o),
(429,-76,o),
(409,-60,cs),
(399,-52,o),
(388,-44,o),
(388,-36,cs),
(388,-30,o),
(391,-23,o),
(395,-12,c),
(506,3,o),
(604,79,o),
(659,235,cs),
(662,243,o),
(663,250,o),
(663,256,cs),
(663,283,o),
(643,300,o),
(622,300,cs),
(605,300,o),
(588,289,o),
(579,265,cs)
);
}
);
width = 579;
}
);
leftKerningGroup = C;
rightKerningGroup = A;
unicode = 199;
},
{
glyphname = Egrave;
layers = (
{
anchors = (
{
name = t.uni0302_2;
position = "{333, 707}";
}
);
hints = (
{
horizontal = 1;
place = (-20,95);
type = Stem;
},
{
horizontal = 1;
place = (346,96);
type = Stem;
},
{
horizontal = 1;
place = (640,94);
type = Stem;
},
{
place = (93,111);
type = Stem;
},
{
place = (145,111);
type = Stem;
},
{
place = (406,107);
type = Stem;
}
);
layerId = "E0442E84-B566-4B90-AE92-7C1FE943EFDC";
shapes = (
{
closed = 1;
nodes = (
(321,781,ls),
(335,767,o),
(350,761,o),
(364,761,cs),
(389,761,o),
(409,781,o),
(409,807,cs),
(409,821,o),
(404,836,o),
(390,850,cs),
(329,914,ls),
(315,929,o),
(299,935,o),
(286,935,cs),
(260,935,o),
(240,915,o),
(240,889,cs),
(240,876,o),
(245,860,o),
(259,846,cs)
);
},
{
closed = 1;
nodes = (
(497,153,o),
(428,75,o),
(332,75,cs),
(251,75,o),
(204,131,o),
(204,200,c),
(203,277,o),
(260,346,o),
(363,346,cs),
(399,346,o),
(418,369,o),
(418,394,cs),
(418,419,o),
(399,442,o),
(363,442,cs),
(291,442,o),
(256,485,o),
(256,549,cs),
(256,605,o),
(290,640,o),
(339,640,cs),
(378,640,o),
(406,614,o),
(406,574,cs),
(406,559,o),
(404,548,o),
(404,532,cs),
(404,508,o),
(425,489,o),
(454,489,cs),
(483,489,o),
(513,513,o),
(513,577,cs),
(513,679,o),
(430,734,o),
(338,734,cs),
(225,734,o),
(145,660,o),
(145,554,cs),
(145,485,o),
(182,438,o),
(231,403,c),
(150,368,o),
(93,288,o),
(93,199,cs),
(93,70,o),
(184,-20,o),
(325,-20,cs),
(453,-20,o),
(556,63,o),
(616,235,cs),
(619,243,o),
(620,251,o),
(620,258,cs),
(620,286,o),
(601,304,o),
(580,304,cs),
(563,304,o),
(545,292,o),
(536,265,cs)
);
}
);
width = 536;
}
);
leftKerningGroup = E;
rightKerningGroup = A;
unicode = 200;
},
{
glyphname = Eacute;
layers = (
{
anchors = (
{
name = t.uni0302_2;
position = "{333, 707}";
}
);
hints = (
{
horizontal = 1;
place = (-20,95);
type = Stem;
},
{
horizontal = 1;
place = (346,96);
type = Stem;
},
{
horizontal = 1;
place = (640,94);
type = Stem;
},
{
place = (93,111);
type = Stem;
},
{
place = (145,111);
type = Stem;
},
{
place = (406,107);
type = Stem;
}
);
layerId = "E0442E84-B566-4B90-AE92-7C1FE943EFDC";
shapes = (
{
closed = 1;
nodes = (
(451,846,ls),
(465,860,o),
(471,876,o),
(471,889,cs),
(471,915,o),
(450,935,o),
(425,935,cs),
(411,935,o),
(395,929,o),
(381,914,cs),
(320,850,ls),
(306,836,o),
(301,821,o),
(301,807,cs),
(301,782,o),
(321,761,o),
(347,761,cs),
(360,761,o),
(375,767,o),
(389,781,cs)
);
},
{
closed = 1;
nodes = (
(497,153,o),
(428,75,o),
(332,75,cs),
(251,75,o),
(204,131,o),
(204,200,c),
(203,277,o),
(260,346,o),
(363,346,cs),
(399,346,o),
(418,369,o),
(418,394,cs),
(418,419,o),
(399,442,o),
(363,442,cs),
(291,442,o),
(256,485,o),
(256,549,cs),
(256,605,o),
(290,640,o),
(339,640,cs),
(378,640,o),
(406,614,o),
(406,574,cs),
(406,559,o),
(404,548,o),
(404,532,cs),
(404,508,o),
(425,489,o),
(454,489,cs),
(483,489,o),
(513,513,o),
(513,577,cs),
(513,679,o),
(430,734,o),
(338,734,cs),
(225,734,o),
(145,660,o),
(145,554,cs),
(145,485,o),
(182,438,o),
(231,403,c),
(150,368,o),
(93,288,o),
(93,199,cs),
(93,70,o),
(184,-20,o),
(325,-20,cs),
(453,-20,o),
(556,63,o),
(616,235,cs),
(619,243,o),
(620,251,o),
(620,258,cs),
(620,286,o),
(601,304,o),
(580,304,cs),
(563,304,o),
(545,292,o),
(536,265,cs)
);
}
);
width = 536;
}
);
leftKerningGroup = E;
rightKerningGroup = A;
unicode = 201;
},
{
glyphname = Ecircumflex;
layers = (
{
anchors = (
{
name = t.uni0302_2;
position = "{333, 707}";
}
);
hints = (
{
horizontal = 1;
place = (-20,95);
type = Stem;
},
{
horizontal = 1;
place = (346,96);
type = Stem;
},
{
horizontal = 1;
place = (640,94);
type = Stem;
},
{
place = (93,111);
type = Stem;
},
{
place = (145,111);
type = Stem;
},
{
place = (406,107);
type = Stem;
}
);
layerId = "E0442E84-B566-4B90-AE92-7C1FE943EFDC";
shapes = (
{
closed = 1;
nodes = (
(341,807,ls),
(345,810,o),
(350,812,o),
(354,812,cs),
(358,812,o),
(362,810,o),
(366,806,cs),
(385,785,ls),
(397,771,o),
(411,765,o),
(424,765,cs),
(447,765,o),
(467,785,o),
(467,809,cs),
(467,821,o),
(463,833,o),
(453,844,cs),
(396,909,ls),
(387,920,o),
(377,925,o),
(366,925,cs),
(357,925,o),
(348,922,o),
(339,916,cs),
(251,856,ls),
(231,842,o),
(223,826,o),
(223,811,cs),
(223,788,o),
(243,769,o),
(268,769,cs),
(278,769,o),
(288,772,o),
(299,779,cs)
);
},
{
closed = 1;
nodes = (
(497,153,o),
(428,75,o),
(332,75,cs),
(251,75,o),
(204,131,o),
(204,200,c),
(203,277,o),
(260,346,o),
(363,346,cs),
(399,346,o),
(418,369,o),
(418,394,cs),
(418,419,o),
(399,442,o),
(363,442,cs),
(291,442,o),
(256,485,o),
(256,549,cs),
(256,605,o),
(290,640,o),
(339,640,cs),
(378,640,o),
(406,614,o),
(406,574,cs),
(406,559,o),
(404,548,o),
(404,532,cs),
(404,508,o),
(425,489,o),
(454,489,cs),
(483,489,o),
(513,513,o),
(513,577,cs),
(513,679,o),
(430,734,o),
(338,734,cs),
(225,734,o),
(145,660,o),
(145,554,cs),
(145,485,o),
(182,438,o),
(231,403,c),
(150,368,o),
(93,288,o),
(93,199,cs),
(93,70,o),
(184,-20,o),
(325,-20,cs),
(453,-20,o),
(556,63,o),
(616,235,cs),
(619,243,o),
(620,251,o),
(620,258,cs),
(620,286,o),
(601,304,o),
(580,304,cs),
(563,304,o),
(545,292,o),
(536,265,cs)
);
}
);
width = 536;
}
);
leftKerningGroup = E;
rightKerningGroup = A;
unicode = 202;
},
{
glyphname = Edieresis;
layers = (
{
anchors = (
{
name = t.uni0302_2;
position = "{333, 707}";
}
);
hints = (
{
horizontal = 1;
place = (-20,95);
type = Stem;
},
{
horizontal = 1;
place = (346,96);
type = Stem;
},
{
horizontal = 1;
place = (640,94);
type = Stem;
},
{
horizontal = 1;
place = (770,115);
type = Stem;
},
{
place = (93,111);
type = Stem;
},
{
place = (145,111);
type = Stem;
},
{
place = (212,115);
type = Stem;
},
{
place = (366,115);
type = Stem;
},
{
place = (406,107);
type = Stem;
}
);
layerId = "E0442E84-B566-4B90-AE92-7C1FE943EFDC";
shapes = (
{
closed = 1;
nodes = (
(301,770,o),
(327,796,o),
(327,828,cs),
(327,859,o),
(301,885,o),
(270,885,cs),
(238,885,o),
(212,859,o),
(212,828,cs),
(212,796,o),
(238,770,o),
(270,770,cs)
);
},
{
closed = 1;
nodes = (
(455,770,o),
(481,796,o),
(481,828,cs),
(481,859,o),
(455,885,o),
(424,885,cs),
(392,885,o),
(366,859,o),
(366,828,cs),
(366,796,o),
(392,770,o),
(424,770,cs)
);
},
{
closed = 1;
nodes = (
(497,153,o),
(428,75,o),
(332,75,cs),
(251,75,o),
(204,131,o),
(204,200,c),
(203,277,o),
(260,346,o),
(363,346,cs),
(399,346,o),
(418,369,o),
(418,394,cs),
(418,419,o),
(399,442,o),
(363,442,cs),
(291,442,o),
(256,485,o),
(256,549,cs),
(256,605,o),
(290,640,o),
(339,640,cs),
(378,640,o),
(406,614,o),
(406,574,cs),
(406,559,o),
(404,548,o),
(404,532,cs),
(404,508,o),
(425,489,o),
(454,489,cs),
(483,489,o),
(513,513,o),
(513,577,cs),
(513,679,o),
(430,734,o),
(338,734,cs),
(225,734,o),
(145,660,o),
(145,554,cs),
(145,485,o),
(182,438,o),
(231,403,c),
(150,368,o),
(93,288,o),
(93,199,cs),
(93,70,o),
(184,-20,o),
(325,-20,cs),
(453,-20,o),
(556,63,o),
(616,235,cs),
(619,243,o),
(620,251,o),
(620,258,cs),
(620,286,o),
(601,304,o),
(580,304,cs),
(563,304,o),
(545,292,o),
(536,265,cs)
);
}
);
width = 536;
}
);
leftKerningGroup = E;
rightKerningGroup = A;
unicode = 203;
},
{
glyphname = Igrave;
layers = (
{
anchors = (
{
name = t.uni0302_2;
position = "{286, 714}";
},
{
name = b.uni0326_1_2;
position = "{226, 0}";
}
);
hints = (
{
horizontal = 1;
place = (-1,95);
type = Stem;
},
{
horizontal = 1;
place = (646,95);
type = Stem;
},
{
place = (72,109);
type = Stem;
},
{
place = (325,111);
type = Stem;
}
);
layerId = "E0442E84-B566-4B90-AE92-7C1FE943EFDC";
shapes = (
{
closed = 1;
nodes = (
(282,921,ls),
(268,936,o),
(252,942,o),
(239,942,cs),
(213,942,o),
(193,922,o),
(193,896,cs),
(193,883,o),
(198,867,o),
(212,853,cs),
(274,788,ls),
(288,774,o),
(303,768,o),
(317,768,cs),
(342,768,o),
(362,788,o),
(362,814,cs),
(362,828,o),
(357,843,o),
(343,857,cs)
);
},
{
closed = 1;
nodes = (
(325,625,o),
(325,607,o),
(325,589,cs),
(325,244,o),
(288,94,o),
(223,94,cs),
(187,94,o),
(177,125,o),
(142,125,cs),
(117,125,o),
(98,107,o),
(98,77,cs),
(98,37,o),
(145,-1,o),
(226,-1,cs),
(372,-1,o),
(436,150,o),
(436,572,cs),
(436,607,o),
(435,645,o),
(434,686,cs),
(433,713,o),
(416,729,o),
(387,733,cs),
(351,739,o),
(308,741,o),
(264,741,cs),
(148,741,o),
(72,674,o),
(72,585,cs),
(72,509,o),
(139,443,o),
(203,443,cs),
(233,443,o),
(252,461,o),
(252,488,cs),
(252,506,o),
(241,518,o),
(227,528,cs),
(204,545,o),
(181,559,o),
(181,586,cs),
(181,621,o),
(210,646,o),
(266,646,cs),
(286,646,o),
(307,645,o),
(325,643,c)
);
}
);
width = 451;
}
);
leftKerningGroup = I2;
rightKerningGroup = I;
unicode = 204;
},
{
glyphname = Iacute;
layers = (
{
anchors = (
{
name = t.uni0302_2;
position = "{286, 714}";
},
{
name = b.uni0326_1_2;
position = "{226, 0}";
}
);
hints = (
{
horizontal = 1;
place = (-1,95);
type = Stem;
},
{
horizontal = 1;
place = (646,95);
type = Stem;
},
{
place = (72,109);
type = Stem;
},
{
place = (325,111);
type = Stem;
}
);
layerId = "E0442E84-B566-4B90-AE92-7C1FE943EFDC";
shapes = (
{
closed = 1;
nodes = (
(273,857,ls),
(259,843,o),
(254,828,o),
(254,814,cs),
(254,789,o),
(274,768,o),
(300,768,cs),
(313,768,o),
(328,774,o),
(342,788,cs),
(404,853,ls),
(418,867,o),
(424,883,o),
(424,896,cs),
(424,922,o),
(403,942,o),
(378,942,cs),
(364,942,o),
(348,936,o),
(334,921,cs)
);
},
{
closed = 1;
nodes = (
(325,625,o),
(325,607,o),
(325,589,cs),
(325,244,o),
(288,94,o),
(223,94,cs),
(187,94,o),
(177,125,o),
(142,125,cs),
(117,125,o),
(98,107,o),
(98,77,cs),
(98,37,o),
(145,-1,o),
(226,-1,cs),
(372,-1,o),
(436,150,o),
(436,572,cs),
(436,607,o),
(435,645,o),
(434,686,cs),
(433,713,o),
(416,729,o),
(387,733,cs),
(351,739,o),
(308,741,o),
(264,741,cs),
(148,741,o),
(72,674,o),
(72,585,cs),
(72,509,o),
(139,443,o),
(203,443,cs),
(233,443,o),
(252,461,o),
(252,488,cs),
(252,506,o),
(241,518,o),
(227,528,cs),
(204,545,o),
(181,559,o),
(181,586,cs),
(181,621,o),
(210,646,o),
(266,646,cs),
(286,646,o),
(307,645,o),
(325,643,c)
);
}
);
width = 451;
}
);
leftKerningGroup = I2;
rightKerningGroup = I;
unicode = 205;
},
{
glyphname = Icircumflex;
layers = (
{
anchors = (
{
name = t.uni0302_2;
position = "{286, 714}";
},
{
name = b.uni0326_1_2;
position = "{226, 0}";
}
);
hints = (
{
horizontal = 1;
place = (-1,95);
type = Stem;
},
{
horizontal = 1;
place = (646,95);
type = Stem;
},
{
place = (72,109);
type = Stem;
},
{
place = (325,111);
type = Stem;
}
);
layerId = "E0442E84-B566-4B90-AE92-7C1FE943EFDC";
shapes = (
{
closed = 1;
nodes = (
(294,814,ls),
(298,817,o),
(303,819,o),
(307,819,cs),
(311,819,o),
(315,817,o),
(319,813,cs),
(338,792,ls),
(350,778,o),
(364,772,o),
(377,772,cs),
(400,772,o),
(420,792,o),
(420,816,cs),
(420,828,o),
(416,840,o),
(406,851,cs),
(349,916,ls),
(340,927,o),
(330,932,o),
(319,932,cs),
(310,932,o),
(301,929,o),
(292,923,cs),
(204,863,ls),
(184,849,o),
(176,833,o),
(176,818,cs),
(176,795,o),
(196,776,o),
(221,776,cs),
(231,776,o),
(241,779,o),
(252,786,cs)
);
},
{
closed = 1;
nodes = (
(325,625,o),
(325,607,o),
(325,589,cs),
(325,244,o),
(288,94,o),
(223,94,cs),
(187,94,o),
(177,125,o),
(142,125,cs),
(117,125,o),
(98,107,o),
(98,77,cs),
(98,37,o),
(145,-1,o),
(226,-1,cs),
(372,-1,o),
(436,150,o),
(436,572,cs),
(436,607,o),
(435,645,o),
(434,686,cs),
(433,713,o),
(416,729,o),
(387,733,cs),
(351,739,o),
(308,741,o),
(264,741,cs),
(148,741,o),
(72,674,o),
(72,585,cs),
(72,509,o),
(139,443,o),
(203,443,cs),
(233,443,o),
(252,461,o),
(252,488,cs),
(252,506,o),
(241,518,o),
(227,528,cs),
(204,545,o),
(181,559,o),
(181,586,cs),
(181,621,o),
(210,646,o),
(266,646,cs),
(286,646,o),
(307,645,o),
(325,643,c)
);
}
);
width = 451;
}
);
leftKerningGroup = I2;
rightKerningGroup = I;
unicode = 206;
},
{
glyphname = Idieresis;
layers = (
{
anchors = (
{
name = t.uni0302_2;
position = "{286, 714}";
},
{
name = b.uni0326_1_2;
position = "{226, 0}";
}
);
hints = (
{
horizontal = 1;
place = (-1,95);
type = Stem;
},
{
horizontal = 1;
place = (646,95);
type = Stem;
},
{
horizontal = 1;
place = (777,115);
type = Stem;
},
{
place = (72,109);
type = Stem;
},
{
place = (165,115);
type = Stem;
},
{
place = (319,115);
type = Stem;
},
{
place = (325,111);
type = Stem;
}
);
layerId = "E0442E84-B566-4B90-AE92-7C1FE943EFDC";
shapes = (
{
closed = 1;
nodes = (
(254,777,o),
(280,803,o),
(280,835,cs),
(280,866,o),
(254,892,o),
(223,892,cs),
(191,892,o),
(165,866,o),
(165,835,cs),
(165,803,o),
(191,777,o),
(223,777,cs)
);
},
{
closed = 1;
nodes = (
(408,777,o),
(434,803,o),
(434,835,cs),
(434,866,o),
(408,892,o),
(377,892,cs),
(345,892,o),
(319,866,o),
(319,835,cs),
(319,803,o),
(345,777,o),
(377,777,cs)
);
},
{
closed = 1;
nodes = (
(325,625,o),
(325,607,o),
(325,589,cs),
(325,244,o),
(288,94,o),
(223,94,cs),
(187,94,o),
(177,125,o),
(142,125,cs),
(117,125,o),
(98,107,o),
(98,77,cs),
(98,37,o),
(145,-1,o),
(226,-1,cs),
(372,-1,o),
(436,150,o),
(436,572,cs),
(436,607,o),
(435,645,o),
(434,686,cs),
(433,713,o),
(416,729,o),
(387,733,cs),
(351,739,o),
(308,741,o),
(264,741,cs),
(148,741,o),
(72,674,o),
(72,585,cs),
(72,509,o),
(139,443,o),
(203,443,cs),
(233,443,o),
(252,461,o),
(252,488,cs),
(252,506,o),
(241,518,o),
(227,528,cs),
(204,545,o),
(181,559,o),
(181,586,cs),
(181,621,o),
(210,646,o),
(266,646,cs),
(286,646,o),
(307,645,o),
(325,643,c)
);
}
);
width = 451;
}
);
leftKerningGroup = I2;
rightKerningGroup = I;
unicode = 207;
},
{
glyphname = Eth;
layers = (
{
anchors = (
{
name = t.uni0302_2;
position = "{454, 707}";
}
);
hints = (
{
horizontal = 1;
place = (-14,102);
type = Stem;
},
{
horizontal = 1;
place = (-12,90);
type = Stem;
},
{
horizontal = 1;
place = (121,86);
type = Stem;
},
{
horizontal = 1;
place = (234,91);
type = Stem;
},
{
horizontal = 1;
place = (373,95);
type = Stem;
},
{
horizontal = 1;
place = (631,102);
type = Stem;
},
{
place = (70,99);
type = Stem;
},
{
place = (142,111);
type = Stem;
},
{
place = (328,112);
type = Stem;
},
{
place = (691,111);
type = Stem;
}
);
layerId = "E0442E84-B566-4B90-AE92-7C1FE943EFDC";
shapes = (
{
closed = 1;
nodes = (
(265,733,o),
(142,648,o),
(142,523,cs),
(142,431,o),
(212,373,o),
(321,373,cs),
(324,373,o),
(326,373,o),
(329,373,c),
(326,325,l),
(304,325,o),
(282,326,o),
(259,329,cs),
(218,333,o),
(195,308,o),
(195,282,cs),
(195,262,o),
(210,240,o),
(242,234,cs),
(265,229,o),
(288,227,o),
(310,226,c),
(306,210,o),
(302,195,o),
(297,181,c),
(267,196,o),
(235,207,o),
(201,207,cs),
(114,207,o),
(70,151,o),
(70,96,cs),
(70,42,o),
(112,-12,o),
(198,-12,cs),
(255,-12,o),
(301,9,o),
(337,47,c),
(390,16,o),
(450,-14,o),
(516,-14,cs),
(665,-14,o),
(802,122,o),
(802,369,cs),
(802,597,o),
(666,733,o),
(442,733,cs)
);
},
{
closed = 1;
nodes = (
(460,88,o),
(425,105,o),
(389,127,c),
(404,159,o),
(416,197,o),
(424,238,c),
(458,246,o),
(492,259,o),
(525,275,cs),
(545,284,o),
(553,301,o),
(553,317,cs),
(553,340,o),
(535,364,o),
(506,364,cs),
(497,364,o),
(487,362,o),
(476,356,cs),
(464,350,o),
(451,345,o),
(438,341,c),
(439,357,o),
(440,374,o),
(440,392,c),
(459,397,o),
(476,404,o),
(492,413,cs),
(515,425,o),
(526,444,o),
(526,460,cs),
(526,483,o),
(507,503,o),
(476,503,cs),
(467,503,o),
(454,499,o),
(440,495,c),
(439,508,o),
(438,521,o),
(436,531,c),
(432,564,o),
(407,582,o),
(381,581,c),
(353,581,o),
(328,559,o),
(328,522,cs),
(328,506,o),
(330,486,o),
(330,468,c),
(321,468,ls),
(277,468,o),
(253,488,o),
(253,524,cs),
(253,588,o),
(324,631,o),
(442,631,cs),
(606,631,o),
(691,543,o),
(691,369,cs),
(691,190,o),
(611,88,o),
(497,88,cs)
);
},
{
closed = 1;
nodes = (
(169,110,o),
(179,121,o),
(198,121,cs),
(213,121,o),
(231,113,o),
(251,102,c),
(236,87,o),
(218,78,o),
(198,78,cs),
(179,78,o),
(169,89,o),
(169,100,cs)
);
}
);
width = 800;
}
);
leftKerningGroup = D2;
rightKerningGroup = D;
unicode = 208;
},
{
glyphname = Ntilde;
layers = (
{
anchors = (
{
name = t.uni0302_2;
position = "{556, 707}";
},
{
name = b.uni0326_1_2;
position = "{491, 7}";
}
);
hints = (
{
horizontal = 1;
place = (-8,96);
type = Stem;
},
{
horizontal = 1;
place = (-15,21);
target = up;
type = BottomGhost;
},
{
horizontal = 1;
place = (635,94);
type = Stem;
},
{
horizontal = 1;
place = (646,95);
type = Stem;
},
{
horizontal = 1;
place = (774,95);
type = Stem;
},
{
horizontal = 1;
place = (804,95);
type = Stem;
},
{
place = (609,111);
type = Stem;
},
{
place = (625,111);
type = Stem;
}
);
layerId = "E0442E84-B566-4B90-AE92-7C1FE943EFDC";
shapes = (
{
closed = 1;
nodes = (
(454,800,o),
(459,804,o),
(465,804,cs),
(478,804,o),
(521,774,o),
(553,774,cs),
(578,774,o),
(602,786,o),
(623,809,cs),
(635,823,o),
(639,836,o),
(639,849,cs),
(639,875,o),
(617,896,o),
(593,896,cs),
(582,896,o),
(571,892,o),
(562,882,cs),
(553,872,o),
(549,869,o),
(544,869,cs),
(531,869,o),
(484,899,o),
(456,899,cs),
(429,899,o),
(400,885,o),
(384,862,cs),
(375,849,o),
(371,837,o),
(371,825,cs),
(371,799,o),
(391,779,o),
(415,779,cs),
(426,779,o),
(438,783,o),
(449,794,cs)
);
},
{
closed = 1;
nodes = (
(822,181,o),
(778,88,o),
(745,88,cs),
(730,88,o),
(720,101,o),
(720,136,cs),
(720,202,o),
(736,412,o),
(736,491,cs),
(736,657,o),
(676,729,o),
(564,729,cs),
(464,729,o),
(394,646,o),
(340,505,c),
(322,664,o),
(266,741,o),
(163,741,cs),
(110,741,o),
(66,716,o),
(31,666,cs),
(21,651,o),
(15,636,o),
(15,622,cs),
(15,595,o),
(34,579,o),
(56,579,cs),
(72,579,o),
(87,587,o),
(99,604,cs),
(124,637,o),
(137,646,o),
(155,646,cs),
(205,646,o),
(238,566,o),
(238,321,cs),
(238,236,o),
(223,106,o),
(214,55,cs),
(213,51,o),
(213,46,o),
(213,42,cs),
(213,9,o),
(237,-15,o),
(267,-15,cs),
(297,-15,o),
(321,7,o),
(326,44,cs),
(331,82,o),
(337,137,o),
(343,198,cs),
(366,434,o),
(472,635,o),
(560,635,cs),
(606,635,o),
(625,604,o),
(625,509,cs),
(625,432,o),
(609,200,o),
(609,157,cs),
(609,44,o),
(661,-8,o),
(736,-8,cs),
(819,-8,o),
(875,72,o),
(931,235,cs),
(934,243,o),
(935,251,o),
(935,258,cs),
(935,285,o),
(916,302,o),
(895,302,cs),
(878,302,o),
(860,291,o),
(851,265,cs)
);
}
);
width = 794;
}
);
leftKerningGroup = M;
rightKerningGroup = A;
unicode = 209;
},
{
glyphname = Ograve;
layers = (
{
anchors = (
{
name = t.uni0302_2;
position = "{472, 707}";
}
);
hints = (
{
horizontal = 1;
place = (-17,96);
type = Stem;
},
{
horizontal = 1;
place = (72,87);
type = Stem;
},
{
horizontal = 1;
place = (636,94);
type = Stem;
},
{
place = (95,111);
type = Stem;
},
{
place = (262,98);
type = Stem;
},
{
place = (572,111);
type = Stem;
}
);
layerId = "E0442E84-B566-4B90-AE92-7C1FE943EFDC";
shapes = (
{
closed = 1;
nodes = (
(460,781,ls),
(474,767,o),
(489,761,o),
(503,761,cs),
(528,761,o),
(548,781,o),
(548,807,cs),
(548,821,o),
(543,836,o),
(529,850,cs),
(468,914,ls),
(454,929,o),
(438,935,o),
(425,935,cs),
(399,935,o),
(379,915,o),
(379,889,cs),
(379,876,o),
(384,860,o),
(398,846,cs)
);
},
{
closed = 1;
nodes = (
(726,203,o),
(682,166,o),
(626,159,c),
(662,230,o),
(683,321,o),
(683,427,cs),
(683,617,o),
(593,730,o),
(470,730,cs),
(433,730,o),
(397,715,o),
(364,688,c),
(356,700,o),
(343,708,o),
(327,708,cs),
(315,708,o),
(302,706,o),
(288,701,cs),
(180,661,o),
(95,490,o),
(95,319,cs),
(95,112,o),
(210,-17,o),
(376,-17,cs),
(449,-17,o),
(516,15,o),
(569,74,c),
(579,73,o),
(589,72,o),
(599,72,cs),
(702,72,o),
(790,124,o),
(829,235,cs),
(832,243,o),
(833,251,o),
(833,258,cs),
(833,285,o),
(814,300,o),
(793,300,cs),
(776,300,o),
(758,289,o),
(749,265,cs)
);
},
{
closed = 1;
nodes = (
(524,636,o),
(572,566,o),
(572,430,cs),
(572,320,o),
(551,235,o),
(518,176,c),
(434,214,o),
(360,308,o),
(360,436,cs),
(360,565,o),
(411,636,o),
(464,636,cs)
);
},
{
closed = 1;
nodes = (
(274,79,o),
(206,162,o),
(206,317,cs),
(206,422,o),
(237,527,o),
(289,580,c),
(272,538,o),
(262,488,o),
(262,433,cs),
(262,269,o),
(350,157,o),
(457,105,c),
(433,88,o),
(405,79,o),
(377,79,cs)
);
}
);
width = 749;
}
);
leftKerningGroup = O;
rightKerningGroup = A;
unicode = 210;
},
{
glyphname = Oacute;
layers = (
{
anchors = (
{
name = t.uni0302_2;
position = "{472, 707}";
}
);
hints = (
{
horizontal = 1;
place = (-17,96);
type = Stem;
},
{
horizontal = 1;
place = (72,87);
type = Stem;
},
{
horizontal = 1;
place = (636,94);
type = Stem;
},
{
place = (95,111);
type = Stem;
},
{
place = (262,98);
type = Stem;
},
{
place = (572,111);
type = Stem;
}
);
layerId = "E0442E84-B566-4B90-AE92-7C1FE943EFDC";
shapes = (
{
closed = 1;
nodes = (
(590,846,ls),
(604,860,o),
(610,876,o),
(610,889,cs),
(610,915,o),
(589,935,o),
(564,935,cs),
(550,935,o),
(534,929,o),
(520,914,cs),
(459,850,ls),
(445,836,o),
(440,821,o),
(440,807,cs),
(440,782,o),
(460,761,o),
(486,761,cs),
(499,761,o),
(514,767,o),
(528,781,cs)
);
},
{
closed = 1;
nodes = (
(726,203,o),
(682,166,o),
(626,159,c),
(662,230,o),
(683,321,o),
(683,427,cs),
(683,617,o),
(593,730,o),
(470,730,cs),
(433,730,o),
(397,715,o),
(364,688,c),
(356,700,o),
(343,708,o),
(327,708,cs),
(315,708,o),
(302,706,o),
(288,701,cs),
(180,661,o),
(95,490,o),
(95,319,cs),
(95,112,o),
(210,-17,o),
(376,-17,cs),
(449,-17,o),
(516,15,o),
(569,74,c),
(579,73,o),
(589,72,o),
(599,72,cs),
(702,72,o),
(790,124,o),
(829,235,cs),
(832,243,o),
(833,251,o),
(833,258,cs),
(833,285,o),
(814,300,o),
(793,300,cs),
(776,300,o),
(758,289,o),
(749,265,cs)
);
},
{
closed = 1;
nodes = (
(524,636,o),
(572,566,o),
(572,430,cs),
(572,320,o),
(551,235,o),
(518,176,c),
(434,214,o),
(360,308,o),
(360,436,cs),
(360,565,o),
(411,636,o),
(464,636,cs)
);
},
{
closed = 1;
nodes = (
(274,79,o),
(206,162,o),
(206,317,cs),
(206,422,o),
(237,527,o),
(289,580,c),
(272,538,o),
(262,488,o),
(262,433,cs),
(262,269,o),
(350,157,o),
(457,105,c),
(433,88,o),
(405,79,o),
(377,79,cs)
);
}
);
width = 749;
}
);
leftKerningGroup = O;
rightKerningGroup = A;
unicode = 211;
},
{
glyphname = Ocircumflex;
layers = (
{
anchors = (
{
name = t.uni0302_2;
position = "{472, 707}";
}
);
hints = (
{
horizontal = 1;
place = (-17,96);
type = Stem;
},
{
horizontal = 1;
place = (72,87);
type = Stem;
},
{
horizontal = 1;
place = (636,94);
type = Stem;
},
{
place = (95,111);
type = Stem;
},
{
place = (262,98);
type = Stem;
},
{
place = (572,111);
type = Stem;
}
);
layerId = "E0442E84-B566-4B90-AE92-7C1FE943EFDC";
shapes = (
{
closed = 1;
nodes = (
(480,807,ls),
(484,810,o),
(489,812,o),
(493,812,cs),
(497,812,o),
(501,810,o),
(505,806,cs),
(524,785,ls),
(536,771,o),
(550,765,o),
(563,765,cs),
(586,765,o),
(606,785,o),
(606,809,cs),
(606,821,o),
(602,833,o),
(592,844,cs),
(535,909,ls),
(526,920,o),
(516,925,o),
(505,925,cs),
(496,925,o),
(487,922,o),
(478,916,cs),
(390,856,ls),
(370,842,o),
(362,826,o),
(362,811,cs),
(362,788,o),
(382,769,o),
(407,769,cs),
(417,769,o),
(427,772,o),
(438,779,cs)
);
},
{
closed = 1;
nodes = (
(726,203,o),
(682,166,o),
(626,159,c),
(662,230,o),
(683,321,o),
(683,427,cs),
(683,617,o),
(593,730,o),
(470,730,cs),
(433,730,o),
(397,715,o),
(364,688,c),
(356,700,o),
(343,708,o),
(327,708,cs),
(315,708,o),
(302,706,o),
(288,701,cs),
(180,661,o),
(95,490,o),
(95,319,cs),
(95,112,o),
(210,-17,o),
(376,-17,cs),
(449,-17,o),
(516,15,o),
(569,74,c),
(579,73,o),
(589,72,o),
(599,72,cs),
(702,72,o),
(790,124,o),
(829,235,cs),
(832,243,o),
(833,251,o),
(833,258,cs),
(833,285,o),
(814,300,o),
(793,300,cs),
(776,300,o),
(758,289,o),
(749,265,cs)
);
},
{
closed = 1;
nodes = (
(524,636,o),
(572,566,o),
(572,430,cs),
(572,320,o),
(551,235,o),
(518,176,c),
(434,214,o),
(360,308,o),
(360,436,cs),
(360,565,o),
(411,636,o),
(464,636,cs)
);
},
{
closed = 1;
nodes = (
(274,79,o),
(206,162,o),
(206,317,cs),
(206,422,o),
(237,527,o),
(289,580,c),
(272,538,o),
(262,488,o),
(262,433,cs),
(262,269,o),
(350,157,o),
(457,105,c),
(433,88,o),
(405,79,o),
(377,79,cs)
);
}
);
width = 749;
}
);
leftKerningGroup = O;
rightKerningGroup = A;
unicode = 212;
},
{
glyphname = Otilde;
layers = (
{
anchors = (
{
name = t.uni0302_2;
position = "{472, 707}";
}
);
hints = (
{
horizontal = 1;
place = (-17,96);
type = Stem;
},
{
horizontal = 1;
place = (72,87);
type = Stem;
},
{
horizontal = 1;
place = (636,94);
type = Stem;
},
{
horizontal = 1;
place = (774,95);
type = Stem;
},
{
horizontal = 1;
place = (804,95);
type = Stem;
},
{
place = (95,111);
type = Stem;
},
{
place = (262,98);
type = Stem;
},
{
place = (572,111);
type = Stem;
}
);
layerId = "E0442E84-B566-4B90-AE92-7C1FE943EFDC";
shapes = (
{
closed = 1;
nodes = (
(427,800,o),
(432,804,o),
(438,804,cs),
(451,804,o),
(494,774,o),
(526,774,cs),
(551,774,o),
(575,786,o),
(596,809,cs),
(608,823,o),
(612,836,o),
(612,849,cs),
(612,875,o),
(590,896,o),
(566,896,cs),
(555,896,o),
(544,892,o),
(535,882,cs),
(526,872,o),
(522,869,o),
(517,869,cs),
(504,869,o),
(457,899,o),
(429,899,cs),
(402,899,o),
(373,885,o),
(357,862,cs),
(348,849,o),
(344,837,o),
(344,825,cs),
(344,799,o),
(364,779,o),
(388,779,cs),
(399,779,o),
(411,783,o),
(422,794,cs)
);
},
{
closed = 1;
nodes = (
(726,203,o),
(682,166,o),
(626,159,c),
(662,230,o),
(683,321,o),
(683,427,cs),
(683,617,o),
(593,730,o),
(470,730,cs),
(433,730,o),
(397,715,o),
(364,688,c),
(356,700,o),
(343,708,o),
(327,708,cs),
(315,708,o),
(302,706,o),
(288,701,cs),
(180,661,o),
(95,490,o),
(95,319,cs),
(95,112,o),
(210,-17,o),
(376,-17,cs),
(449,-17,o),
(516,15,o),
(569,74,c),
(579,73,o),
(589,72,o),
(599,72,cs),
(702,72,o),
(790,124,o),
(829,235,cs),
(832,243,o),
(833,251,o),
(833,258,cs),
(833,285,o),
(814,300,o),
(793,300,cs),
(776,300,o),
(758,289,o),
(749,265,cs)
);
},
{
closed = 1;
nodes = (
(524,636,o),
(572,566,o),
(572,430,cs),
(572,320,o),
(551,235,o),
(518,176,c),
(434,214,o),
(360,308,o),
(360,436,cs),
(360,565,o),
(411,636,o),
(464,636,cs)
);
},
{
closed = 1;
nodes = (
(274,79,o),
(206,162,o),
(206,317,cs),
(206,422,o),
(237,527,o),
(289,580,c),
(272,538,o),
(262,488,o),
(262,433,cs),
(262,269,o),
(350,157,o),
(457,105,c),
(433,88,o),
(405,79,o),
(377,79,cs)
);
}
);
width = 749;
}
);
leftKerningGroup = O;
rightKerningGroup = A;
unicode = 213;
},
{
glyphname = Odieresis;
layers = (
{
anchors = (
{
name = t.uni0302_2;
position = "{472, 707}";
}
);
hints = (
{
horizontal = 1;
place = (-17,96);
type = Stem;
},
{
horizontal = 1;
place = (72,87);
type = Stem;
},
{
horizontal = 1;
place = (636,94);
type = Stem;
},
{
horizontal = 1;
place = (770,115);
type = Stem;
},
{
place = (95,111);
type = Stem;
},
{
place = (262,98);
type = Stem;
},
{
place = (351,115);
type = Stem;
},
{
place = (505,115);
type = Stem;
},
{
place = (572,111);
type = Stem;
}
);
layerId = "E0442E84-B566-4B90-AE92-7C1FE943EFDC";
shapes = (
{
closed = 1;
nodes = (
(440,770,o),
(466,796,o),
(466,828,cs),
(466,859,o),
(440,885,o),
(409,885,cs),
(377,885,o),
(351,859,o),
(351,828,cs),
(351,796,o),
(377,770,o),
(409,770,cs)
);
},
{
closed = 1;
nodes = (
(594,770,o),
(620,796,o),
(620,828,cs),
(620,859,o),
(594,885,o),
(563,885,cs),
(531,885,o),
(505,859,o),
(505,828,cs),
(505,796,o),
(531,770,o),
(563,770,cs)
);
},
{
closed = 1;
nodes = (
(726,203,o),
(682,166,o),
(626,159,c),
(662,230,o),
(683,321,o),
(683,427,cs),
(683,617,o),
(593,730,o),
(470,730,cs),
(433,730,o),
(397,715,o),
(364,688,c),
(356,700,o),
(343,708,o),
(327,708,cs),
(315,708,o),
(302,706,o),
(288,701,cs),
(180,661,o),
(95,490,o),
(95,319,cs),
(95,112,o),
(210,-17,o),
(376,-17,cs),
(449,-17,o),
(516,15,o),
(569,74,c),
(579,73,o),
(589,72,o),
(599,72,cs),
(702,72,o),
(790,124,o),
(829,235,cs),
(832,243,o),
(833,251,o),
(833,258,cs),
(833,285,o),
(814,300,o),
(793,300,cs),
(776,300,o),
(758,289,o),
(749,265,cs)
);
},
{
closed = 1;
nodes = (
(524,636,o),
(572,566,o),
(572,430,cs),
(572,320,o),
(551,235,o),
(518,176,c),
(434,214,o),
(360,308,o),
(360,436,cs),
(360,565,o),
(411,636,o),
(464,636,cs)
);
},
{
closed = 1;
nodes = (
(274,79,o),
(206,162,o),
(206,317,cs),
(206,422,o),
(237,527,o),
(289,580,c),
(272,538,o),
(262,488,o),
(262,433,cs),
(262,269,o),
(350,157,o),
(457,105,c),
(433,88,o),
(405,79,o),
(377,79,cs)
);
}
);
width = 749;
}
);
leftKerningGroup = O;
rightKerningGroup = A;
unicode = 214;
},
{
glyphname = multiply;
layers = (
{
hints = (
{
horizontal = 1;
place = (203,272);
type = Stem;
},
{
place = (52,278);
type = Stem;
}
);
layerId = "E0442E84-B566-4B90-AE92-7C1FE943EFDC";
shapes = (
{
closed = 1;
nodes = (
(262,341,l),
(309,388,l),
(321,399,o),
(326,413,o),
(326,425,cs),
(326,451,o),
(302,475,o),
(275,475,cs),
(263,475,o),
(250,470,o),
(239,459,cs),
(191,411,l),
(146,455,ls),
(134,467,o),
(121,472,o),
(110,472,cs),
(82,472,o),
(59,448,o),
(59,422,cs),
(59,409,o),
(64,396,o),
(76,385,cs),
(121,341,l),
(69,289,l),
(57,278,o),
(52,264,o),
(52,253,cs),
(52,226,o),
(76,203,o),
(102,203,cs),
(115,203,o),
(127,208,o),
(139,219,c),
(191,271,l),
(243,219,ls),
(254,208,o),
(267,203,o),
(279,203,cs),
(306,203,o),
(330,227,o),
(330,253,cs),
(330,265,o),
(325,279,o),
(313,290,c)
);
}
);
width = 364;
}
);
unicode = 215;
},
{
glyphname = Oslash;
layers = (
{
anchors = (
{
name = t.uni0302_2;
position = "{376, 700}";
},
{
name = b.uni0326_1_2;
position = "{376, 0}";
}
);
hints = (
{
horizontal = 1;
place = (-17,96);
type = Stem;
},
{
horizontal = 1;
place = (-14,21);
target = up;
type = BottomGhost;
},
{
horizontal = 1;
place = (74,86);
type = Stem;
},
{
horizontal = 1;
place = (636,94);
type = Stem;
},
{
place = (95,111);
type = Stem;
},
{
place = (572,111);
type = Stem;
}
);
layerId = "E0442E84-B566-4B90-AE92-7C1FE943EFDC";
shapes = (
{
closed = 1;
nodes = (
(727,198,o),
(687,162,o),
(627,160,c),
(662,232,o),
(683,322,o),
(683,427,cs),
(683,506,o),
(666,572,o),
(636,622,c),
(663,663,ls),
(671,676,o),
(675,688,o),
(675,699,cs),
(675,725,o),
(654,744,o),
(630,744,cs),
(614,744,o),
(597,736,o),
(583,716,cs),
(578,709,o),
(573,701,o),
(567,693,c),
(530,717,o),
(485,730,o),
(433,730,cs),
(228,730,o),
(95,563,o),
(95,319,cs),
(95,231,o),
(116,156,o),
(153,101,c),
(129,69,l),
(119,57,o),
(115,44,o),
(115,33,cs),
(115,7,o),
(136,-14,o),
(160,-14,cs),
(174,-14,o),
(189,-6,o),
(203,11,cs),
(208,17,o),
(213,24,o),
(219,31,c),
(262,0,o),
(316,-17,o),
(376,-17,cs),
(450,-17,o),
(517,16,o),
(570,75,c),
(581,74,o),
(592,74,o),
(603,74,cs),
(697,74,o),
(791,120,o),
(832,235,cs),
(835,243,o),
(836,251,o),
(836,258,cs),
(836,285,o),
(817,301,o),
(796,301,cs),
(779,301,o),
(761,290,o),
(752,265,cs)
);
},
{
closed = 1;
nodes = (
(206,516,o),
(290,636,o),
(431,636,cs),
(462,636,o),
(488,627,o),
(510,609,c),
(429,490,o),
(314,324,o),
(223,197,c),
(212,231,o),
(206,271,o),
(206,317,cs)
);
},
{
closed = 1;
nodes = (
(339,79,o),
(306,90,o),
(279,112,c),
(366,230,o),
(478,390,o),
(563,515,c),
(569,490,o),
(572,462,o),
(572,430,cs),
(572,323,o),
(552,240,o),
(521,181,c),
(509,187,o),
(497,194,o),
(486,203,cs),
(476,210,o),
(466,214,o),
(456,214,cs),
(431,214,o),
(409,193,o),
(409,167,cs),
(409,153,o),
(416,137,o),
(433,122,cs),
(440,116,o),
(448,110,o),
(457,105,c),
(432,88,o),
(405,79,o),
(377,79,cs)
);
}
);
width = 752;
}
);
leftKerningGroup = O;
rightKerningGroup = A;
unicode = 216;
},
